<?xml version="1.0" encoding="utf-8" standalone="no"?>
<!DOCTYPE svg PUBLIC "-//W3C//DTD SVG 1.1//EN"
  "http://www.w3.org/Graphics/SVG/1.1/DTD/svg11.dtd">
<svg xmlns:xlink="http://www.w3.org/1999/xlink" width="608.98125pt" height="392.514375pt" viewBox="0 0 608.98125 392.514375" xmlns="http://www.w3.org/2000/svg" version="1.1">
 <metadata>
  <rdf:RDF xmlns:dc="http://purl.org/dc/elements/1.1/" xmlns:cc="http://creativecommons.org/ns#" xmlns:rdf="http://www.w3.org/1999/02/22-rdf-syntax-ns#">
   <cc:Work>
    <dc:type rdf:resource="http://purl.org/dc/dcmitype/StillImage"/>
    <dc:date>2024-12-17T21:35:07.092300</dc:date>
    <dc:format>image/svg+xml</dc:format>
    <dc:creator>
     <cc:Agent>
      <dc:title>Matplotlib v3.9.2, https://matplotlib.org/</dc:title>
     </cc:Agent>
    </dc:creator>
   </cc:Work>
  </rdf:RDF>
 </metadata>
 <defs>
  <style type="text/css">*{stroke-linejoin: round; stroke-linecap: butt}</style>
 </defs>
 <g id="figure_1">
  <g id="patch_1">
   <path d="M 0 392.514375 
L 608.98125 392.514375 
L 608.98125 0 
L 0 0 
z
" style="fill: #ffffff"/>
  </g>
  <g id="axes_1">
   <g id="patch_2">
    <path d="M 43.78125 354.958125 
L 601.78125 354.958125 
L 601.78125 22.318125 
L 43.78125 22.318125 
z
" style="fill: #ffffff"/>
   </g>
   <g id="matplotlib.axis_1">
    <g id="xtick_1">
     <g id="line2d_1">
      <defs>
       <path id="m2eb31a889a" d="M 0 0 
L 0 3.5 
" style="stroke: #000000; stroke-width: 0.8"/>
      </defs>
      <g>
       <use xlink:href="#m2eb31a889a" x="125.508523" y="354.958125" style="stroke: #000000; stroke-width: 0.8"/>
      </g>
     </g>
     <g id="text_1">
      <!-- 2 -->
      <g transform="translate(122.327273 369.556562) scale(0.1 -0.1)">
       <defs>
        <path id="DejaVuSans-32" d="M 1228 531 
L 3431 531 
L 3431 0 
L 469 0 
L 469 531 
Q 828 903 1448 1529 
Q 2069 2156 2228 2338 
Q 2531 2678 2651 2914 
Q 2772 3150 2772 3378 
Q 2772 3750 2511 3984 
Q 2250 4219 1831 4219 
Q 1534 4219 1204 4116 
Q 875 4013 500 3803 
L 500 4441 
Q 881 4594 1212 4672 
Q 1544 4750 1819 4750 
Q 2544 4750 2975 4387 
Q 3406 4025 3406 3419 
Q 3406 3131 3298 2873 
Q 3191 2616 2906 2266 
Q 2828 2175 2409 1742 
Q 1991 1309 1228 531 
z
" transform="scale(0.015625)"/>
       </defs>
       <use xlink:href="#DejaVuSans-32"/>
      </g>
     </g>
    </g>
    <g id="xtick_2">
     <g id="line2d_2">
      <g>
       <use xlink:href="#m2eb31a889a" x="238.235795" y="354.958125" style="stroke: #000000; stroke-width: 0.8"/>
      </g>
     </g>
     <g id="text_2">
      <!-- 4 -->
      <g transform="translate(235.054545 369.556562) scale(0.1 -0.1)">
       <defs>
        <path id="DejaVuSans-34" d="M 2419 4116 
L 825 1625 
L 2419 1625 
L 2419 4116 
z
M 2253 4666 
L 3047 4666 
L 3047 1625 
L 3713 1625 
L 3713 1100 
L 3047 1100 
L 3047 0 
L 2419 0 
L 2419 1100 
L 313 1100 
L 313 1709 
L 2253 4666 
z
" transform="scale(0.015625)"/>
       </defs>
       <use xlink:href="#DejaVuSans-34"/>
      </g>
     </g>
    </g>
    <g id="xtick_3">
     <g id="line2d_3">
      <g>
       <use xlink:href="#m2eb31a889a" x="350.963068" y="354.958125" style="stroke: #000000; stroke-width: 0.8"/>
      </g>
     </g>
     <g id="text_3">
      <!-- 6 -->
      <g transform="translate(347.781818 369.556562) scale(0.1 -0.1)">
       <defs>
        <path id="DejaVuSans-36" d="M 2113 2584 
Q 1688 2584 1439 2293 
Q 1191 2003 1191 1497 
Q 1191 994 1439 701 
Q 1688 409 2113 409 
Q 2538 409 2786 701 
Q 3034 994 3034 1497 
Q 3034 2003 2786 2293 
Q 2538 2584 2113 2584 
z
M 3366 4563 
L 3366 3988 
Q 3128 4100 2886 4159 
Q 2644 4219 2406 4219 
Q 1781 4219 1451 3797 
Q 1122 3375 1075 2522 
Q 1259 2794 1537 2939 
Q 1816 3084 2150 3084 
Q 2853 3084 3261 2657 
Q 3669 2231 3669 1497 
Q 3669 778 3244 343 
Q 2819 -91 2113 -91 
Q 1303 -91 875 529 
Q 447 1150 447 2328 
Q 447 3434 972 4092 
Q 1497 4750 2381 4750 
Q 2619 4750 2861 4703 
Q 3103 4656 3366 4563 
z
" transform="scale(0.015625)"/>
       </defs>
       <use xlink:href="#DejaVuSans-36"/>
      </g>
     </g>
    </g>
    <g id="xtick_4">
     <g id="line2d_4">
      <g>
       <use xlink:href="#m2eb31a889a" x="463.690341" y="354.958125" style="stroke: #000000; stroke-width: 0.8"/>
      </g>
     </g>
     <g id="text_4">
      <!-- 8 -->
      <g transform="translate(460.509091 369.556562) scale(0.1 -0.1)">
       <defs>
        <path id="DejaVuSans-38" d="M 2034 2216 
Q 1584 2216 1326 1975 
Q 1069 1734 1069 1313 
Q 1069 891 1326 650 
Q 1584 409 2034 409 
Q 2484 409 2743 651 
Q 3003 894 3003 1313 
Q 3003 1734 2745 1975 
Q 2488 2216 2034 2216 
z
M 1403 2484 
Q 997 2584 770 2862 
Q 544 3141 544 3541 
Q 544 4100 942 4425 
Q 1341 4750 2034 4750 
Q 2731 4750 3128 4425 
Q 3525 4100 3525 3541 
Q 3525 3141 3298 2862 
Q 3072 2584 2669 2484 
Q 3125 2378 3379 2068 
Q 3634 1759 3634 1313 
Q 3634 634 3220 271 
Q 2806 -91 2034 -91 
Q 1263 -91 848 271 
Q 434 634 434 1313 
Q 434 1759 690 2068 
Q 947 2378 1403 2484 
z
M 1172 3481 
Q 1172 3119 1398 2916 
Q 1625 2713 2034 2713 
Q 2441 2713 2670 2916 
Q 2900 3119 2900 3481 
Q 2900 3844 2670 4047 
Q 2441 4250 2034 4250 
Q 1625 4250 1398 4047 
Q 1172 3844 1172 3481 
z
" transform="scale(0.015625)"/>
       </defs>
       <use xlink:href="#DejaVuSans-38"/>
      </g>
     </g>
    </g>
    <g id="xtick_5">
     <g id="line2d_5">
      <g>
       <use xlink:href="#m2eb31a889a" x="576.417614" y="354.958125" style="stroke: #000000; stroke-width: 0.8"/>
      </g>
     </g>
     <g id="text_5">
      <!-- 10 -->
      <g transform="translate(570.055114 369.556562) scale(0.1 -0.1)">
       <defs>
        <path id="DejaVuSans-31" d="M 794 531 
L 1825 531 
L 1825 4091 
L 703 3866 
L 703 4441 
L 1819 4666 
L 2450 4666 
L 2450 531 
L 3481 531 
L 3481 0 
L 794 0 
L 794 531 
z
" transform="scale(0.015625)"/>
        <path id="DejaVuSans-30" d="M 2034 4250 
Q 1547 4250 1301 3770 
Q 1056 3291 1056 2328 
Q 1056 1369 1301 889 
Q 1547 409 2034 409 
Q 2525 409 2770 889 
Q 3016 1369 3016 2328 
Q 3016 3291 2770 3770 
Q 2525 4250 2034 4250 
z
M 2034 4750 
Q 2819 4750 3233 4129 
Q 3647 3509 3647 2328 
Q 3647 1150 3233 529 
Q 2819 -91 2034 -91 
Q 1250 -91 836 529 
Q 422 1150 422 2328 
Q 422 3509 836 4129 
Q 1250 4750 2034 4750 
z
" transform="scale(0.015625)"/>
       </defs>
       <use xlink:href="#DejaVuSans-31"/>
       <use xlink:href="#DejaVuSans-30" x="63.623047"/>
      </g>
     </g>
    </g>
    <g id="text_6">
     <!-- PC -->
     <g transform="translate(316.275 383.234687) scale(0.1 -0.1)">
      <defs>
       <path id="DejaVuSans-50" d="M 1259 4147 
L 1259 2394 
L 2053 2394 
Q 2494 2394 2734 2622 
Q 2975 2850 2975 3272 
Q 2975 3691 2734 3919 
Q 2494 4147 2053 4147 
L 1259 4147 
z
M 628 4666 
L 2053 4666 
Q 2838 4666 3239 4311 
Q 3641 3956 3641 3272 
Q 3641 2581 3239 2228 
Q 2838 1875 2053 1875 
L 1259 1875 
L 1259 0 
L 628 0 
L 628 4666 
z
" transform="scale(0.015625)"/>
       <path id="DejaVuSans-43" d="M 4122 4306 
L 4122 3641 
Q 3803 3938 3442 4084 
Q 3081 4231 2675 4231 
Q 1875 4231 1450 3742 
Q 1025 3253 1025 2328 
Q 1025 1406 1450 917 
Q 1875 428 2675 428 
Q 3081 428 3442 575 
Q 3803 722 4122 1019 
L 4122 359 
Q 3791 134 3420 21 
Q 3050 -91 2638 -91 
Q 1578 -91 968 557 
Q 359 1206 359 2328 
Q 359 3453 968 4101 
Q 1578 4750 2638 4750 
Q 3056 4750 3426 4639 
Q 3797 4528 4122 4306 
z
" transform="scale(0.015625)"/>
      </defs>
      <use xlink:href="#DejaVuSans-50"/>
      <use xlink:href="#DejaVuSans-43" x="60.302734"/>
     </g>
    </g>
   </g>
   <g id="matplotlib.axis_2">
    <g id="ytick_1">
     <g id="line2d_6">
      <defs>
       <path id="m49b315503b" d="M 0 0 
L -3.5 0 
" style="stroke: #000000; stroke-width: 0.8"/>
      </defs>
      <g>
       <use xlink:href="#m49b315503b" x="43.78125" y="341.272725" style="stroke: #000000; stroke-width: 0.8"/>
      </g>
     </g>
     <g id="text_7">
      <!-- 0.0 -->
      <g transform="translate(20.878125 345.071944) scale(0.1 -0.1)">
       <defs>
        <path id="DejaVuSans-2e" d="M 684 794 
L 1344 794 
L 1344 0 
L 684 0 
L 684 794 
z
" transform="scale(0.015625)"/>
       </defs>
       <use xlink:href="#DejaVuSans-30"/>
       <use xlink:href="#DejaVuSans-2e" x="63.623047"/>
       <use xlink:href="#DejaVuSans-30" x="95.410156"/>
      </g>
     </g>
    </g>
    <g id="ytick_2">
     <g id="line2d_7">
      <g>
       <use xlink:href="#m49b315503b" x="43.78125" y="292.418006" style="stroke: #000000; stroke-width: 0.8"/>
      </g>
     </g>
     <g id="text_8">
      <!-- 0.5 -->
      <g transform="translate(20.878125 296.217225) scale(0.1 -0.1)">
       <defs>
        <path id="DejaVuSans-35" d="M 691 4666 
L 3169 4666 
L 3169 4134 
L 1269 4134 
L 1269 2991 
Q 1406 3038 1543 3061 
Q 1681 3084 1819 3084 
Q 2600 3084 3056 2656 
Q 3513 2228 3513 1497 
Q 3513 744 3044 326 
Q 2575 -91 1722 -91 
Q 1428 -91 1123 -41 
Q 819 9 494 109 
L 494 744 
Q 775 591 1075 516 
Q 1375 441 1709 441 
Q 2250 441 2565 725 
Q 2881 1009 2881 1497 
Q 2881 1984 2565 2268 
Q 2250 2553 1709 2553 
Q 1456 2553 1204 2497 
Q 953 2441 691 2322 
L 691 4666 
z
" transform="scale(0.015625)"/>
       </defs>
       <use xlink:href="#DejaVuSans-30"/>
       <use xlink:href="#DejaVuSans-2e" x="63.623047"/>
       <use xlink:href="#DejaVuSans-35" x="95.410156"/>
      </g>
     </g>
    </g>
    <g id="ytick_3">
     <g id="line2d_8">
      <g>
       <use xlink:href="#m49b315503b" x="43.78125" y="243.563287" style="stroke: #000000; stroke-width: 0.8"/>
      </g>
     </g>
     <g id="text_9">
      <!-- 1.0 -->
      <g transform="translate(20.878125 247.362506) scale(0.1 -0.1)">
       <use xlink:href="#DejaVuSans-31"/>
       <use xlink:href="#DejaVuSans-2e" x="63.623047"/>
       <use xlink:href="#DejaVuSans-30" x="95.410156"/>
      </g>
     </g>
    </g>
    <g id="ytick_4">
     <g id="line2d_9">
      <g>
       <use xlink:href="#m49b315503b" x="43.78125" y="194.708569" style="stroke: #000000; stroke-width: 0.8"/>
      </g>
     </g>
     <g id="text_10">
      <!-- 1.5 -->
      <g transform="translate(20.878125 198.507787) scale(0.1 -0.1)">
       <use xlink:href="#DejaVuSans-31"/>
       <use xlink:href="#DejaVuSans-2e" x="63.623047"/>
       <use xlink:href="#DejaVuSans-35" x="95.410156"/>
      </g>
     </g>
    </g>
    <g id="ytick_5">
     <g id="line2d_10">
      <g>
       <use xlink:href="#m49b315503b" x="43.78125" y="145.85385" style="stroke: #000000; stroke-width: 0.8"/>
      </g>
     </g>
     <g id="text_11">
      <!-- 2.0 -->
      <g transform="translate(20.878125 149.653068) scale(0.1 -0.1)">
       <use xlink:href="#DejaVuSans-32"/>
       <use xlink:href="#DejaVuSans-2e" x="63.623047"/>
       <use xlink:href="#DejaVuSans-30" x="95.410156"/>
      </g>
     </g>
    </g>
    <g id="ytick_6">
     <g id="line2d_11">
      <g>
       <use xlink:href="#m49b315503b" x="43.78125" y="96.999131" style="stroke: #000000; stroke-width: 0.8"/>
      </g>
     </g>
     <g id="text_12">
      <!-- 2.5 -->
      <g transform="translate(20.878125 100.798349) scale(0.1 -0.1)">
       <use xlink:href="#DejaVuSans-32"/>
       <use xlink:href="#DejaVuSans-2e" x="63.623047"/>
       <use xlink:href="#DejaVuSans-35" x="95.410156"/>
      </g>
     </g>
    </g>
    <g id="ytick_7">
     <g id="line2d_12">
      <g>
       <use xlink:href="#m49b315503b" x="43.78125" y="48.144412" style="stroke: #000000; stroke-width: 0.8"/>
      </g>
     </g>
     <g id="text_13">
      <!-- 3.0 -->
      <g transform="translate(20.878125 51.94363) scale(0.1 -0.1)">
       <defs>
        <path id="DejaVuSans-33" d="M 2597 2516 
Q 3050 2419 3304 2112 
Q 3559 1806 3559 1356 
Q 3559 666 3084 287 
Q 2609 -91 1734 -91 
Q 1441 -91 1130 -33 
Q 819 25 488 141 
L 488 750 
Q 750 597 1062 519 
Q 1375 441 1716 441 
Q 2309 441 2620 675 
Q 2931 909 2931 1356 
Q 2931 1769 2642 2001 
Q 2353 2234 1838 2234 
L 1294 2234 
L 1294 2753 
L 1863 2753 
Q 2328 2753 2575 2939 
Q 2822 3125 2822 3475 
Q 2822 3834 2567 4026 
Q 2313 4219 1838 4219 
Q 1578 4219 1281 4162 
Q 984 4106 628 3988 
L 628 4550 
Q 988 4650 1302 4700 
Q 1616 4750 1894 4750 
Q 2613 4750 3031 4423 
Q 3450 4097 3450 3541 
Q 3450 3153 3228 2886 
Q 3006 2619 2597 2516 
z
" transform="scale(0.015625)"/>
       </defs>
       <use xlink:href="#DejaVuSans-33"/>
       <use xlink:href="#DejaVuSans-2e" x="63.623047"/>
       <use xlink:href="#DejaVuSans-30" x="95.410156"/>
      </g>
     </g>
    </g>
    <g id="text_14">
     <!-- E -->
     <g transform="translate(14.798438 191.7975) rotate(-90) scale(0.1 -0.1)">
      <defs>
       <path id="DejaVuSans-45" d="M 628 4666 
L 3578 4666 
L 3578 4134 
L 1259 4134 
L 1259 2753 
L 3481 2753 
L 3481 2222 
L 1259 2222 
L 1259 531 
L 3634 531 
L 3634 0 
L 628 0 
L 628 4666 
z
" transform="scale(0.015625)"/>
      </defs>
      <use xlink:href="#DejaVuSans-45"/>
     </g>
    </g>
   </g>
   <g id="line2d_13">
    <path d="M 69.144886 243.563287 
L 125.508523 327.255356 
L 181.872159 332.003514 
L 238.235795 335.259461 
L 294.599432 337.316582 
L 350.963068 338.687293 
L 407.326705 338.974821 
L 463.690341 339.668554 
L 520.053977 339.763034 
L 576.417614 339.838125 
" clip-path="url(#pea906da3ca)" style="fill: none; stroke: #1f77b4; stroke-width: 1.5; stroke-linecap: square"/>
    <defs>
     <path id="m93380145ed" d="M 0 3 
C 0.795609 3 1.55874 2.683901 2.12132 2.12132 
C 2.683901 1.55874 3 0.795609 3 0 
C 3 -0.795609 2.683901 -1.55874 2.12132 -2.12132 
C 1.55874 -2.683901 0.795609 -3 0 -3 
C -0.795609 -3 -1.55874 -2.683901 -2.12132 -2.12132 
C -2.683901 -1.55874 -3 -0.795609 -3 0 
C -3 0.795609 -2.683901 1.55874 -2.12132 2.12132 
C -1.55874 2.683901 -0.795609 3 0 3 
z
" style="stroke: #1f77b4"/>
    </defs>
    <g clip-path="url(#pea906da3ca)">
     <use xlink:href="#m93380145ed" x="69.144886" y="243.563287" style="fill: #1f77b4; stroke: #1f77b4"/>
     <use xlink:href="#m93380145ed" x="125.508523" y="327.255356" style="fill: #1f77b4; stroke: #1f77b4"/>
     <use xlink:href="#m93380145ed" x="181.872159" y="332.003514" style="fill: #1f77b4; stroke: #1f77b4"/>
     <use xlink:href="#m93380145ed" x="238.235795" y="335.259461" style="fill: #1f77b4; stroke: #1f77b4"/>
     <use xlink:href="#m93380145ed" x="294.599432" y="337.316582" style="fill: #1f77b4; stroke: #1f77b4"/>
     <use xlink:href="#m93380145ed" x="350.963068" y="338.687293" style="fill: #1f77b4; stroke: #1f77b4"/>
     <use xlink:href="#m93380145ed" x="407.326705" y="338.974821" style="fill: #1f77b4; stroke: #1f77b4"/>
     <use xlink:href="#m93380145ed" x="463.690341" y="339.668554" style="fill: #1f77b4; stroke: #1f77b4"/>
     <use xlink:href="#m93380145ed" x="520.053977" y="339.763034" style="fill: #1f77b4; stroke: #1f77b4"/>
     <use xlink:href="#m93380145ed" x="576.417614" y="339.838125" style="fill: #1f77b4; stroke: #1f77b4"/>
    </g>
   </g>
   <g id="line2d_14">
    <path d="M 69.144886 243.563287 
L 125.508523 296.160058 
L 181.872159 313.056341 
L 238.235795 322.871853 
L 294.599432 326.882064 
L 350.963068 332.441327 
L 407.326705 333.76106 
L 463.690341 336.078748 
L 520.053977 335.46533 
L 576.417614 337.025702 
" clip-path="url(#pea906da3ca)" style="fill: none; stroke: #ff7f0e; stroke-width: 1.5; stroke-linecap: square"/>
    <defs>
     <path id="m940ad2c941" d="M 0 3 
C 0.795609 3 1.55874 2.683901 2.12132 2.12132 
C 2.683901 1.55874 3 0.795609 3 0 
C 3 -0.795609 2.683901 -1.55874 2.12132 -2.12132 
C 1.55874 -2.683901 0.795609 -3 0 -3 
C -0.795609 -3 -1.55874 -2.683901 -2.12132 -2.12132 
C -2.683901 -1.55874 -3 -0.795609 -3 0 
C -3 0.795609 -2.683901 1.55874 -2.12132 2.12132 
C -1.55874 2.683901 -0.795609 3 0 3 
z
" style="stroke: #ff7f0e"/>
    </defs>
    <g clip-path="url(#pea906da3ca)">
     <use xlink:href="#m940ad2c941" x="69.144886" y="243.563287" style="fill: #ff7f0e; stroke: #ff7f0e"/>
     <use xlink:href="#m940ad2c941" x="125.508523" y="296.160058" style="fill: #ff7f0e; stroke: #ff7f0e"/>
     <use xlink:href="#m940ad2c941" x="181.872159" y="313.056341" style="fill: #ff7f0e; stroke: #ff7f0e"/>
     <use xlink:href="#m940ad2c941" x="238.235795" y="322.871853" style="fill: #ff7f0e; stroke: #ff7f0e"/>
     <use xlink:href="#m940ad2c941" x="294.599432" y="326.882064" style="fill: #ff7f0e; stroke: #ff7f0e"/>
     <use xlink:href="#m940ad2c941" x="350.963068" y="332.441327" style="fill: #ff7f0e; stroke: #ff7f0e"/>
     <use xlink:href="#m940ad2c941" x="407.326705" y="333.76106" style="fill: #ff7f0e; stroke: #ff7f0e"/>
     <use xlink:href="#m940ad2c941" x="463.690341" y="336.078748" style="fill: #ff7f0e; stroke: #ff7f0e"/>
     <use xlink:href="#m940ad2c941" x="520.053977" y="335.46533" style="fill: #ff7f0e; stroke: #ff7f0e"/>
     <use xlink:href="#m940ad2c941" x="576.417614" y="337.025702" style="fill: #ff7f0e; stroke: #ff7f0e"/>
    </g>
   </g>
   <g id="line2d_15">
    <path d="M 69.144886 243.563287 
L 125.508523 229.882972 
L 181.872159 263.042619 
L 238.235795 285.074972 
L 294.599432 294.536235 
L 350.963068 311.652403 
L 407.326705 315.47466 
L 463.690341 322.508825 
L 520.053977 322.260629 
L 576.417614 326.364601 
" clip-path="url(#pea906da3ca)" style="fill: none; stroke: #2ca02c; stroke-width: 1.5; stroke-linecap: square"/>
    <defs>
     <path id="mfe9e31e041" d="M 0 3 
C 0.795609 3 1.55874 2.683901 2.12132 2.12132 
C 2.683901 1.55874 3 0.795609 3 0 
C 3 -0.795609 2.683901 -1.55874 2.12132 -2.12132 
C 1.55874 -2.683901 0.795609 -3 0 -3 
C -0.795609 -3 -1.55874 -2.683901 -2.12132 -2.12132 
C -2.683901 -1.55874 -3 -0.795609 -3 0 
C -3 0.795609 -2.683901 1.55874 -2.12132 2.12132 
C -1.55874 2.683901 -0.795609 3 0 3 
z
" style="stroke: #2ca02c"/>
    </defs>
    <g clip-path="url(#pea906da3ca)">
     <use xlink:href="#mfe9e31e041" x="69.144886" y="243.563287" style="fill: #2ca02c; stroke: #2ca02c"/>
     <use xlink:href="#mfe9e31e041" x="125.508523" y="229.882972" style="fill: #2ca02c; stroke: #2ca02c"/>
     <use xlink:href="#mfe9e31e041" x="181.872159" y="263.042619" style="fill: #2ca02c; stroke: #2ca02c"/>
     <use xlink:href="#mfe9e31e041" x="238.235795" y="285.074972" style="fill: #2ca02c; stroke: #2ca02c"/>
     <use xlink:href="#mfe9e31e041" x="294.599432" y="294.536235" style="fill: #2ca02c; stroke: #2ca02c"/>
     <use xlink:href="#mfe9e31e041" x="350.963068" y="311.652403" style="fill: #2ca02c; stroke: #2ca02c"/>
     <use xlink:href="#mfe9e31e041" x="407.326705" y="315.47466" style="fill: #2ca02c; stroke: #2ca02c"/>
     <use xlink:href="#mfe9e31e041" x="463.690341" y="322.508825" style="fill: #2ca02c; stroke: #2ca02c"/>
     <use xlink:href="#mfe9e31e041" x="520.053977" y="322.260629" style="fill: #2ca02c; stroke: #2ca02c"/>
     <use xlink:href="#mfe9e31e041" x="576.417614" y="326.364601" style="fill: #2ca02c; stroke: #2ca02c"/>
    </g>
   </g>
   <g id="line2d_16">
    <path d="M 69.144886 243.563287 
L 125.508523 189.90877 
L 181.872159 219.408169 
L 238.235795 252.83507 
L 294.599432 264.323538 
L 350.963068 285.943449 
L 407.326705 294.619321 
L 463.690341 308.741375 
L 520.053977 301.301131 
L 576.417614 310.68529 
" clip-path="url(#pea906da3ca)" style="fill: none; stroke: #d62728; stroke-width: 1.5; stroke-linecap: square"/>
    <defs>
     <path id="m860b2e86db" d="M 0 3 
C 0.795609 3 1.55874 2.683901 2.12132 2.12132 
C 2.683901 1.55874 3 0.795609 3 0 
C 3 -0.795609 2.683901 -1.55874 2.12132 -2.12132 
C 1.55874 -2.683901 0.795609 -3 0 -3 
C -0.795609 -3 -1.55874 -2.683901 -2.12132 -2.12132 
C -2.683901 -1.55874 -3 -0.795609 -3 0 
C -3 0.795609 -2.683901 1.55874 -2.12132 2.12132 
C -1.55874 2.683901 -0.795609 3 0 3 
z
" style="stroke: #d62728"/>
    </defs>
    <g clip-path="url(#pea906da3ca)">
     <use xlink:href="#m860b2e86db" x="69.144886" y="243.563287" style="fill: #d62728; stroke: #d62728"/>
     <use xlink:href="#m860b2e86db" x="125.508523" y="189.90877" style="fill: #d62728; stroke: #d62728"/>
     <use xlink:href="#m860b2e86db" x="181.872159" y="219.408169" style="fill: #d62728; stroke: #d62728"/>
     <use xlink:href="#m860b2e86db" x="238.235795" y="252.83507" style="fill: #d62728; stroke: #d62728"/>
     <use xlink:href="#m860b2e86db" x="294.599432" y="264.323538" style="fill: #d62728; stroke: #d62728"/>
     <use xlink:href="#m860b2e86db" x="350.963068" y="285.943449" style="fill: #d62728; stroke: #d62728"/>
     <use xlink:href="#m860b2e86db" x="407.326705" y="294.619321" style="fill: #d62728; stroke: #d62728"/>
     <use xlink:href="#m860b2e86db" x="463.690341" y="308.741375" style="fill: #d62728; stroke: #d62728"/>
     <use xlink:href="#m860b2e86db" x="520.053977" y="301.301131" style="fill: #d62728; stroke: #d62728"/>
     <use xlink:href="#m860b2e86db" x="576.417614" y="310.68529" style="fill: #d62728; stroke: #d62728"/>
    </g>
   </g>
   <g id="line2d_17">
    <path d="M 69.144886 243.563287 
L 125.508523 257.638145 
L 181.872159 180.345185 
L 238.235795 297.132173 
L 294.599432 239.616769 
L 350.963068 314.153409 
L 407.326705 283.261879 
L 463.690341 299.130337 
L 520.053977 323.395345 
L 576.417614 304.242694 
" clip-path="url(#pea906da3ca)" style="fill: none; stroke: #9467bd; stroke-width: 1.5; stroke-linecap: square"/>
    <defs>
     <path id="m95d8c4bbf6" d="M 0 3 
C 0.795609 3 1.55874 2.683901 2.12132 2.12132 
C 2.683901 1.55874 3 0.795609 3 0 
C 3 -0.795609 2.683901 -1.55874 2.12132 -2.12132 
C 1.55874 -2.683901 0.795609 -3 0 -3 
C -0.795609 -3 -1.55874 -2.683901 -2.12132 -2.12132 
C -2.683901 -1.55874 -3 -0.795609 -3 0 
C -3 0.795609 -2.683901 1.55874 -2.12132 2.12132 
C -1.55874 2.683901 -0.795609 3 0 3 
z
" style="stroke: #9467bd"/>
    </defs>
    <g clip-path="url(#pea906da3ca)">
     <use xlink:href="#m95d8c4bbf6" x="69.144886" y="243.563287" style="fill: #9467bd; stroke: #9467bd"/>
     <use xlink:href="#m95d8c4bbf6" x="125.508523" y="257.638145" style="fill: #9467bd; stroke: #9467bd"/>
     <use xlink:href="#m95d8c4bbf6" x="181.872159" y="180.345185" style="fill: #9467bd; stroke: #9467bd"/>
     <use xlink:href="#m95d8c4bbf6" x="238.235795" y="297.132173" style="fill: #9467bd; stroke: #9467bd"/>
     <use xlink:href="#m95d8c4bbf6" x="294.599432" y="239.616769" style="fill: #9467bd; stroke: #9467bd"/>
     <use xlink:href="#m95d8c4bbf6" x="350.963068" y="314.153409" style="fill: #9467bd; stroke: #9467bd"/>
     <use xlink:href="#m95d8c4bbf6" x="407.326705" y="283.261879" style="fill: #9467bd; stroke: #9467bd"/>
     <use xlink:href="#m95d8c4bbf6" x="463.690341" y="299.130337" style="fill: #9467bd; stroke: #9467bd"/>
     <use xlink:href="#m95d8c4bbf6" x="520.053977" y="323.395345" style="fill: #9467bd; stroke: #9467bd"/>
     <use xlink:href="#m95d8c4bbf6" x="576.417614" y="304.242694" style="fill: #9467bd; stroke: #9467bd"/>
    </g>
   </g>
   <g id="line2d_18">
    <path d="M 69.144886 243.563287 
L 125.508523 113.146763 
L 181.872159 246.090542 
L 238.235795 264.478899 
L 294.599432 213.827689 
L 350.963068 299.554127 
L 407.326705 304.980518 
L 463.690341 309.378271 
L 520.053977 314.104912 
L 576.417614 313.925385 
" clip-path="url(#pea906da3ca)" style="fill: none; stroke: #8c564b; stroke-width: 1.5; stroke-linecap: square"/>
    <defs>
     <path id="m3008fae132" d="M 0 3 
C 0.795609 3 1.55874 2.683901 2.12132 2.12132 
C 2.683901 1.55874 3 0.795609 3 0 
C 3 -0.795609 2.683901 -1.55874 2.12132 -2.12132 
C 1.55874 -2.683901 0.795609 -3 0 -3 
C -0.795609 -3 -1.55874 -2.683901 -2.12132 -2.12132 
C -2.683901 -1.55874 -3 -0.795609 -3 0 
C -3 0.795609 -2.683901 1.55874 -2.12132 2.12132 
C -1.55874 2.683901 -0.795609 3 0 3 
z
" style="stroke: #8c564b"/>
    </defs>
    <g clip-path="url(#pea906da3ca)">
     <use xlink:href="#m3008fae132" x="69.144886" y="243.563287" style="fill: #8c564b; stroke: #8c564b"/>
     <use xlink:href="#m3008fae132" x="125.508523" y="113.146763" style="fill: #8c564b; stroke: #8c564b"/>
     <use xlink:href="#m3008fae132" x="181.872159" y="246.090542" style="fill: #8c564b; stroke: #8c564b"/>
     <use xlink:href="#m3008fae132" x="238.235795" y="264.478899" style="fill: #8c564b; stroke: #8c564b"/>
     <use xlink:href="#m3008fae132" x="294.599432" y="213.827689" style="fill: #8c564b; stroke: #8c564b"/>
     <use xlink:href="#m3008fae132" x="350.963068" y="299.554127" style="fill: #8c564b; stroke: #8c564b"/>
     <use xlink:href="#m3008fae132" x="407.326705" y="304.980518" style="fill: #8c564b; stroke: #8c564b"/>
     <use xlink:href="#m3008fae132" x="463.690341" y="309.378271" style="fill: #8c564b; stroke: #8c564b"/>
     <use xlink:href="#m3008fae132" x="520.053977" y="314.104912" style="fill: #8c564b; stroke: #8c564b"/>
     <use xlink:href="#m3008fae132" x="576.417614" y="313.925385" style="fill: #8c564b; stroke: #8c564b"/>
    </g>
   </g>
   <g id="line2d_19">
    <path d="M 69.144886 243.563287 
L 125.508523 144.524012 
L 181.872159 196.06806 
L 238.235795 232.234955 
L 294.599432 264.268337 
L 350.963068 272.557999 
L 407.326705 279.171645 
L 463.690341 288.053825 
L 520.053977 296.007628 
L 576.417614 300.355302 
" clip-path="url(#pea906da3ca)" style="fill: none; stroke: #e377c2; stroke-width: 1.5; stroke-linecap: square"/>
    <defs>
     <path id="m0d22e7760d" d="M 0 3 
C 0.795609 3 1.55874 2.683901 2.12132 2.12132 
C 2.683901 1.55874 3 0.795609 3 0 
C 3 -0.795609 2.683901 -1.55874 2.12132 -2.12132 
C 1.55874 -2.683901 0.795609 -3 0 -3 
C -0.795609 -3 -1.55874 -2.683901 -2.12132 -2.12132 
C -2.683901 -1.55874 -3 -0.795609 -3 0 
C -3 0.795609 -2.683901 1.55874 -2.12132 2.12132 
C -1.55874 2.683901 -0.795609 3 0 3 
z
" style="stroke: #e377c2"/>
    </defs>
    <g clip-path="url(#pea906da3ca)">
     <use xlink:href="#m0d22e7760d" x="69.144886" y="243.563287" style="fill: #e377c2; stroke: #e377c2"/>
     <use xlink:href="#m0d22e7760d" x="125.508523" y="144.524012" style="fill: #e377c2; stroke: #e377c2"/>
     <use xlink:href="#m0d22e7760d" x="181.872159" y="196.06806" style="fill: #e377c2; stroke: #e377c2"/>
     <use xlink:href="#m0d22e7760d" x="238.235795" y="232.234955" style="fill: #e377c2; stroke: #e377c2"/>
     <use xlink:href="#m0d22e7760d" x="294.599432" y="264.268337" style="fill: #e377c2; stroke: #e377c2"/>
     <use xlink:href="#m0d22e7760d" x="350.963068" y="272.557999" style="fill: #e377c2; stroke: #e377c2"/>
     <use xlink:href="#m0d22e7760d" x="407.326705" y="279.171645" style="fill: #e377c2; stroke: #e377c2"/>
     <use xlink:href="#m0d22e7760d" x="463.690341" y="288.053825" style="fill: #e377c2; stroke: #e377c2"/>
     <use xlink:href="#m0d22e7760d" x="520.053977" y="296.007628" style="fill: #e377c2; stroke: #e377c2"/>
     <use xlink:href="#m0d22e7760d" x="576.417614" y="300.355302" style="fill: #e377c2; stroke: #e377c2"/>
    </g>
   </g>
   <g id="line2d_20">
    <path d="M 69.144886 243.563287 
L 125.508523 133.709647 
L 181.872159 167.089324 
L 238.235795 224.587666 
L 294.599432 247.465995 
L 350.963068 249.671099 
L 407.326705 264.087166 
L 463.690341 270.544043 
L 520.053977 280.173633 
L 576.417614 291.651902 
" clip-path="url(#pea906da3ca)" style="fill: none; stroke: #7f7f7f; stroke-width: 1.5; stroke-linecap: square"/>
    <defs>
     <path id="mbc96975aff" d="M 0 3 
C 0.795609 3 1.55874 2.683901 2.12132 2.12132 
C 2.683901 1.55874 3 0.795609 3 0 
C 3 -0.795609 2.683901 -1.55874 2.12132 -2.12132 
C 1.55874 -2.683901 0.795609 -3 0 -3 
C -0.795609 -3 -1.55874 -2.683901 -2.12132 -2.12132 
C -2.683901 -1.55874 -3 -0.795609 -3 0 
C -3 0.795609 -2.683901 1.55874 -2.12132 2.12132 
C -1.55874 2.683901 -0.795609 3 0 3 
z
" style="stroke: #7f7f7f"/>
    </defs>
    <g clip-path="url(#pea906da3ca)">
     <use xlink:href="#mbc96975aff" x="69.144886" y="243.563287" style="fill: #7f7f7f; stroke: #7f7f7f"/>
     <use xlink:href="#mbc96975aff" x="125.508523" y="133.709647" style="fill: #7f7f7f; stroke: #7f7f7f"/>
     <use xlink:href="#mbc96975aff" x="181.872159" y="167.089324" style="fill: #7f7f7f; stroke: #7f7f7f"/>
     <use xlink:href="#mbc96975aff" x="238.235795" y="224.587666" style="fill: #7f7f7f; stroke: #7f7f7f"/>
     <use xlink:href="#mbc96975aff" x="294.599432" y="247.465995" style="fill: #7f7f7f; stroke: #7f7f7f"/>
     <use xlink:href="#mbc96975aff" x="350.963068" y="249.671099" style="fill: #7f7f7f; stroke: #7f7f7f"/>
     <use xlink:href="#mbc96975aff" x="407.326705" y="264.087166" style="fill: #7f7f7f; stroke: #7f7f7f"/>
     <use xlink:href="#mbc96975aff" x="463.690341" y="270.544043" style="fill: #7f7f7f; stroke: #7f7f7f"/>
     <use xlink:href="#mbc96975aff" x="520.053977" y="280.173633" style="fill: #7f7f7f; stroke: #7f7f7f"/>
     <use xlink:href="#mbc96975aff" x="576.417614" y="291.651902" style="fill: #7f7f7f; stroke: #7f7f7f"/>
    </g>
   </g>
   <g id="line2d_21">
    <path d="M 69.144886 243.563287 
L 125.508523 44.947835 
L 181.872159 113.272199 
L 238.235795 190.318198 
L 294.599432 222.322061 
L 350.963068 231.863082 
L 407.326705 251.035167 
L 463.690341 261.084057 
L 520.053977 266.980858 
L 576.417614 269.079627 
" clip-path="url(#pea906da3ca)" style="fill: none; stroke: #bcbd22; stroke-width: 1.5; stroke-linecap: square"/>
    <defs>
     <path id="mdf8203ca2f" d="M 0 3 
C 0.795609 3 1.55874 2.683901 2.12132 2.12132 
C 2.683901 1.55874 3 0.795609 3 0 
C 3 -0.795609 2.683901 -1.55874 2.12132 -2.12132 
C 1.55874 -2.683901 0.795609 -3 0 -3 
C -0.795609 -3 -1.55874 -2.683901 -2.12132 -2.12132 
C -2.683901 -1.55874 -3 -0.795609 -3 0 
C -3 0.795609 -2.683901 1.55874 -2.12132 2.12132 
C -1.55874 2.683901 -0.795609 3 0 3 
z
" style="stroke: #bcbd22"/>
    </defs>
    <g clip-path="url(#pea906da3ca)">
     <use xlink:href="#mdf8203ca2f" x="69.144886" y="243.563287" style="fill: #bcbd22; stroke: #bcbd22"/>
     <use xlink:href="#mdf8203ca2f" x="125.508523" y="44.947835" style="fill: #bcbd22; stroke: #bcbd22"/>
     <use xlink:href="#mdf8203ca2f" x="181.872159" y="113.272199" style="fill: #bcbd22; stroke: #bcbd22"/>
     <use xlink:href="#mdf8203ca2f" x="238.235795" y="190.318198" style="fill: #bcbd22; stroke: #bcbd22"/>
     <use xlink:href="#mdf8203ca2f" x="294.599432" y="222.322061" style="fill: #bcbd22; stroke: #bcbd22"/>
     <use xlink:href="#mdf8203ca2f" x="350.963068" y="231.863082" style="fill: #bcbd22; stroke: #bcbd22"/>
     <use xlink:href="#mdf8203ca2f" x="407.326705" y="251.035167" style="fill: #bcbd22; stroke: #bcbd22"/>
     <use xlink:href="#mdf8203ca2f" x="463.690341" y="261.084057" style="fill: #bcbd22; stroke: #bcbd22"/>
     <use xlink:href="#mdf8203ca2f" x="520.053977" y="266.980858" style="fill: #bcbd22; stroke: #bcbd22"/>
     <use xlink:href="#mdf8203ca2f" x="576.417614" y="269.079627" style="fill: #bcbd22; stroke: #bcbd22"/>
    </g>
   </g>
   <g id="line2d_22">
    <path d="M 69.144886 243.563287 
L 125.508523 37.438125 
L 181.872159 98.289012 
L 238.235795 157.880273 
L 294.599432 201.119683 
L 350.963068 218.357183 
L 407.326705 233.663532 
L 463.690341 247.985941 
L 520.053977 260.341459 
L 576.417614 263.305481 
" clip-path="url(#pea906da3ca)" style="fill: none; stroke: #17becf; stroke-width: 1.5; stroke-linecap: square"/>
    <defs>
     <path id="m2f3eff1c92" d="M 0 3 
C 0.795609 3 1.55874 2.683901 2.12132 2.12132 
C 2.683901 1.55874 3 0.795609 3 0 
C 3 -0.795609 2.683901 -1.55874 2.12132 -2.12132 
C 1.55874 -2.683901 0.795609 -3 0 -3 
C -0.795609 -3 -1.55874 -2.683901 -2.12132 -2.12132 
C -2.683901 -1.55874 -3 -0.795609 -3 0 
C -3 0.795609 -2.683901 1.55874 -2.12132 2.12132 
C -1.55874 2.683901 -0.795609 3 0 3 
z
" style="stroke: #17becf"/>
    </defs>
    <g clip-path="url(#pea906da3ca)">
     <use xlink:href="#m2f3eff1c92" x="69.144886" y="243.563287" style="fill: #17becf; stroke: #17becf"/>
     <use xlink:href="#m2f3eff1c92" x="125.508523" y="37.438125" style="fill: #17becf; stroke: #17becf"/>
     <use xlink:href="#m2f3eff1c92" x="181.872159" y="98.289012" style="fill: #17becf; stroke: #17becf"/>
     <use xlink:href="#m2f3eff1c92" x="238.235795" y="157.880273" style="fill: #17becf; stroke: #17becf"/>
     <use xlink:href="#m2f3eff1c92" x="294.599432" y="201.119683" style="fill: #17becf; stroke: #17becf"/>
     <use xlink:href="#m2f3eff1c92" x="350.963068" y="218.357183" style="fill: #17becf; stroke: #17becf"/>
     <use xlink:href="#m2f3eff1c92" x="407.326705" y="233.663532" style="fill: #17becf; stroke: #17becf"/>
     <use xlink:href="#m2f3eff1c92" x="463.690341" y="247.985941" style="fill: #17becf; stroke: #17becf"/>
     <use xlink:href="#m2f3eff1c92" x="520.053977" y="260.341459" style="fill: #17becf; stroke: #17becf"/>
     <use xlink:href="#m2f3eff1c92" x="576.417614" y="263.305481" style="fill: #17becf; stroke: #17becf"/>
    </g>
   </g>
   <g id="line2d_23">
    <path d="M 69.144886 243.563287 
L 125.508523 41.597042 
L 181.872159 102.451093 
L 238.235795 156.30922 
L 294.599432 167.130335 
L 350.963068 195.242603 
L 407.326705 213.106022 
L 463.690341 233.125916 
L 520.053977 239.065129 
L 576.417614 246.656646 
" clip-path="url(#pea906da3ca)" style="fill: none; stroke: #1f77b4; stroke-width: 1.5; stroke-linecap: square"/>
    <g clip-path="url(#pea906da3ca)">
     <use xlink:href="#m93380145ed" x="69.144886" y="243.563287" style="fill: #1f77b4; stroke: #1f77b4"/>
     <use xlink:href="#m93380145ed" x="125.508523" y="41.597042" style="fill: #1f77b4; stroke: #1f77b4"/>
     <use xlink:href="#m93380145ed" x="181.872159" y="102.451093" style="fill: #1f77b4; stroke: #1f77b4"/>
     <use xlink:href="#m93380145ed" x="238.235795" y="156.30922" style="fill: #1f77b4; stroke: #1f77b4"/>
     <use xlink:href="#m93380145ed" x="294.599432" y="167.130335" style="fill: #1f77b4; stroke: #1f77b4"/>
     <use xlink:href="#m93380145ed" x="350.963068" y="195.242603" style="fill: #1f77b4; stroke: #1f77b4"/>
     <use xlink:href="#m93380145ed" x="407.326705" y="213.106022" style="fill: #1f77b4; stroke: #1f77b4"/>
     <use xlink:href="#m93380145ed" x="463.690341" y="233.125916" style="fill: #1f77b4; stroke: #1f77b4"/>
     <use xlink:href="#m93380145ed" x="520.053977" y="239.065129" style="fill: #1f77b4; stroke: #1f77b4"/>
     <use xlink:href="#m93380145ed" x="576.417614" y="246.656646" style="fill: #1f77b4; stroke: #1f77b4"/>
    </g>
   </g>
   <g id="patch_3">
    <path d="M 43.78125 354.958125 
L 43.78125 22.318125 
" style="fill: none; stroke: #000000; stroke-width: 0.8; stroke-linejoin: miter; stroke-linecap: square"/>
   </g>
   <g id="patch_4">
    <path d="M 601.78125 354.958125 
L 601.78125 22.318125 
" style="fill: none; stroke: #000000; stroke-width: 0.8; stroke-linejoin: miter; stroke-linecap: square"/>
   </g>
   <g id="patch_5">
    <path d="M 43.78125 354.958125 
L 601.78125 354.958125 
" style="fill: none; stroke: #000000; stroke-width: 0.8; stroke-linejoin: miter; stroke-linecap: square"/>
   </g>
   <g id="patch_6">
    <path d="M 43.78125 22.318125 
L 601.78125 22.318125 
" style="fill: none; stroke: #000000; stroke-width: 0.8; stroke-linejoin: miter; stroke-linecap: square"/>
   </g>
   <g id="text_15">
    <!-- Зависимость PC от E для разных значений PC -->
    <g transform="translate(177.94875 16.318125) scale(0.12 -0.12)">
     <defs>
      <path id="DejaVuSans-417" d="M 1828 4750 
Q 2597 4750 3084 4423 
Q 3572 4097 3572 3541 
Q 3572 3153 3350 2886 
Q 3128 2619 2719 2516 
Q 3172 2419 3426 2112 
Q 3681 1806 3681 1356 
Q 3681 638 3126 273 
Q 2572 -91 1828 -91 
Q 1447 -91 1003 12 
Q 559 116 422 203 
L 422 853 
Q 900 575 1164 508 
Q 1428 441 1816 441 
Q 2403 441 2728 666 
Q 3053 891 3053 1356 
Q 3053 1769 2764 2001 
Q 2475 2234 1866 2234 
L 1228 2234 
L 1228 2753 
L 1891 2753 
Q 2450 2753 2697 2939 
Q 2944 3125 2944 3475 
Q 2944 3834 2689 4026 
Q 2434 4219 1816 4219 
Q 1397 4219 1253 4181 
Q 1109 4144 469 3903 
L 469 4519 
Q 822 4644 1190 4697 
Q 1559 4750 1828 4750 
z
" transform="scale(0.015625)"/>
      <path id="DejaVuSans-430" d="M 2194 1759 
Q 1497 1759 1228 1600 
Q 959 1441 959 1056 
Q 959 750 1161 570 
Q 1363 391 1709 391 
Q 2188 391 2477 730 
Q 2766 1069 2766 1631 
L 2766 1759 
L 2194 1759 
z
M 3341 1997 
L 3341 0 
L 2766 0 
L 2766 531 
Q 2569 213 2275 61 
Q 1981 -91 1556 -91 
Q 1019 -91 701 211 
Q 384 513 384 1019 
Q 384 1609 779 1909 
Q 1175 2209 1959 2209 
L 2766 2209 
L 2766 2266 
Q 2766 2663 2505 2880 
Q 2244 3097 1772 3097 
Q 1472 3097 1187 3025 
Q 903 2953 641 2809 
L 641 3341 
Q 956 3463 1253 3523 
Q 1550 3584 1831 3584 
Q 2591 3584 2966 3190 
Q 3341 2797 3341 1997 
z
" transform="scale(0.015625)"/>
      <path id="DejaVuSans-432" d="M 1156 1613 
L 1156 459 
L 1975 459 
Q 2369 459 2575 607 
Q 2781 756 2781 1038 
Q 2781 1319 2575 1466 
Q 2369 1613 1975 1613 
L 1156 1613 
z
M 1156 3041 
L 1156 2072 
L 1913 2072 
Q 2238 2072 2444 2201 
Q 2650 2331 2650 2563 
Q 2650 2794 2444 2917 
Q 2238 3041 1913 3041 
L 1156 3041 
z
M 581 3500 
L 1950 3500 
Q 2566 3500 2897 3275 
Q 3228 3050 3228 2634 
Q 3228 2313 3059 2123 
Q 2891 1934 2559 1888 
Q 2956 1813 3175 1575 
Q 3394 1338 3394 981 
Q 3394 513 3033 256 
Q 2672 0 2003 0 
L 581 0 
L 581 3500 
z
" transform="scale(0.015625)"/>
      <path id="DejaVuSans-438" d="M 3578 3500 
L 3578 0 
L 3006 0 
L 3006 2809 
L 1319 0 
L 581 0 
L 581 3500 
L 1153 3500 
L 1153 697 
L 2838 3500 
L 3578 3500 
z
" transform="scale(0.015625)"/>
      <path id="DejaVuSans-441" d="M 3122 3366 
L 3122 2828 
Q 2878 2963 2633 3030 
Q 2388 3097 2138 3097 
Q 1578 3097 1268 2742 
Q 959 2388 959 1747 
Q 959 1106 1268 751 
Q 1578 397 2138 397 
Q 2388 397 2633 464 
Q 2878 531 3122 666 
L 3122 134 
Q 2881 22 2623 -34 
Q 2366 -91 2075 -91 
Q 1284 -91 818 406 
Q 353 903 353 1747 
Q 353 2603 823 3093 
Q 1294 3584 2113 3584 
Q 2378 3584 2631 3529 
Q 2884 3475 3122 3366 
z
" transform="scale(0.015625)"/>
      <path id="DejaVuSans-43c" d="M 581 3500 
L 1422 3500 
L 2416 1156 
L 3413 3500 
L 4247 3500 
L 4247 0 
L 3669 0 
L 3669 2950 
L 2703 672 
L 2128 672 
L 1159 2950 
L 1159 0 
L 581 0 
L 581 3500 
z
" transform="scale(0.015625)"/>
      <path id="DejaVuSans-43e" d="M 1959 3097 
Q 1497 3097 1228 2736 
Q 959 2375 959 1747 
Q 959 1119 1226 758 
Q 1494 397 1959 397 
Q 2419 397 2687 759 
Q 2956 1122 2956 1747 
Q 2956 2369 2687 2733 
Q 2419 3097 1959 3097 
z
M 1959 3584 
Q 2709 3584 3137 3096 
Q 3566 2609 3566 1747 
Q 3566 888 3137 398 
Q 2709 -91 1959 -91 
Q 1206 -91 779 398 
Q 353 888 353 1747 
Q 353 2609 779 3096 
Q 1206 3584 1959 3584 
z
" transform="scale(0.015625)"/>
      <path id="DejaVuSans-442" d="M 188 3500 
L 3541 3500 
L 3541 3041 
L 2147 3041 
L 2147 0 
L 1581 0 
L 1581 3041 
L 188 3041 
L 188 3500 
z
" transform="scale(0.015625)"/>
      <path id="DejaVuSans-44c" d="M 2781 1038 
Q 2781 1319 2576 1466 
Q 2372 1613 1978 1613 
L 1159 1613 
L 1159 459 
L 1978 459 
Q 2372 459 2576 607 
Q 2781 756 2781 1038 
z
M 581 3500 
L 1159 3500 
L 1159 2072 
L 2003 2072 
Q 2672 2072 3033 1817 
Q 3394 1563 3394 1038 
Q 3394 513 3033 256 
Q 2672 0 2003 0 
L 581 0 
L 581 3500 
z
" transform="scale(0.015625)"/>
      <path id="DejaVuSans-20" transform="scale(0.015625)"/>
      <path id="DejaVuSans-434" d="M 1384 459 
L 3053 459 
L 3053 3041 
L 1844 3041 
L 1844 2603 
Q 1844 1316 1475 628 
L 1384 459 
z
M 550 459 
Q 834 584 959 850 
Q 1266 1509 1266 2838 
L 1266 3500 
L 3631 3500 
L 3631 459 
L 4091 459 
L 4091 -884 
L 3631 -884 
L 3631 0 
L 794 0 
L 794 -884 
L 334 -884 
L 334 459 
L 550 459 
z
" transform="scale(0.015625)"/>
      <path id="DejaVuSans-43b" d="M 238 0 
L 238 478 
Q 806 566 981 959 
Q 1194 1513 1194 2928 
L 1194 3500 
L 3559 3500 
L 3559 0 
L 2984 0 
L 2984 3041 
L 1769 3041 
L 1769 2694 
Q 1769 1344 1494 738 
Q 1200 91 238 0 
z
" transform="scale(0.015625)"/>
      <path id="DejaVuSans-44f" d="M 1181 2491 
Q 1181 2231 1381 2084 
Q 1581 1938 1953 1938 
L 2728 1938 
L 2728 3041 
L 1953 3041 
Q 1581 3041 1381 2897 
Q 1181 2753 1181 2491 
z
M 363 0 
L 1431 1534 
Q 1069 1616 828 1830 
Q 588 2044 588 2491 
Q 588 2997 923 3248 
Q 1259 3500 1938 3500 
L 3306 3500 
L 3306 0 
L 2728 0 
L 2728 1478 
L 2013 1478 
L 981 0 
L 363 0 
z
" transform="scale(0.015625)"/>
      <path id="DejaVuSans-440" d="M 1159 525 
L 1159 -1331 
L 581 -1331 
L 581 3500 
L 1159 3500 
L 1159 2969 
Q 1341 3281 1617 3432 
Q 1894 3584 2278 3584 
Q 2916 3584 3314 3078 
Q 3713 2572 3713 1747 
Q 3713 922 3314 415 
Q 2916 -91 2278 -91 
Q 1894 -91 1617 61 
Q 1341 213 1159 525 
z
M 3116 1747 
Q 3116 2381 2855 2742 
Q 2594 3103 2138 3103 
Q 1681 3103 1420 2742 
Q 1159 2381 1159 1747 
Q 1159 1113 1420 752 
Q 1681 391 2138 391 
Q 2594 391 2855 752 
Q 3116 1113 3116 1747 
z
" transform="scale(0.015625)"/>
      <path id="DejaVuSans-437" d="M 2206 1888 
Q 2594 1813 2809 1584 
Q 3025 1356 3025 1019 
Q 3025 478 2622 193 
Q 2219 -91 1475 -91 
Q 1225 -91 961 -47 
Q 697 -3 416 84 
L 416 619 
Q 638 503 903 445 
Q 1169 388 1459 388 
Q 1931 388 2195 563 
Q 2459 738 2459 1019 
Q 2459 1294 2225 1461 
Q 1991 1628 1563 1628 
L 1100 1628 
L 1100 2103 
L 1584 2103 
Q 1947 2103 2158 2242 
Q 2369 2381 2369 2600 
Q 2369 2800 2151 2944 
Q 1934 3088 1563 3088 
Q 1341 3088 1089 3047 
Q 838 3006 534 2916 
L 534 3438 
Q 841 3513 1106 3550 
Q 1372 3588 1609 3588 
Q 2222 3588 2576 3342 
Q 2931 3097 2931 2656 
Q 2931 2366 2743 2164 
Q 2556 1963 2206 1888 
z
" transform="scale(0.015625)"/>
      <path id="DejaVuSans-43d" d="M 581 3500 
L 1159 3500 
L 1159 2072 
L 3025 2072 
L 3025 3500 
L 3603 3500 
L 3603 0 
L 3025 0 
L 3025 1613 
L 1159 1613 
L 1159 0 
L 581 0 
L 581 3500 
z
" transform="scale(0.015625)"/>
      <path id="DejaVuSans-44b" d="M 3907 3500 
L 4482 3500 
L 4482 0 
L 3907 0 
L 3907 3500 
z
M 4195 3584 
L 4195 3584 
z
M 2781 1038 
Q 2781 1319 2576 1466 
Q 2372 1613 1978 1613 
L 1159 1613 
L 1159 459 
L 1978 459 
Q 2372 459 2576 607 
Q 2781 756 2781 1038 
z
M 581 3500 
L 1159 3500 
L 1159 2072 
L 2003 2072 
Q 2672 2072 3033 1817 
Q 3394 1563 3394 1038 
Q 3394 513 3033 256 
Q 2672 0 2003 0 
L 581 0 
L 581 3500 
z
" transform="scale(0.015625)"/>
      <path id="DejaVuSans-445" d="M 3513 3500 
L 2247 1797 
L 3578 0 
L 2900 0 
L 1881 1375 
L 863 0 
L 184 0 
L 1544 1831 
L 300 3500 
L 978 3500 
L 1906 2253 
L 2834 3500 
L 3513 3500 
z
" transform="scale(0.015625)"/>
      <path id="DejaVuSans-447" d="M 2625 0 
L 2625 1472 
L 1553 1472 
Q 1075 1472 756 1769 
Q 469 2038 469 2613 
L 469 3500 
L 1044 3500 
L 1044 2666 
Q 1044 2300 1206 2116 
Q 1372 1931 1697 1931 
L 2625 1931 
L 2625 3500 
L 3200 3500 
L 3200 0 
L 2625 0 
z
" transform="scale(0.015625)"/>
      <path id="DejaVuSans-435" d="M 3597 1894 
L 3597 1613 
L 953 1613 
Q 991 1019 1311 708 
Q 1631 397 2203 397 
Q 2534 397 2845 478 
Q 3156 559 3463 722 
L 3463 178 
Q 3153 47 2828 -22 
Q 2503 -91 2169 -91 
Q 1331 -91 842 396 
Q 353 884 353 1716 
Q 353 2575 817 3079 
Q 1281 3584 2069 3584 
Q 2775 3584 3186 3129 
Q 3597 2675 3597 1894 
z
M 3022 2063 
Q 3016 2534 2758 2815 
Q 2500 3097 2075 3097 
Q 1594 3097 1305 2825 
Q 1016 2553 972 2059 
L 3022 2063 
z
" transform="scale(0.015625)"/>
      <path id="DejaVuSans-439" d="M 3578 3500 
L 3578 0 
L 3006 0 
L 3006 2809 
L 1319 0 
L 581 0 
L 581 3500 
L 1153 3500 
L 1153 697 
L 2838 3500 
L 3578 3500 
z
M 1102 4833 
L 1471 4833 
Q 1505 4599 1656 4481 
Q 1808 4364 2080 4364 
Q 2349 4364 2499 4480 
Q 2649 4596 2689 4833 
L 3058 4833 
Q 3027 4386 2780 4161 
Q 2533 3936 2080 3936 
Q 1627 3936 1380 4161 
Q 1133 4386 1102 4833 
z
" transform="scale(0.015625)"/>
     </defs>
     <use xlink:href="#DejaVuSans-417"/>
     <use xlink:href="#DejaVuSans-430" x="64.111328"/>
     <use xlink:href="#DejaVuSans-432" x="125.390625"/>
     <use xlink:href="#DejaVuSans-438" x="184.326172"/>
     <use xlink:href="#DejaVuSans-441" x="249.316406"/>
     <use xlink:href="#DejaVuSans-438" x="304.296875"/>
     <use xlink:href="#DejaVuSans-43c" x="369.287109"/>
     <use xlink:href="#DejaVuSans-43e" x="444.726562"/>
     <use xlink:href="#DejaVuSans-441" x="505.908203"/>
     <use xlink:href="#DejaVuSans-442" x="560.888672"/>
     <use xlink:href="#DejaVuSans-44c" x="619.140625"/>
     <use xlink:href="#DejaVuSans-20" x="678.076172"/>
     <use xlink:href="#DejaVuSans-50" x="709.863281"/>
     <use xlink:href="#DejaVuSans-43" x="770.166016"/>
     <use xlink:href="#DejaVuSans-20" x="839.990234"/>
     <use xlink:href="#DejaVuSans-43e" x="871.777344"/>
     <use xlink:href="#DejaVuSans-442" x="932.958984"/>
     <use xlink:href="#DejaVuSans-20" x="991.210938"/>
     <use xlink:href="#DejaVuSans-45" x="1022.998047"/>
     <use xlink:href="#DejaVuSans-20" x="1086.181641"/>
     <use xlink:href="#DejaVuSans-434" x="1117.96875"/>
     <use xlink:href="#DejaVuSans-43b" x="1187.109375"/>
     <use xlink:href="#DejaVuSans-44f" x="1251.025391"/>
     <use xlink:href="#DejaVuSans-20" x="1311.181641"/>
     <use xlink:href="#DejaVuSans-440" x="1342.96875"/>
     <use xlink:href="#DejaVuSans-430" x="1406.445312"/>
     <use xlink:href="#DejaVuSans-437" x="1467.724609"/>
     <use xlink:href="#DejaVuSans-43d" x="1520.898438"/>
     <use xlink:href="#DejaVuSans-44b" x="1586.279297"/>
     <use xlink:href="#DejaVuSans-445" x="1665.234375"/>
     <use xlink:href="#DejaVuSans-20" x="1724.414062"/>
     <use xlink:href="#DejaVuSans-437" x="1756.201172"/>
     <use xlink:href="#DejaVuSans-43d" x="1809.375"/>
     <use xlink:href="#DejaVuSans-430" x="1874.755859"/>
     <use xlink:href="#DejaVuSans-447" x="1936.035156"/>
     <use xlink:href="#DejaVuSans-435" x="1995.117188"/>
     <use xlink:href="#DejaVuSans-43d" x="2056.640625"/>
     <use xlink:href="#DejaVuSans-438" x="2122.021484"/>
     <use xlink:href="#DejaVuSans-439" x="2187.011719"/>
     <use xlink:href="#DejaVuSans-20" x="2252.001953"/>
     <use xlink:href="#DejaVuSans-50" x="2283.789062"/>
     <use xlink:href="#DejaVuSans-43" x="2344.091797"/>
    </g>
   </g>
   <g id="legend_1">
    <g id="patch_7">
     <path d="M 502.067187 206.455625 
L 594.78125 206.455625 
Q 596.78125 206.455625 596.78125 204.455625 
L 596.78125 29.318125 
Q 596.78125 27.318125 594.78125 27.318125 
L 502.067187 27.318125 
Q 500.067187 27.318125 500.067187 29.318125 
L 500.067187 204.455625 
Q 500.067187 206.455625 502.067187 206.455625 
z
" style="fill: #ffffff; opacity: 0.8; stroke: #cccccc; stroke-linejoin: miter"/>
    </g>
    <g id="text_16">
     <!-- Size -->
     <g transform="translate(538.160156 38.916562) scale(0.1 -0.1)">
      <defs>
       <path id="DejaVuSans-53" d="M 3425 4513 
L 3425 3897 
Q 3066 4069 2747 4153 
Q 2428 4238 2131 4238 
Q 1616 4238 1336 4038 
Q 1056 3838 1056 3469 
Q 1056 3159 1242 3001 
Q 1428 2844 1947 2747 
L 2328 2669 
Q 3034 2534 3370 2195 
Q 3706 1856 3706 1288 
Q 3706 609 3251 259 
Q 2797 -91 1919 -91 
Q 1588 -91 1214 -16 
Q 841 59 441 206 
L 441 856 
Q 825 641 1194 531 
Q 1563 422 1919 422 
Q 2459 422 2753 634 
Q 3047 847 3047 1241 
Q 3047 1584 2836 1778 
Q 2625 1972 2144 2069 
L 1759 2144 
Q 1053 2284 737 2584 
Q 422 2884 422 3419 
Q 422 4038 858 4394 
Q 1294 4750 2059 4750 
Q 2388 4750 2728 4690 
Q 3069 4631 3425 4513 
z
" transform="scale(0.015625)"/>
       <path id="DejaVuSans-69" d="M 603 3500 
L 1178 3500 
L 1178 0 
L 603 0 
L 603 3500 
z
M 603 4863 
L 1178 4863 
L 1178 4134 
L 603 4134 
L 603 4863 
z
" transform="scale(0.015625)"/>
       <path id="DejaVuSans-7a" d="M 353 3500 
L 3084 3500 
L 3084 2975 
L 922 459 
L 3084 459 
L 3084 0 
L 275 0 
L 275 525 
L 2438 3041 
L 353 3041 
L 353 3500 
z
" transform="scale(0.015625)"/>
       <path id="DejaVuSans-65" d="M 3597 1894 
L 3597 1613 
L 953 1613 
Q 991 1019 1311 708 
Q 1631 397 2203 397 
Q 2534 397 2845 478 
Q 3156 559 3463 722 
L 3463 178 
Q 3153 47 2828 -22 
Q 2503 -91 2169 -91 
Q 1331 -91 842 396 
Q 353 884 353 1716 
Q 353 2575 817 3079 
Q 1281 3584 2069 3584 
Q 2775 3584 3186 3129 
Q 3597 2675 3597 1894 
z
M 3022 2063 
Q 3016 2534 2758 2815 
Q 2500 3097 2075 3097 
Q 1594 3097 1305 2825 
Q 1016 2553 972 2059 
L 3022 2063 
z
" transform="scale(0.015625)"/>
      </defs>
      <use xlink:href="#DejaVuSans-53"/>
      <use xlink:href="#DejaVuSans-69" x="63.476562"/>
      <use xlink:href="#DejaVuSans-7a" x="91.259766"/>
      <use xlink:href="#DejaVuSans-65" x="143.75"/>
     </g>
    </g>
    <g id="line2d_24">
     <path d="M 504.067187 50.094687 
L 514.067188 50.094687 
L 524.067188 50.094687 
" style="fill: none; stroke: #1f77b4; stroke-width: 1.5; stroke-linecap: square"/>
     <g>
      <use xlink:href="#m93380145ed" x="514.067188" y="50.094687" style="fill: #1f77b4; stroke: #1f77b4"/>
     </g>
    </g>
    <g id="text_17">
     <!-- Size = 100 -->
     <g transform="translate(532.067188 53.594687) scale(0.1 -0.1)">
      <defs>
       <path id="DejaVuSans-3d" d="M 678 2906 
L 4684 2906 
L 4684 2381 
L 678 2381 
L 678 2906 
z
M 678 1631 
L 4684 1631 
L 4684 1100 
L 678 1100 
L 678 1631 
z
" transform="scale(0.015625)"/>
      </defs>
      <use xlink:href="#DejaVuSans-53"/>
      <use xlink:href="#DejaVuSans-69" x="63.476562"/>
      <use xlink:href="#DejaVuSans-7a" x="91.259766"/>
      <use xlink:href="#DejaVuSans-65" x="143.75"/>
      <use xlink:href="#DejaVuSans-20" x="205.273438"/>
      <use xlink:href="#DejaVuSans-3d" x="237.060547"/>
      <use xlink:href="#DejaVuSans-20" x="320.849609"/>
      <use xlink:href="#DejaVuSans-31" x="352.636719"/>
      <use xlink:href="#DejaVuSans-30" x="416.259766"/>
      <use xlink:href="#DejaVuSans-30" x="479.882812"/>
     </g>
    </g>
    <g id="line2d_25">
     <path d="M 504.067187 64.772812 
L 514.067188 64.772812 
L 524.067188 64.772812 
" style="fill: none; stroke: #ff7f0e; stroke-width: 1.5; stroke-linecap: square"/>
     <g>
      <use xlink:href="#m940ad2c941" x="514.067188" y="64.772812" style="fill: #ff7f0e; stroke: #ff7f0e"/>
     </g>
    </g>
    <g id="text_18">
     <!-- Size = 200 -->
     <g transform="translate(532.067188 68.272812) scale(0.1 -0.1)">
      <use xlink:href="#DejaVuSans-53"/>
      <use xlink:href="#DejaVuSans-69" x="63.476562"/>
      <use xlink:href="#DejaVuSans-7a" x="91.259766"/>
      <use xlink:href="#DejaVuSans-65" x="143.75"/>
      <use xlink:href="#DejaVuSans-20" x="205.273438"/>
      <use xlink:href="#DejaVuSans-3d" x="237.060547"/>
      <use xlink:href="#DejaVuSans-20" x="320.849609"/>
      <use xlink:href="#DejaVuSans-32" x="352.636719"/>
      <use xlink:href="#DejaVuSans-30" x="416.259766"/>
      <use xlink:href="#DejaVuSans-30" x="479.882812"/>
     </g>
    </g>
    <g id="line2d_26">
     <path d="M 504.067187 79.450938 
L 514.067188 79.450938 
L 524.067188 79.450938 
" style="fill: none; stroke: #2ca02c; stroke-width: 1.5; stroke-linecap: square"/>
     <g>
      <use xlink:href="#mfe9e31e041" x="514.067188" y="79.450938" style="fill: #2ca02c; stroke: #2ca02c"/>
     </g>
    </g>
    <g id="text_19">
     <!-- Size = 400 -->
     <g transform="translate(532.067188 82.950938) scale(0.1 -0.1)">
      <use xlink:href="#DejaVuSans-53"/>
      <use xlink:href="#DejaVuSans-69" x="63.476562"/>
      <use xlink:href="#DejaVuSans-7a" x="91.259766"/>
      <use xlink:href="#DejaVuSans-65" x="143.75"/>
      <use xlink:href="#DejaVuSans-20" x="205.273438"/>
      <use xlink:href="#DejaVuSans-3d" x="237.060547"/>
      <use xlink:href="#DejaVuSans-20" x="320.849609"/>
      <use xlink:href="#DejaVuSans-34" x="352.636719"/>
      <use xlink:href="#DejaVuSans-30" x="416.259766"/>
      <use xlink:href="#DejaVuSans-30" x="479.882812"/>
     </g>
    </g>
    <g id="line2d_27">
     <path d="M 504.067187 94.129062 
L 514.067188 94.129062 
L 524.067188 94.129062 
" style="fill: none; stroke: #d62728; stroke-width: 1.5; stroke-linecap: square"/>
     <g>
      <use xlink:href="#m860b2e86db" x="514.067188" y="94.129062" style="fill: #d62728; stroke: #d62728"/>
     </g>
    </g>
    <g id="text_20">
     <!-- Size = 600 -->
     <g transform="translate(532.067188 97.629062) scale(0.1 -0.1)">
      <use xlink:href="#DejaVuSans-53"/>
      <use xlink:href="#DejaVuSans-69" x="63.476562"/>
      <use xlink:href="#DejaVuSans-7a" x="91.259766"/>
      <use xlink:href="#DejaVuSans-65" x="143.75"/>
      <use xlink:href="#DejaVuSans-20" x="205.273438"/>
      <use xlink:href="#DejaVuSans-3d" x="237.060547"/>
      <use xlink:href="#DejaVuSans-20" x="320.849609"/>
      <use xlink:href="#DejaVuSans-36" x="352.636719"/>
      <use xlink:href="#DejaVuSans-30" x="416.259766"/>
      <use xlink:href="#DejaVuSans-30" x="479.882812"/>
     </g>
    </g>
    <g id="line2d_28">
     <path d="M 504.067187 108.807187 
L 514.067188 108.807187 
L 524.067188 108.807187 
" style="fill: none; stroke: #9467bd; stroke-width: 1.5; stroke-linecap: square"/>
     <g>
      <use xlink:href="#m95d8c4bbf6" x="514.067188" y="108.807187" style="fill: #9467bd; stroke: #9467bd"/>
     </g>
    </g>
    <g id="text_21">
     <!-- Size = 800 -->
     <g transform="translate(532.067188 112.307187) scale(0.1 -0.1)">
      <use xlink:href="#DejaVuSans-53"/>
      <use xlink:href="#DejaVuSans-69" x="63.476562"/>
      <use xlink:href="#DejaVuSans-7a" x="91.259766"/>
      <use xlink:href="#DejaVuSans-65" x="143.75"/>
      <use xlink:href="#DejaVuSans-20" x="205.273438"/>
      <use xlink:href="#DejaVuSans-3d" x="237.060547"/>
      <use xlink:href="#DejaVuSans-20" x="320.849609"/>
      <use xlink:href="#DejaVuSans-38" x="352.636719"/>
      <use xlink:href="#DejaVuSans-30" x="416.259766"/>
      <use xlink:href="#DejaVuSans-30" x="479.882812"/>
     </g>
    </g>
    <g id="line2d_29">
     <path d="M 504.067187 123.485312 
L 514.067188 123.485312 
L 524.067188 123.485312 
" style="fill: none; stroke: #8c564b; stroke-width: 1.5; stroke-linecap: square"/>
     <g>
      <use xlink:href="#m3008fae132" x="514.067188" y="123.485312" style="fill: #8c564b; stroke: #8c564b"/>
     </g>
    </g>
    <g id="text_22">
     <!-- Size = 1000 -->
     <g transform="translate(532.067188 126.985312) scale(0.1 -0.1)">
      <use xlink:href="#DejaVuSans-53"/>
      <use xlink:href="#DejaVuSans-69" x="63.476562"/>
      <use xlink:href="#DejaVuSans-7a" x="91.259766"/>
      <use xlink:href="#DejaVuSans-65" x="143.75"/>
      <use xlink:href="#DejaVuSans-20" x="205.273438"/>
      <use xlink:href="#DejaVuSans-3d" x="237.060547"/>
      <use xlink:href="#DejaVuSans-20" x="320.849609"/>
      <use xlink:href="#DejaVuSans-31" x="352.636719"/>
      <use xlink:href="#DejaVuSans-30" x="416.259766"/>
      <use xlink:href="#DejaVuSans-30" x="479.882812"/>
      <use xlink:href="#DejaVuSans-30" x="543.505859"/>
     </g>
    </g>
    <g id="line2d_30">
     <path d="M 504.067187 138.163437 
L 514.067188 138.163437 
L 524.067188 138.163437 
" style="fill: none; stroke: #e377c2; stroke-width: 1.5; stroke-linecap: square"/>
     <g>
      <use xlink:href="#m0d22e7760d" x="514.067188" y="138.163437" style="fill: #e377c2; stroke: #e377c2"/>
     </g>
    </g>
    <g id="text_23">
     <!-- Size = 1200 -->
     <g transform="translate(532.067188 141.663437) scale(0.1 -0.1)">
      <use xlink:href="#DejaVuSans-53"/>
      <use xlink:href="#DejaVuSans-69" x="63.476562"/>
      <use xlink:href="#DejaVuSans-7a" x="91.259766"/>
      <use xlink:href="#DejaVuSans-65" x="143.75"/>
      <use xlink:href="#DejaVuSans-20" x="205.273438"/>
      <use xlink:href="#DejaVuSans-3d" x="237.060547"/>
      <use xlink:href="#DejaVuSans-20" x="320.849609"/>
      <use xlink:href="#DejaVuSans-31" x="352.636719"/>
      <use xlink:href="#DejaVuSans-32" x="416.259766"/>
      <use xlink:href="#DejaVuSans-30" x="479.882812"/>
      <use xlink:href="#DejaVuSans-30" x="543.505859"/>
     </g>
    </g>
    <g id="line2d_31">
     <path d="M 504.067187 152.841562 
L 514.067188 152.841562 
L 524.067188 152.841562 
" style="fill: none; stroke: #7f7f7f; stroke-width: 1.5; stroke-linecap: square"/>
     <g>
      <use xlink:href="#mbc96975aff" x="514.067188" y="152.841562" style="fill: #7f7f7f; stroke: #7f7f7f"/>
     </g>
    </g>
    <g id="text_24">
     <!-- Size = 1400 -->
     <g transform="translate(532.067188 156.341562) scale(0.1 -0.1)">
      <use xlink:href="#DejaVuSans-53"/>
      <use xlink:href="#DejaVuSans-69" x="63.476562"/>
      <use xlink:href="#DejaVuSans-7a" x="91.259766"/>
      <use xlink:href="#DejaVuSans-65" x="143.75"/>
      <use xlink:href="#DejaVuSans-20" x="205.273438"/>
      <use xlink:href="#DejaVuSans-3d" x="237.060547"/>
      <use xlink:href="#DejaVuSans-20" x="320.849609"/>
      <use xlink:href="#DejaVuSans-31" x="352.636719"/>
      <use xlink:href="#DejaVuSans-34" x="416.259766"/>
      <use xlink:href="#DejaVuSans-30" x="479.882812"/>
      <use xlink:href="#DejaVuSans-30" x="543.505859"/>
     </g>
    </g>
    <g id="line2d_32">
     <path d="M 504.067187 167.519687 
L 514.067188 167.519687 
L 524.067188 167.519687 
" style="fill: none; stroke: #bcbd22; stroke-width: 1.5; stroke-linecap: square"/>
     <g>
      <use xlink:href="#mdf8203ca2f" x="514.067188" y="167.519687" style="fill: #bcbd22; stroke: #bcbd22"/>
     </g>
    </g>
    <g id="text_25">
     <!-- Size = 1600 -->
     <g transform="translate(532.067188 171.019687) scale(0.1 -0.1)">
      <use xlink:href="#DejaVuSans-53"/>
      <use xlink:href="#DejaVuSans-69" x="63.476562"/>
      <use xlink:href="#DejaVuSans-7a" x="91.259766"/>
      <use xlink:href="#DejaVuSans-65" x="143.75"/>
      <use xlink:href="#DejaVuSans-20" x="205.273438"/>
      <use xlink:href="#DejaVuSans-3d" x="237.060547"/>
      <use xlink:href="#DejaVuSans-20" x="320.849609"/>
      <use xlink:href="#DejaVuSans-31" x="352.636719"/>
      <use xlink:href="#DejaVuSans-36" x="416.259766"/>
      <use xlink:href="#DejaVuSans-30" x="479.882812"/>
      <use xlink:href="#DejaVuSans-30" x="543.505859"/>
     </g>
    </g>
    <g id="line2d_33">
     <path d="M 504.067187 182.197812 
L 514.067188 182.197812 
L 524.067188 182.197812 
" style="fill: none; stroke: #17becf; stroke-width: 1.5; stroke-linecap: square"/>
     <g>
      <use xlink:href="#m2f3eff1c92" x="514.067188" y="182.197812" style="fill: #17becf; stroke: #17becf"/>
     </g>
    </g>
    <g id="text_26">
     <!-- Size = 1800 -->
     <g transform="translate(532.067188 185.697812) scale(0.1 -0.1)">
      <use xlink:href="#DejaVuSans-53"/>
      <use xlink:href="#DejaVuSans-69" x="63.476562"/>
      <use xlink:href="#DejaVuSans-7a" x="91.259766"/>
      <use xlink:href="#DejaVuSans-65" x="143.75"/>
      <use xlink:href="#DejaVuSans-20" x="205.273438"/>
      <use xlink:href="#DejaVuSans-3d" x="237.060547"/>
      <use xlink:href="#DejaVuSans-20" x="320.849609"/>
      <use xlink:href="#DejaVuSans-31" x="352.636719"/>
      <use xlink:href="#DejaVuSans-38" x="416.259766"/>
      <use xlink:href="#DejaVuSans-30" x="479.882812"/>
      <use xlink:href="#DejaVuSans-30" x="543.505859"/>
     </g>
    </g>
    <g id="line2d_34">
     <path d="M 504.067187 196.875937 
L 514.067188 196.875937 
L 524.067188 196.875937 
" style="fill: none; stroke: #1f77b4; stroke-width: 1.5; stroke-linecap: square"/>
     <g>
      <use xlink:href="#m93380145ed" x="514.067188" y="196.875937" style="fill: #1f77b4; stroke: #1f77b4"/>
     </g>
    </g>
    <g id="text_27">
     <!-- Size = 2000 -->
     <g transform="translate(532.067188 200.375937) scale(0.1 -0.1)">
      <use xlink:href="#DejaVuSans-53"/>
      <use xlink:href="#DejaVuSans-69" x="63.476562"/>
      <use xlink:href="#DejaVuSans-7a" x="91.259766"/>
      <use xlink:href="#DejaVuSans-65" x="143.75"/>
      <use xlink:href="#DejaVuSans-20" x="205.273438"/>
      <use xlink:href="#DejaVuSans-3d" x="237.060547"/>
      <use xlink:href="#DejaVuSans-20" x="320.849609"/>
      <use xlink:href="#DejaVuSans-32" x="352.636719"/>
      <use xlink:href="#DejaVuSans-30" x="416.259766"/>
      <use xlink:href="#DejaVuSans-30" x="479.882812"/>
      <use xlink:href="#DejaVuSans-30" x="543.505859"/>
     </g>
    </g>
   </g>
  </g>
 </g>
 <defs>
  <clipPath id="pea906da3ca">
   <rect x="43.78125" y="22.318125" width="558" height="332.64"/>
  </clipPath>
 </defs>
</svg>
