<?xml version="1.0" encoding="utf-8" standalone="no"?>
<!DOCTYPE svg PUBLIC "-//W3C//DTD SVG 1.1//EN"
  "http://www.w3.org/Graphics/SVG/1.1/DTD/svg11.dtd">
<svg xmlns:xlink="http://www.w3.org/1999/xlink" width="605.803125pt" height="392.514375pt" viewBox="0 0 605.803125 392.514375" xmlns="http://www.w3.org/2000/svg" version="1.1">
 <metadata>
  <rdf:RDF xmlns:dc="http://purl.org/dc/elements/1.1/" xmlns:cc="http://creativecommons.org/ns#" xmlns:rdf="http://www.w3.org/1999/02/22-rdf-syntax-ns#">
   <cc:Work>
    <dc:type rdf:resource="http://purl.org/dc/dcmitype/StillImage"/>
    <dc:date>2024-12-17T21:35:06.301409</dc:date>
    <dc:format>image/svg+xml</dc:format>
    <dc:creator>
     <cc:Agent>
      <dc:title>Matplotlib v3.9.2, https://matplotlib.org/</dc:title>
     </cc:Agent>
    </dc:creator>
   </cc:Work>
  </rdf:RDF>
 </metadata>
 <defs>
  <style type="text/css">*{stroke-linejoin: round; stroke-linecap: butt}</style>
 </defs>
 <g id="figure_1">
  <g id="patch_1">
   <path d="M 0 392.514375 
L 605.803125 392.514375 
L 605.803125 0 
L 0 0 
z
" style="fill: #ffffff"/>
  </g>
  <g id="axes_1">
   <g id="patch_2">
    <path d="M 40.603125 354.958125 
L 598.603125 354.958125 
L 598.603125 22.318125 
L 40.603125 22.318125 
z
" style="fill: #ffffff"/>
   </g>
   <g id="matplotlib.axis_1">
    <g id="xtick_1">
     <g id="line2d_1">
      <defs>
       <path id="m630d22b13c" d="M 0 0 
L 0 3.5 
" style="stroke: #000000; stroke-width: 0.8"/>
      </defs>
      <g>
       <use xlink:href="#m630d22b13c" x="122.330398" y="354.958125" style="stroke: #000000; stroke-width: 0.8"/>
      </g>
     </g>
     <g id="text_1">
      <!-- 2 -->
      <g transform="translate(119.149148 369.556562) scale(0.1 -0.1)">
       <defs>
        <path id="DejaVuSans-32" d="M 1228 531 
L 3431 531 
L 3431 0 
L 469 0 
L 469 531 
Q 828 903 1448 1529 
Q 2069 2156 2228 2338 
Q 2531 2678 2651 2914 
Q 2772 3150 2772 3378 
Q 2772 3750 2511 3984 
Q 2250 4219 1831 4219 
Q 1534 4219 1204 4116 
Q 875 4013 500 3803 
L 500 4441 
Q 881 4594 1212 4672 
Q 1544 4750 1819 4750 
Q 2544 4750 2975 4387 
Q 3406 4025 3406 3419 
Q 3406 3131 3298 2873 
Q 3191 2616 2906 2266 
Q 2828 2175 2409 1742 
Q 1991 1309 1228 531 
z
" transform="scale(0.015625)"/>
       </defs>
       <use xlink:href="#DejaVuSans-32"/>
      </g>
     </g>
    </g>
    <g id="xtick_2">
     <g id="line2d_2">
      <g>
       <use xlink:href="#m630d22b13c" x="235.05767" y="354.958125" style="stroke: #000000; stroke-width: 0.8"/>
      </g>
     </g>
     <g id="text_2">
      <!-- 4 -->
      <g transform="translate(231.87642 369.556562) scale(0.1 -0.1)">
       <defs>
        <path id="DejaVuSans-34" d="M 2419 4116 
L 825 1625 
L 2419 1625 
L 2419 4116 
z
M 2253 4666 
L 3047 4666 
L 3047 1625 
L 3713 1625 
L 3713 1100 
L 3047 1100 
L 3047 0 
L 2419 0 
L 2419 1100 
L 313 1100 
L 313 1709 
L 2253 4666 
z
" transform="scale(0.015625)"/>
       </defs>
       <use xlink:href="#DejaVuSans-34"/>
      </g>
     </g>
    </g>
    <g id="xtick_3">
     <g id="line2d_3">
      <g>
       <use xlink:href="#m630d22b13c" x="347.784943" y="354.958125" style="stroke: #000000; stroke-width: 0.8"/>
      </g>
     </g>
     <g id="text_3">
      <!-- 6 -->
      <g transform="translate(344.603693 369.556562) scale(0.1 -0.1)">
       <defs>
        <path id="DejaVuSans-36" d="M 2113 2584 
Q 1688 2584 1439 2293 
Q 1191 2003 1191 1497 
Q 1191 994 1439 701 
Q 1688 409 2113 409 
Q 2538 409 2786 701 
Q 3034 994 3034 1497 
Q 3034 2003 2786 2293 
Q 2538 2584 2113 2584 
z
M 3366 4563 
L 3366 3988 
Q 3128 4100 2886 4159 
Q 2644 4219 2406 4219 
Q 1781 4219 1451 3797 
Q 1122 3375 1075 2522 
Q 1259 2794 1537 2939 
Q 1816 3084 2150 3084 
Q 2853 3084 3261 2657 
Q 3669 2231 3669 1497 
Q 3669 778 3244 343 
Q 2819 -91 2113 -91 
Q 1303 -91 875 529 
Q 447 1150 447 2328 
Q 447 3434 972 4092 
Q 1497 4750 2381 4750 
Q 2619 4750 2861 4703 
Q 3103 4656 3366 4563 
z
" transform="scale(0.015625)"/>
       </defs>
       <use xlink:href="#DejaVuSans-36"/>
      </g>
     </g>
    </g>
    <g id="xtick_4">
     <g id="line2d_4">
      <g>
       <use xlink:href="#m630d22b13c" x="460.512216" y="354.958125" style="stroke: #000000; stroke-width: 0.8"/>
      </g>
     </g>
     <g id="text_4">
      <!-- 8 -->
      <g transform="translate(457.330966 369.556562) scale(0.1 -0.1)">
       <defs>
        <path id="DejaVuSans-38" d="M 2034 2216 
Q 1584 2216 1326 1975 
Q 1069 1734 1069 1313 
Q 1069 891 1326 650 
Q 1584 409 2034 409 
Q 2484 409 2743 651 
Q 3003 894 3003 1313 
Q 3003 1734 2745 1975 
Q 2488 2216 2034 2216 
z
M 1403 2484 
Q 997 2584 770 2862 
Q 544 3141 544 3541 
Q 544 4100 942 4425 
Q 1341 4750 2034 4750 
Q 2731 4750 3128 4425 
Q 3525 4100 3525 3541 
Q 3525 3141 3298 2862 
Q 3072 2584 2669 2484 
Q 3125 2378 3379 2068 
Q 3634 1759 3634 1313 
Q 3634 634 3220 271 
Q 2806 -91 2034 -91 
Q 1263 -91 848 271 
Q 434 634 434 1313 
Q 434 1759 690 2068 
Q 947 2378 1403 2484 
z
M 1172 3481 
Q 1172 3119 1398 2916 
Q 1625 2713 2034 2713 
Q 2441 2713 2670 2916 
Q 2900 3119 2900 3481 
Q 2900 3844 2670 4047 
Q 2441 4250 2034 4250 
Q 1625 4250 1398 4047 
Q 1172 3844 1172 3481 
z
" transform="scale(0.015625)"/>
       </defs>
       <use xlink:href="#DejaVuSans-38"/>
      </g>
     </g>
    </g>
    <g id="xtick_5">
     <g id="line2d_5">
      <g>
       <use xlink:href="#m630d22b13c" x="573.239489" y="354.958125" style="stroke: #000000; stroke-width: 0.8"/>
      </g>
     </g>
     <g id="text_5">
      <!-- 10 -->
      <g transform="translate(566.876989 369.556562) scale(0.1 -0.1)">
       <defs>
        <path id="DejaVuSans-31" d="M 794 531 
L 1825 531 
L 1825 4091 
L 703 3866 
L 703 4441 
L 1819 4666 
L 2450 4666 
L 2450 531 
L 3481 531 
L 3481 0 
L 794 0 
L 794 531 
z
" transform="scale(0.015625)"/>
        <path id="DejaVuSans-30" d="M 2034 4250 
Q 1547 4250 1301 3770 
Q 1056 3291 1056 2328 
Q 1056 1369 1301 889 
Q 1547 409 2034 409 
Q 2525 409 2770 889 
Q 3016 1369 3016 2328 
Q 3016 3291 2770 3770 
Q 2525 4250 2034 4250 
z
M 2034 4750 
Q 2819 4750 3233 4129 
Q 3647 3509 3647 2328 
Q 3647 1150 3233 529 
Q 2819 -91 2034 -91 
Q 1250 -91 836 529 
Q 422 1150 422 2328 
Q 422 3509 836 4129 
Q 1250 4750 2034 4750 
z
" transform="scale(0.015625)"/>
       </defs>
       <use xlink:href="#DejaVuSans-31"/>
       <use xlink:href="#DejaVuSans-30" x="63.623047"/>
      </g>
     </g>
    </g>
    <g id="text_6">
     <!-- PC -->
     <g transform="translate(313.096875 383.234687) scale(0.1 -0.1)">
      <defs>
       <path id="DejaVuSans-50" d="M 1259 4147 
L 1259 2394 
L 2053 2394 
Q 2494 2394 2734 2622 
Q 2975 2850 2975 3272 
Q 2975 3691 2734 3919 
Q 2494 4147 2053 4147 
L 1259 4147 
z
M 628 4666 
L 2053 4666 
Q 2838 4666 3239 4311 
Q 3641 3956 3641 3272 
Q 3641 2581 3239 2228 
Q 2838 1875 2053 1875 
L 1259 1875 
L 1259 0 
L 628 0 
L 628 4666 
z
" transform="scale(0.015625)"/>
       <path id="DejaVuSans-43" d="M 4122 4306 
L 4122 3641 
Q 3803 3938 3442 4084 
Q 3081 4231 2675 4231 
Q 1875 4231 1450 3742 
Q 1025 3253 1025 2328 
Q 1025 1406 1450 917 
Q 1875 428 2675 428 
Q 3081 428 3442 575 
Q 3803 722 4122 1019 
L 4122 359 
Q 3791 134 3420 21 
Q 3050 -91 2638 -91 
Q 1578 -91 968 557 
Q 359 1206 359 2328 
Q 359 3453 968 4101 
Q 1578 4750 2638 4750 
Q 3056 4750 3426 4639 
Q 3797 4528 4122 4306 
z
" transform="scale(0.015625)"/>
      </defs>
      <use xlink:href="#DejaVuSans-50"/>
      <use xlink:href="#DejaVuSans-43" x="60.302734"/>
     </g>
    </g>
   </g>
   <g id="matplotlib.axis_2">
    <g id="ytick_1">
     <g id="line2d_6">
      <defs>
       <path id="mf90112f590" d="M 0 0 
L -3.5 0 
" style="stroke: #000000; stroke-width: 0.8"/>
      </defs>
      <g>
       <use xlink:href="#mf90112f590" x="40.603125" y="343.996163" style="stroke: #000000; stroke-width: 0.8"/>
      </g>
     </g>
     <g id="text_7">
      <!-- 0 -->
      <g transform="translate(27.240625 347.795382) scale(0.1 -0.1)">
       <use xlink:href="#DejaVuSans-30"/>
      </g>
     </g>
    </g>
    <g id="ytick_2">
     <g id="line2d_7">
      <g>
       <use xlink:href="#mf90112f590" x="40.603125" y="280.680047" style="stroke: #000000; stroke-width: 0.8"/>
      </g>
     </g>
     <g id="text_8">
      <!-- 2 -->
      <g transform="translate(27.240625 284.479265) scale(0.1 -0.1)">
       <use xlink:href="#DejaVuSans-32"/>
      </g>
     </g>
    </g>
    <g id="ytick_3">
     <g id="line2d_8">
      <g>
       <use xlink:href="#mf90112f590" x="40.603125" y="217.36393" style="stroke: #000000; stroke-width: 0.8"/>
      </g>
     </g>
     <g id="text_9">
      <!-- 4 -->
      <g transform="translate(27.240625 221.163149) scale(0.1 -0.1)">
       <use xlink:href="#DejaVuSans-34"/>
      </g>
     </g>
    </g>
    <g id="ytick_4">
     <g id="line2d_9">
      <g>
       <use xlink:href="#mf90112f590" x="40.603125" y="154.047813" style="stroke: #000000; stroke-width: 0.8"/>
      </g>
     </g>
     <g id="text_10">
      <!-- 6 -->
      <g transform="translate(27.240625 157.847032) scale(0.1 -0.1)">
       <use xlink:href="#DejaVuSans-36"/>
      </g>
     </g>
    </g>
    <g id="ytick_5">
     <g id="line2d_10">
      <g>
       <use xlink:href="#mf90112f590" x="40.603125" y="90.731696" style="stroke: #000000; stroke-width: 0.8"/>
      </g>
     </g>
     <g id="text_11">
      <!-- 8 -->
      <g transform="translate(27.240625 94.530915) scale(0.1 -0.1)">
       <use xlink:href="#DejaVuSans-38"/>
      </g>
     </g>
    </g>
    <g id="ytick_6">
     <g id="line2d_11">
      <g>
       <use xlink:href="#mf90112f590" x="40.603125" y="27.415579" style="stroke: #000000; stroke-width: 0.8"/>
      </g>
     </g>
     <g id="text_12">
      <!-- 10 -->
      <g transform="translate(20.878125 31.214798) scale(0.1 -0.1)">
       <use xlink:href="#DejaVuSans-31"/>
       <use xlink:href="#DejaVuSans-30" x="63.623047"/>
      </g>
     </g>
    </g>
    <g id="text_13">
     <!-- S -->
     <g transform="translate(14.798437 191.812344) rotate(-90) scale(0.1 -0.1)">
      <defs>
       <path id="DejaVuSans-53" d="M 3425 4513 
L 3425 3897 
Q 3066 4069 2747 4153 
Q 2428 4238 2131 4238 
Q 1616 4238 1336 4038 
Q 1056 3838 1056 3469 
Q 1056 3159 1242 3001 
Q 1428 2844 1947 2747 
L 2328 2669 
Q 3034 2534 3370 2195 
Q 3706 1856 3706 1288 
Q 3706 609 3251 259 
Q 2797 -91 1919 -91 
Q 1588 -91 1214 -16 
Q 841 59 441 206 
L 441 856 
Q 825 641 1194 531 
Q 1563 422 1919 422 
Q 2459 422 2753 634 
Q 3047 847 3047 1241 
Q 3047 1584 2836 1778 
Q 2625 1972 2144 2069 
L 1759 2144 
Q 1053 2284 737 2584 
Q 422 2884 422 3419 
Q 422 4038 858 4394 
Q 1294 4750 2059 4750 
Q 2388 4750 2728 4690 
Q 3069 4631 3425 4513 
z
" transform="scale(0.015625)"/>
      </defs>
      <use xlink:href="#DejaVuSans-53"/>
     </g>
    </g>
   </g>
   <g id="line2d_12">
    <path d="M 65.966761 312.338105 
L 122.330398 334.912851 
L 178.694034 334.986432 
L 235.05767 336.202923 
L 291.421307 337.587171 
L 347.784943 338.970052 
L 404.14858 338.784484 
L 460.512216 339.838125 
L 516.875852 339.593875 
L 573.239489 339.348029 
" clip-path="url(#pa24edd1b56)" style="fill: none; stroke: #1f77b4; stroke-width: 1.5; stroke-linecap: square"/>
    <defs>
     <path id="m32f12e0cd4" d="M 0 3 
C 0.795609 3 1.55874 2.683901 2.12132 2.12132 
C 2.683901 1.55874 3 0.795609 3 0 
C 3 -0.795609 2.683901 -1.55874 2.12132 -2.12132 
C 1.55874 -2.683901 0.795609 -3 0 -3 
C -0.795609 -3 -1.55874 -2.683901 -2.12132 -2.12132 
C -2.683901 -1.55874 -3 -0.795609 -3 0 
C -3 0.795609 -2.683901 1.55874 -2.12132 2.12132 
C -1.55874 2.683901 -0.795609 3 0 3 
z
" style="stroke: #1f77b4"/>
    </defs>
    <g clip-path="url(#pa24edd1b56)">
     <use xlink:href="#m32f12e0cd4" x="65.966761" y="312.338105" style="fill: #1f77b4; stroke: #1f77b4"/>
     <use xlink:href="#m32f12e0cd4" x="122.330398" y="334.912851" style="fill: #1f77b4; stroke: #1f77b4"/>
     <use xlink:href="#m32f12e0cd4" x="178.694034" y="334.986432" style="fill: #1f77b4; stroke: #1f77b4"/>
     <use xlink:href="#m32f12e0cd4" x="235.05767" y="336.202923" style="fill: #1f77b4; stroke: #1f77b4"/>
     <use xlink:href="#m32f12e0cd4" x="291.421307" y="337.587171" style="fill: #1f77b4; stroke: #1f77b4"/>
     <use xlink:href="#m32f12e0cd4" x="347.784943" y="338.970052" style="fill: #1f77b4; stroke: #1f77b4"/>
     <use xlink:href="#m32f12e0cd4" x="404.14858" y="338.784484" style="fill: #1f77b4; stroke: #1f77b4"/>
     <use xlink:href="#m32f12e0cd4" x="460.512216" y="339.838125" style="fill: #1f77b4; stroke: #1f77b4"/>
     <use xlink:href="#m32f12e0cd4" x="516.875852" y="339.593875" style="fill: #1f77b4; stroke: #1f77b4"/>
     <use xlink:href="#m32f12e0cd4" x="573.239489" y="339.348029" style="fill: #1f77b4; stroke: #1f77b4"/>
    </g>
   </g>
   <g id="line2d_13">
    <path d="M 65.966761 312.338105 
L 122.330398 314.76297 
L 178.694034 316.569664 
L 235.05767 320.148481 
L 291.421307 320.683144 
L 347.784943 326.827817 
L 404.14858 326.959598 
L 460.512216 330.533288 
L 516.875852 327.06169 
L 573.239489 330.235721 
" clip-path="url(#pa24edd1b56)" style="fill: none; stroke: #ff7f0e; stroke-width: 1.5; stroke-linecap: square"/>
    <defs>
     <path id="mbecaf96a9d" d="M 0 3 
C 0.795609 3 1.55874 2.683901 2.12132 2.12132 
C 2.683901 1.55874 3 0.795609 3 0 
C 3 -0.795609 2.683901 -1.55874 2.12132 -2.12132 
C 1.55874 -2.683901 0.795609 -3 0 -3 
C -0.795609 -3 -1.55874 -2.683901 -2.12132 -2.12132 
C -2.683901 -1.55874 -3 -0.795609 -3 0 
C -3 0.795609 -2.683901 1.55874 -2.12132 2.12132 
C -1.55874 2.683901 -0.795609 3 0 3 
z
" style="stroke: #ff7f0e"/>
    </defs>
    <g clip-path="url(#pa24edd1b56)">
     <use xlink:href="#mbecaf96a9d" x="65.966761" y="312.338105" style="fill: #ff7f0e; stroke: #ff7f0e"/>
     <use xlink:href="#mbecaf96a9d" x="122.330398" y="314.76297" style="fill: #ff7f0e; stroke: #ff7f0e"/>
     <use xlink:href="#mbecaf96a9d" x="178.694034" y="316.569664" style="fill: #ff7f0e; stroke: #ff7f0e"/>
     <use xlink:href="#mbecaf96a9d" x="235.05767" y="320.148481" style="fill: #ff7f0e; stroke: #ff7f0e"/>
     <use xlink:href="#mbecaf96a9d" x="291.421307" y="320.683144" style="fill: #ff7f0e; stroke: #ff7f0e"/>
     <use xlink:href="#mbecaf96a9d" x="347.784943" y="326.827817" style="fill: #ff7f0e; stroke: #ff7f0e"/>
     <use xlink:href="#mbecaf96a9d" x="404.14858" y="326.959598" style="fill: #ff7f0e; stroke: #ff7f0e"/>
     <use xlink:href="#mbecaf96a9d" x="460.512216" y="330.533288" style="fill: #ff7f0e; stroke: #ff7f0e"/>
     <use xlink:href="#mbecaf96a9d" x="516.875852" y="327.06169" style="fill: #ff7f0e; stroke: #ff7f0e"/>
     <use xlink:href="#mbecaf96a9d" x="573.239489" y="330.235721" style="fill: #ff7f0e; stroke: #ff7f0e"/>
    </g>
   </g>
   <g id="line2d_14">
    <path d="M 65.966761 312.338105 
L 122.330398 271.815146 
L 178.694034 267.956019 
L 235.05767 271.163413 
L 291.421307 268.28257 
L 347.784943 286.413891 
L 404.14858 285.48578 
L 460.512216 295.359826 
L 516.875852 288.556539 
L 573.239489 295.693535 
" clip-path="url(#pa24edd1b56)" style="fill: none; stroke: #2ca02c; stroke-width: 1.5; stroke-linecap: square"/>
    <defs>
     <path id="m96d0d25ad4" d="M 0 3 
C 0.795609 3 1.55874 2.683901 2.12132 2.12132 
C 2.683901 1.55874 3 0.795609 3 0 
C 3 -0.795609 2.683901 -1.55874 2.12132 -2.12132 
C 1.55874 -2.683901 0.795609 -3 0 -3 
C -0.795609 -3 -1.55874 -2.683901 -2.12132 -2.12132 
C -2.683901 -1.55874 -3 -0.795609 -3 0 
C -3 0.795609 -2.683901 1.55874 -2.12132 2.12132 
C -1.55874 2.683901 -0.795609 3 0 3 
z
" style="stroke: #2ca02c"/>
    </defs>
    <g clip-path="url(#pa24edd1b56)">
     <use xlink:href="#m96d0d25ad4" x="65.966761" y="312.338105" style="fill: #2ca02c; stroke: #2ca02c"/>
     <use xlink:href="#m96d0d25ad4" x="122.330398" y="271.815146" style="fill: #2ca02c; stroke: #2ca02c"/>
     <use xlink:href="#m96d0d25ad4" x="178.694034" y="267.956019" style="fill: #2ca02c; stroke: #2ca02c"/>
     <use xlink:href="#m96d0d25ad4" x="235.05767" y="271.163413" style="fill: #2ca02c; stroke: #2ca02c"/>
     <use xlink:href="#m96d0d25ad4" x="291.421307" y="268.28257" style="fill: #2ca02c; stroke: #2ca02c"/>
     <use xlink:href="#m96d0d25ad4" x="347.784943" y="286.413891" style="fill: #2ca02c; stroke: #2ca02c"/>
     <use xlink:href="#m96d0d25ad4" x="404.14858" y="285.48578" style="fill: #2ca02c; stroke: #2ca02c"/>
     <use xlink:href="#m96d0d25ad4" x="460.512216" y="295.359826" style="fill: #2ca02c; stroke: #2ca02c"/>
     <use xlink:href="#m96d0d25ad4" x="516.875852" y="288.556539" style="fill: #2ca02c; stroke: #2ca02c"/>
     <use xlink:href="#m96d0d25ad4" x="573.239489" y="295.693535" style="fill: #2ca02c; stroke: #2ca02c"/>
    </g>
   </g>
   <g id="line2d_15">
    <path d="M 65.966761 312.338105 
L 122.330398 245.911699 
L 178.694034 225.543065 
L 235.05767 229.380237 
L 291.421307 219.33769 
L 347.784943 236.435368 
L 404.14858 238.185572 
L 460.512216 259.674368 
L 516.875852 227.438257 
L 573.239489 244.892246 
" clip-path="url(#pa24edd1b56)" style="fill: none; stroke: #d62728; stroke-width: 1.5; stroke-linecap: square"/>
    <defs>
     <path id="m798a63d386" d="M 0 3 
C 0.795609 3 1.55874 2.683901 2.12132 2.12132 
C 2.683901 1.55874 3 0.795609 3 0 
C 3 -0.795609 2.683901 -1.55874 2.12132 -2.12132 
C 1.55874 -2.683901 0.795609 -3 0 -3 
C -0.795609 -3 -1.55874 -2.683901 -2.12132 -2.12132 
C -2.683901 -1.55874 -3 -0.795609 -3 0 
C -3 0.795609 -2.683901 1.55874 -2.12132 2.12132 
C -1.55874 2.683901 -0.795609 3 0 3 
z
" style="stroke: #d62728"/>
    </defs>
    <g clip-path="url(#pa24edd1b56)">
     <use xlink:href="#m798a63d386" x="65.966761" y="312.338105" style="fill: #d62728; stroke: #d62728"/>
     <use xlink:href="#m798a63d386" x="122.330398" y="245.911699" style="fill: #d62728; stroke: #d62728"/>
     <use xlink:href="#m798a63d386" x="178.694034" y="225.543065" style="fill: #d62728; stroke: #d62728"/>
     <use xlink:href="#m798a63d386" x="235.05767" y="229.380237" style="fill: #d62728; stroke: #d62728"/>
     <use xlink:href="#m798a63d386" x="291.421307" y="219.33769" style="fill: #d62728; stroke: #d62728"/>
     <use xlink:href="#m798a63d386" x="347.784943" y="236.435368" style="fill: #d62728; stroke: #d62728"/>
     <use xlink:href="#m798a63d386" x="404.14858" y="238.185572" style="fill: #d62728; stroke: #d62728"/>
     <use xlink:href="#m798a63d386" x="460.512216" y="259.674368" style="fill: #d62728; stroke: #d62728"/>
     <use xlink:href="#m798a63d386" x="516.875852" y="227.438257" style="fill: #d62728; stroke: #d62728"/>
     <use xlink:href="#m798a63d386" x="573.239489" y="244.892246" style="fill: #d62728; stroke: #d62728"/>
    </g>
   </g>
   <g id="line2d_16">
    <path d="M 65.966761 312.338105 
L 122.330398 289.800612 
L 178.694034 187.573604 
L 235.05767 286.789645 
L 291.421307 179.31247 
L 347.784943 291.275878 
L 404.14858 212.426731 
L 460.512216 234.7624 
L 516.875852 291.865391 
L 573.239489 224.018102 
" clip-path="url(#pa24edd1b56)" style="fill: none; stroke: #9467bd; stroke-width: 1.5; stroke-linecap: square"/>
    <defs>
     <path id="mfeaba7743a" d="M 0 3 
C 0.795609 3 1.55874 2.683901 2.12132 2.12132 
C 2.683901 1.55874 3 0.795609 3 0 
C 3 -0.795609 2.683901 -1.55874 2.12132 -2.12132 
C 1.55874 -2.683901 0.795609 -3 0 -3 
C -0.795609 -3 -1.55874 -2.683901 -2.12132 -2.12132 
C -2.683901 -1.55874 -3 -0.795609 -3 0 
C -3 0.795609 -2.683901 1.55874 -2.12132 2.12132 
C -1.55874 2.683901 -0.795609 3 0 3 
z
" style="stroke: #9467bd"/>
    </defs>
    <g clip-path="url(#pa24edd1b56)">
     <use xlink:href="#mfeaba7743a" x="65.966761" y="312.338105" style="fill: #9467bd; stroke: #9467bd"/>
     <use xlink:href="#mfeaba7743a" x="122.330398" y="289.800612" style="fill: #9467bd; stroke: #9467bd"/>
     <use xlink:href="#mfeaba7743a" x="178.694034" y="187.573604" style="fill: #9467bd; stroke: #9467bd"/>
     <use xlink:href="#mfeaba7743a" x="235.05767" y="286.789645" style="fill: #9467bd; stroke: #9467bd"/>
     <use xlink:href="#mfeaba7743a" x="291.421307" y="179.31247" style="fill: #9467bd; stroke: #9467bd"/>
     <use xlink:href="#mfeaba7743a" x="347.784943" y="291.275878" style="fill: #9467bd; stroke: #9467bd"/>
     <use xlink:href="#mfeaba7743a" x="404.14858" y="212.426731" style="fill: #9467bd; stroke: #9467bd"/>
     <use xlink:href="#mfeaba7743a" x="460.512216" y="234.7624" style="fill: #9467bd; stroke: #9467bd"/>
     <use xlink:href="#mfeaba7743a" x="516.875852" y="291.865391" style="fill: #9467bd; stroke: #9467bd"/>
     <use xlink:href="#mfeaba7743a" x="573.239489" y="224.018102" style="fill: #9467bd; stroke: #9467bd"/>
    </g>
   </g>
   <g id="line2d_17">
    <path d="M 65.966761 312.338105 
L 122.330398 196.169604 
L 178.694034 251.478495 
L 235.05767 244.470734 
L 291.421307 137.533897 
L 347.784943 262.894695 
L 404.14858 261.684915 
L 460.512216 261.325213 
L 516.875852 264.774318 
L 573.239489 255.390219 
" clip-path="url(#pa24edd1b56)" style="fill: none; stroke: #8c564b; stroke-width: 1.5; stroke-linecap: square"/>
    <defs>
     <path id="m6d3903013a" d="M 0 3 
C 0.795609 3 1.55874 2.683901 2.12132 2.12132 
C 2.683901 1.55874 3 0.795609 3 0 
C 3 -0.795609 2.683901 -1.55874 2.12132 -2.12132 
C 1.55874 -2.683901 0.795609 -3 0 -3 
C -0.795609 -3 -1.55874 -2.683901 -2.12132 -2.12132 
C -2.683901 -1.55874 -3 -0.795609 -3 0 
C -3 0.795609 -2.683901 1.55874 -2.12132 2.12132 
C -1.55874 2.683901 -0.795609 3 0 3 
z
" style="stroke: #8c564b"/>
    </defs>
    <g clip-path="url(#pa24edd1b56)">
     <use xlink:href="#m6d3903013a" x="65.966761" y="312.338105" style="fill: #8c564b; stroke: #8c564b"/>
     <use xlink:href="#m6d3903013a" x="122.330398" y="196.169604" style="fill: #8c564b; stroke: #8c564b"/>
     <use xlink:href="#m6d3903013a" x="178.694034" y="251.478495" style="fill: #8c564b; stroke: #8c564b"/>
     <use xlink:href="#m6d3903013a" x="235.05767" y="244.470734" style="fill: #8c564b; stroke: #8c564b"/>
     <use xlink:href="#m6d3903013a" x="291.421307" y="137.533897" style="fill: #8c564b; stroke: #8c564b"/>
     <use xlink:href="#m6d3903013a" x="347.784943" y="262.894695" style="fill: #8c564b; stroke: #8c564b"/>
     <use xlink:href="#m6d3903013a" x="404.14858" y="261.684915" style="fill: #8c564b; stroke: #8c564b"/>
     <use xlink:href="#m6d3903013a" x="460.512216" y="261.325213" style="fill: #8c564b; stroke: #8c564b"/>
     <use xlink:href="#m6d3903013a" x="516.875852" y="264.774318" style="fill: #8c564b; stroke: #8c564b"/>
     <use xlink:href="#m6d3903013a" x="573.239489" y="255.390219" style="fill: #8c564b; stroke: #8c564b"/>
    </g>
   </g>
   <g id="line2d_18">
    <path d="M 65.966761 312.338105 
L 122.330398 216.50219 
L 178.694034 202.856335 
L 235.05767 202.682317 
L 291.421307 219.248264 
L 347.784943 210.413888 
L 404.14858 203.150021 
L 460.512216 206.051899 
L 516.875852 212.002302 
L 573.239489 211.422872 
" clip-path="url(#pa24edd1b56)" style="fill: none; stroke: #e377c2; stroke-width: 1.5; stroke-linecap: square"/>
    <defs>
     <path id="mcfdb9a47f9" d="M 0 3 
C 0.795609 3 1.55874 2.683901 2.12132 2.12132 
C 2.683901 1.55874 3 0.795609 3 0 
C 3 -0.795609 2.683901 -1.55874 2.12132 -2.12132 
C 1.55874 -2.683901 0.795609 -3 0 -3 
C -0.795609 -3 -1.55874 -2.683901 -2.12132 -2.12132 
C -2.683901 -1.55874 -3 -0.795609 -3 0 
C -3 0.795609 -2.683901 1.55874 -2.12132 2.12132 
C -1.55874 2.683901 -0.795609 3 0 3 
z
" style="stroke: #e377c2"/>
    </defs>
    <g clip-path="url(#pa24edd1b56)">
     <use xlink:href="#mcfdb9a47f9" x="65.966761" y="312.338105" style="fill: #e377c2; stroke: #e377c2"/>
     <use xlink:href="#mcfdb9a47f9" x="122.330398" y="216.50219" style="fill: #e377c2; stroke: #e377c2"/>
     <use xlink:href="#mcfdb9a47f9" x="178.694034" y="202.856335" style="fill: #e377c2; stroke: #e377c2"/>
     <use xlink:href="#mcfdb9a47f9" x="235.05767" y="202.682317" style="fill: #e377c2; stroke: #e377c2"/>
     <use xlink:href="#mcfdb9a47f9" x="291.421307" y="219.248264" style="fill: #e377c2; stroke: #e377c2"/>
     <use xlink:href="#mcfdb9a47f9" x="347.784943" y="210.413888" style="fill: #e377c2; stroke: #e377c2"/>
     <use xlink:href="#mcfdb9a47f9" x="404.14858" y="203.150021" style="fill: #e377c2; stroke: #e377c2"/>
     <use xlink:href="#mcfdb9a47f9" x="460.512216" y="206.051899" style="fill: #e377c2; stroke: #e377c2"/>
     <use xlink:href="#mcfdb9a47f9" x="516.875852" y="212.002302" style="fill: #e377c2; stroke: #e377c2"/>
     <use xlink:href="#mcfdb9a47f9" x="573.239489" y="211.422872" style="fill: #e377c2; stroke: #e377c2"/>
    </g>
   </g>
   <g id="line2d_19">
    <path d="M 65.966761 312.338105 
L 122.330398 209.494437 
L 178.694034 174.688825 
L 235.05767 192.771368 
L 291.421307 192.028298 
L 347.784943 165.921474 
L 404.14858 168.938205 
L 460.512216 160.666258 
L 516.875852 165.830082 
L 573.239489 183.223676 
" clip-path="url(#pa24edd1b56)" style="fill: none; stroke: #7f7f7f; stroke-width: 1.5; stroke-linecap: square"/>
    <defs>
     <path id="ma8ce7acdde" d="M 0 3 
C 0.795609 3 1.55874 2.683901 2.12132 2.12132 
C 2.683901 1.55874 3 0.795609 3 0 
C 3 -0.795609 2.683901 -1.55874 2.12132 -2.12132 
C 1.55874 -2.683901 0.795609 -3 0 -3 
C -0.795609 -3 -1.55874 -2.683901 -2.12132 -2.12132 
C -2.683901 -1.55874 -3 -0.795609 -3 0 
C -3 0.795609 -2.683901 1.55874 -2.12132 2.12132 
C -1.55874 2.683901 -0.795609 3 0 3 
z
" style="stroke: #7f7f7f"/>
    </defs>
    <g clip-path="url(#pa24edd1b56)">
     <use xlink:href="#ma8ce7acdde" x="65.966761" y="312.338105" style="fill: #7f7f7f; stroke: #7f7f7f"/>
     <use xlink:href="#ma8ce7acdde" x="122.330398" y="209.494437" style="fill: #7f7f7f; stroke: #7f7f7f"/>
     <use xlink:href="#ma8ce7acdde" x="178.694034" y="174.688825" style="fill: #7f7f7f; stroke: #7f7f7f"/>
     <use xlink:href="#ma8ce7acdde" x="235.05767" y="192.771368" style="fill: #7f7f7f; stroke: #7f7f7f"/>
     <use xlink:href="#ma8ce7acdde" x="291.421307" y="192.028298" style="fill: #7f7f7f; stroke: #7f7f7f"/>
     <use xlink:href="#ma8ce7acdde" x="347.784943" y="165.921474" style="fill: #7f7f7f; stroke: #7f7f7f"/>
     <use xlink:href="#ma8ce7acdde" x="404.14858" y="168.938205" style="fill: #7f7f7f; stroke: #7f7f7f"/>
     <use xlink:href="#ma8ce7acdde" x="460.512216" y="160.666258" style="fill: #7f7f7f; stroke: #7f7f7f"/>
     <use xlink:href="#ma8ce7acdde" x="516.875852" y="165.830082" style="fill: #7f7f7f; stroke: #7f7f7f"/>
     <use xlink:href="#ma8ce7acdde" x="573.239489" y="183.223676" style="fill: #7f7f7f; stroke: #7f7f7f"/>
    </g>
   </g>
   <g id="line2d_20">
    <path d="M 65.966761 312.338105 
L 122.330398 151.976418 
L 178.694034 122.378248 
L 235.05767 148.357857 
L 291.421307 151.294867 
L 347.784943 131.302469 
L 404.14858 139.336085 
L 460.512216 136.145818 
L 516.875852 127.359707 
L 573.239489 110.089041 
" clip-path="url(#pa24edd1b56)" style="fill: none; stroke: #bcbd22; stroke-width: 1.5; stroke-linecap: square"/>
    <defs>
     <path id="m11b04fe46d" d="M 0 3 
C 0.795609 3 1.55874 2.683901 2.12132 2.12132 
C 2.683901 1.55874 3 0.795609 3 0 
C 3 -0.795609 2.683901 -1.55874 2.12132 -2.12132 
C 1.55874 -2.683901 0.795609 -3 0 -3 
C -0.795609 -3 -1.55874 -2.683901 -2.12132 -2.12132 
C -2.683901 -1.55874 -3 -0.795609 -3 0 
C -3 0.795609 -2.683901 1.55874 -2.12132 2.12132 
C -1.55874 2.683901 -0.795609 3 0 3 
z
" style="stroke: #bcbd22"/>
    </defs>
    <g clip-path="url(#pa24edd1b56)">
     <use xlink:href="#m11b04fe46d" x="65.966761" y="312.338105" style="fill: #bcbd22; stroke: #bcbd22"/>
     <use xlink:href="#m11b04fe46d" x="122.330398" y="151.976418" style="fill: #bcbd22; stroke: #bcbd22"/>
     <use xlink:href="#m11b04fe46d" x="178.694034" y="122.378248" style="fill: #bcbd22; stroke: #bcbd22"/>
     <use xlink:href="#m11b04fe46d" x="235.05767" y="148.357857" style="fill: #bcbd22; stroke: #bcbd22"/>
     <use xlink:href="#m11b04fe46d" x="291.421307" y="151.294867" style="fill: #bcbd22; stroke: #bcbd22"/>
     <use xlink:href="#m11b04fe46d" x="347.784943" y="131.302469" style="fill: #bcbd22; stroke: #bcbd22"/>
     <use xlink:href="#m11b04fe46d" x="404.14858" y="139.336085" style="fill: #bcbd22; stroke: #bcbd22"/>
     <use xlink:href="#m11b04fe46d" x="460.512216" y="136.145818" style="fill: #bcbd22; stroke: #bcbd22"/>
     <use xlink:href="#m11b04fe46d" x="516.875852" y="127.359707" style="fill: #bcbd22; stroke: #bcbd22"/>
     <use xlink:href="#m11b04fe46d" x="573.239489" y="110.089041" style="fill: #bcbd22; stroke: #bcbd22"/>
    </g>
   </g>
   <g id="line2d_21">
    <path d="M 65.966761 312.338105 
L 122.330398 147.110095 
L 178.694034 107.814498 
L 235.05767 106.31804 
L 291.421307 116.946796 
L 347.784943 105.046836 
L 404.14858 99.936966 
L 460.512216 102.195286 
L 516.875852 107.999095 
L 573.239489 91.380692 
" clip-path="url(#pa24edd1b56)" style="fill: none; stroke: #17becf; stroke-width: 1.5; stroke-linecap: square"/>
    <defs>
     <path id="mf3d32e7069" d="M 0 3 
C 0.795609 3 1.55874 2.683901 2.12132 2.12132 
C 2.683901 1.55874 3 0.795609 3 0 
C 3 -0.795609 2.683901 -1.55874 2.12132 -2.12132 
C 1.55874 -2.683901 0.795609 -3 0 -3 
C -0.795609 -3 -1.55874 -2.683901 -2.12132 -2.12132 
C -2.683901 -1.55874 -3 -0.795609 -3 0 
C -3 0.795609 -2.683901 1.55874 -2.12132 2.12132 
C -1.55874 2.683901 -0.795609 3 0 3 
z
" style="stroke: #17becf"/>
    </defs>
    <g clip-path="url(#pa24edd1b56)">
     <use xlink:href="#mf3d32e7069" x="65.966761" y="312.338105" style="fill: #17becf; stroke: #17becf"/>
     <use xlink:href="#mf3d32e7069" x="122.330398" y="147.110095" style="fill: #17becf; stroke: #17becf"/>
     <use xlink:href="#mf3d32e7069" x="178.694034" y="107.814498" style="fill: #17becf; stroke: #17becf"/>
     <use xlink:href="#mf3d32e7069" x="235.05767" y="106.31804" style="fill: #17becf; stroke: #17becf"/>
     <use xlink:href="#mf3d32e7069" x="291.421307" y="116.946796" style="fill: #17becf; stroke: #17becf"/>
     <use xlink:href="#mf3d32e7069" x="347.784943" y="105.046836" style="fill: #17becf; stroke: #17becf"/>
     <use xlink:href="#mf3d32e7069" x="404.14858" y="99.936966" style="fill: #17becf; stroke: #17becf"/>
     <use xlink:href="#mf3d32e7069" x="460.512216" y="102.195286" style="fill: #17becf; stroke: #17becf"/>
     <use xlink:href="#mf3d32e7069" x="516.875852" y="107.999095" style="fill: #17becf; stroke: #17becf"/>
     <use xlink:href="#mf3d32e7069" x="573.239489" y="91.380692" style="fill: #17becf; stroke: #17becf"/>
    </g>
   </g>
   <g id="line2d_22">
    <path d="M 65.966761 312.338105 
L 122.330398 149.805091 
L 178.694034 111.860066 
L 235.05767 104.281942 
L 291.421307 61.883704 
L 347.784943 60.111807 
L 404.14858 53.312238 
L 460.512216 63.677858 
L 516.875852 45.956924 
L 573.239489 37.438125 
" clip-path="url(#pa24edd1b56)" style="fill: none; stroke: #1f77b4; stroke-width: 1.5; stroke-linecap: square"/>
    <g clip-path="url(#pa24edd1b56)">
     <use xlink:href="#m32f12e0cd4" x="65.966761" y="312.338105" style="fill: #1f77b4; stroke: #1f77b4"/>
     <use xlink:href="#m32f12e0cd4" x="122.330398" y="149.805091" style="fill: #1f77b4; stroke: #1f77b4"/>
     <use xlink:href="#m32f12e0cd4" x="178.694034" y="111.860066" style="fill: #1f77b4; stroke: #1f77b4"/>
     <use xlink:href="#m32f12e0cd4" x="235.05767" y="104.281942" style="fill: #1f77b4; stroke: #1f77b4"/>
     <use xlink:href="#m32f12e0cd4" x="291.421307" y="61.883704" style="fill: #1f77b4; stroke: #1f77b4"/>
     <use xlink:href="#m32f12e0cd4" x="347.784943" y="60.111807" style="fill: #1f77b4; stroke: #1f77b4"/>
     <use xlink:href="#m32f12e0cd4" x="404.14858" y="53.312238" style="fill: #1f77b4; stroke: #1f77b4"/>
     <use xlink:href="#m32f12e0cd4" x="460.512216" y="63.677858" style="fill: #1f77b4; stroke: #1f77b4"/>
     <use xlink:href="#m32f12e0cd4" x="516.875852" y="45.956924" style="fill: #1f77b4; stroke: #1f77b4"/>
     <use xlink:href="#m32f12e0cd4" x="573.239489" y="37.438125" style="fill: #1f77b4; stroke: #1f77b4"/>
    </g>
   </g>
   <g id="patch_3">
    <path d="M 40.603125 354.958125 
L 40.603125 22.318125 
" style="fill: none; stroke: #000000; stroke-width: 0.8; stroke-linejoin: miter; stroke-linecap: square"/>
   </g>
   <g id="patch_4">
    <path d="M 598.603125 354.958125 
L 598.603125 22.318125 
" style="fill: none; stroke: #000000; stroke-width: 0.8; stroke-linejoin: miter; stroke-linecap: square"/>
   </g>
   <g id="patch_5">
    <path d="M 40.603125 354.958125 
L 598.603125 354.958125 
" style="fill: none; stroke: #000000; stroke-width: 0.8; stroke-linejoin: miter; stroke-linecap: square"/>
   </g>
   <g id="patch_6">
    <path d="M 40.603125 22.318125 
L 598.603125 22.318125 
" style="fill: none; stroke: #000000; stroke-width: 0.8; stroke-linejoin: miter; stroke-linecap: square"/>
   </g>
   <g id="text_14">
    <!-- Зависимость PC от S для разных значений PC -->
    <g transform="translate(174.752812 16.318125) scale(0.12 -0.12)">
     <defs>
      <path id="DejaVuSans-417" d="M 1828 4750 
Q 2597 4750 3084 4423 
Q 3572 4097 3572 3541 
Q 3572 3153 3350 2886 
Q 3128 2619 2719 2516 
Q 3172 2419 3426 2112 
Q 3681 1806 3681 1356 
Q 3681 638 3126 273 
Q 2572 -91 1828 -91 
Q 1447 -91 1003 12 
Q 559 116 422 203 
L 422 853 
Q 900 575 1164 508 
Q 1428 441 1816 441 
Q 2403 441 2728 666 
Q 3053 891 3053 1356 
Q 3053 1769 2764 2001 
Q 2475 2234 1866 2234 
L 1228 2234 
L 1228 2753 
L 1891 2753 
Q 2450 2753 2697 2939 
Q 2944 3125 2944 3475 
Q 2944 3834 2689 4026 
Q 2434 4219 1816 4219 
Q 1397 4219 1253 4181 
Q 1109 4144 469 3903 
L 469 4519 
Q 822 4644 1190 4697 
Q 1559 4750 1828 4750 
z
" transform="scale(0.015625)"/>
      <path id="DejaVuSans-430" d="M 2194 1759 
Q 1497 1759 1228 1600 
Q 959 1441 959 1056 
Q 959 750 1161 570 
Q 1363 391 1709 391 
Q 2188 391 2477 730 
Q 2766 1069 2766 1631 
L 2766 1759 
L 2194 1759 
z
M 3341 1997 
L 3341 0 
L 2766 0 
L 2766 531 
Q 2569 213 2275 61 
Q 1981 -91 1556 -91 
Q 1019 -91 701 211 
Q 384 513 384 1019 
Q 384 1609 779 1909 
Q 1175 2209 1959 2209 
L 2766 2209 
L 2766 2266 
Q 2766 2663 2505 2880 
Q 2244 3097 1772 3097 
Q 1472 3097 1187 3025 
Q 903 2953 641 2809 
L 641 3341 
Q 956 3463 1253 3523 
Q 1550 3584 1831 3584 
Q 2591 3584 2966 3190 
Q 3341 2797 3341 1997 
z
" transform="scale(0.015625)"/>
      <path id="DejaVuSans-432" d="M 1156 1613 
L 1156 459 
L 1975 459 
Q 2369 459 2575 607 
Q 2781 756 2781 1038 
Q 2781 1319 2575 1466 
Q 2369 1613 1975 1613 
L 1156 1613 
z
M 1156 3041 
L 1156 2072 
L 1913 2072 
Q 2238 2072 2444 2201 
Q 2650 2331 2650 2563 
Q 2650 2794 2444 2917 
Q 2238 3041 1913 3041 
L 1156 3041 
z
M 581 3500 
L 1950 3500 
Q 2566 3500 2897 3275 
Q 3228 3050 3228 2634 
Q 3228 2313 3059 2123 
Q 2891 1934 2559 1888 
Q 2956 1813 3175 1575 
Q 3394 1338 3394 981 
Q 3394 513 3033 256 
Q 2672 0 2003 0 
L 581 0 
L 581 3500 
z
" transform="scale(0.015625)"/>
      <path id="DejaVuSans-438" d="M 3578 3500 
L 3578 0 
L 3006 0 
L 3006 2809 
L 1319 0 
L 581 0 
L 581 3500 
L 1153 3500 
L 1153 697 
L 2838 3500 
L 3578 3500 
z
" transform="scale(0.015625)"/>
      <path id="DejaVuSans-441" d="M 3122 3366 
L 3122 2828 
Q 2878 2963 2633 3030 
Q 2388 3097 2138 3097 
Q 1578 3097 1268 2742 
Q 959 2388 959 1747 
Q 959 1106 1268 751 
Q 1578 397 2138 397 
Q 2388 397 2633 464 
Q 2878 531 3122 666 
L 3122 134 
Q 2881 22 2623 -34 
Q 2366 -91 2075 -91 
Q 1284 -91 818 406 
Q 353 903 353 1747 
Q 353 2603 823 3093 
Q 1294 3584 2113 3584 
Q 2378 3584 2631 3529 
Q 2884 3475 3122 3366 
z
" transform="scale(0.015625)"/>
      <path id="DejaVuSans-43c" d="M 581 3500 
L 1422 3500 
L 2416 1156 
L 3413 3500 
L 4247 3500 
L 4247 0 
L 3669 0 
L 3669 2950 
L 2703 672 
L 2128 672 
L 1159 2950 
L 1159 0 
L 581 0 
L 581 3500 
z
" transform="scale(0.015625)"/>
      <path id="DejaVuSans-43e" d="M 1959 3097 
Q 1497 3097 1228 2736 
Q 959 2375 959 1747 
Q 959 1119 1226 758 
Q 1494 397 1959 397 
Q 2419 397 2687 759 
Q 2956 1122 2956 1747 
Q 2956 2369 2687 2733 
Q 2419 3097 1959 3097 
z
M 1959 3584 
Q 2709 3584 3137 3096 
Q 3566 2609 3566 1747 
Q 3566 888 3137 398 
Q 2709 -91 1959 -91 
Q 1206 -91 779 398 
Q 353 888 353 1747 
Q 353 2609 779 3096 
Q 1206 3584 1959 3584 
z
" transform="scale(0.015625)"/>
      <path id="DejaVuSans-442" d="M 188 3500 
L 3541 3500 
L 3541 3041 
L 2147 3041 
L 2147 0 
L 1581 0 
L 1581 3041 
L 188 3041 
L 188 3500 
z
" transform="scale(0.015625)"/>
      <path id="DejaVuSans-44c" d="M 2781 1038 
Q 2781 1319 2576 1466 
Q 2372 1613 1978 1613 
L 1159 1613 
L 1159 459 
L 1978 459 
Q 2372 459 2576 607 
Q 2781 756 2781 1038 
z
M 581 3500 
L 1159 3500 
L 1159 2072 
L 2003 2072 
Q 2672 2072 3033 1817 
Q 3394 1563 3394 1038 
Q 3394 513 3033 256 
Q 2672 0 2003 0 
L 581 0 
L 581 3500 
z
" transform="scale(0.015625)"/>
      <path id="DejaVuSans-20" transform="scale(0.015625)"/>
      <path id="DejaVuSans-434" d="M 1384 459 
L 3053 459 
L 3053 3041 
L 1844 3041 
L 1844 2603 
Q 1844 1316 1475 628 
L 1384 459 
z
M 550 459 
Q 834 584 959 850 
Q 1266 1509 1266 2838 
L 1266 3500 
L 3631 3500 
L 3631 459 
L 4091 459 
L 4091 -884 
L 3631 -884 
L 3631 0 
L 794 0 
L 794 -884 
L 334 -884 
L 334 459 
L 550 459 
z
" transform="scale(0.015625)"/>
      <path id="DejaVuSans-43b" d="M 238 0 
L 238 478 
Q 806 566 981 959 
Q 1194 1513 1194 2928 
L 1194 3500 
L 3559 3500 
L 3559 0 
L 2984 0 
L 2984 3041 
L 1769 3041 
L 1769 2694 
Q 1769 1344 1494 738 
Q 1200 91 238 0 
z
" transform="scale(0.015625)"/>
      <path id="DejaVuSans-44f" d="M 1181 2491 
Q 1181 2231 1381 2084 
Q 1581 1938 1953 1938 
L 2728 1938 
L 2728 3041 
L 1953 3041 
Q 1581 3041 1381 2897 
Q 1181 2753 1181 2491 
z
M 363 0 
L 1431 1534 
Q 1069 1616 828 1830 
Q 588 2044 588 2491 
Q 588 2997 923 3248 
Q 1259 3500 1938 3500 
L 3306 3500 
L 3306 0 
L 2728 0 
L 2728 1478 
L 2013 1478 
L 981 0 
L 363 0 
z
" transform="scale(0.015625)"/>
      <path id="DejaVuSans-440" d="M 1159 525 
L 1159 -1331 
L 581 -1331 
L 581 3500 
L 1159 3500 
L 1159 2969 
Q 1341 3281 1617 3432 
Q 1894 3584 2278 3584 
Q 2916 3584 3314 3078 
Q 3713 2572 3713 1747 
Q 3713 922 3314 415 
Q 2916 -91 2278 -91 
Q 1894 -91 1617 61 
Q 1341 213 1159 525 
z
M 3116 1747 
Q 3116 2381 2855 2742 
Q 2594 3103 2138 3103 
Q 1681 3103 1420 2742 
Q 1159 2381 1159 1747 
Q 1159 1113 1420 752 
Q 1681 391 2138 391 
Q 2594 391 2855 752 
Q 3116 1113 3116 1747 
z
" transform="scale(0.015625)"/>
      <path id="DejaVuSans-437" d="M 2206 1888 
Q 2594 1813 2809 1584 
Q 3025 1356 3025 1019 
Q 3025 478 2622 193 
Q 2219 -91 1475 -91 
Q 1225 -91 961 -47 
Q 697 -3 416 84 
L 416 619 
Q 638 503 903 445 
Q 1169 388 1459 388 
Q 1931 388 2195 563 
Q 2459 738 2459 1019 
Q 2459 1294 2225 1461 
Q 1991 1628 1563 1628 
L 1100 1628 
L 1100 2103 
L 1584 2103 
Q 1947 2103 2158 2242 
Q 2369 2381 2369 2600 
Q 2369 2800 2151 2944 
Q 1934 3088 1563 3088 
Q 1341 3088 1089 3047 
Q 838 3006 534 2916 
L 534 3438 
Q 841 3513 1106 3550 
Q 1372 3588 1609 3588 
Q 2222 3588 2576 3342 
Q 2931 3097 2931 2656 
Q 2931 2366 2743 2164 
Q 2556 1963 2206 1888 
z
" transform="scale(0.015625)"/>
      <path id="DejaVuSans-43d" d="M 581 3500 
L 1159 3500 
L 1159 2072 
L 3025 2072 
L 3025 3500 
L 3603 3500 
L 3603 0 
L 3025 0 
L 3025 1613 
L 1159 1613 
L 1159 0 
L 581 0 
L 581 3500 
z
" transform="scale(0.015625)"/>
      <path id="DejaVuSans-44b" d="M 3907 3500 
L 4482 3500 
L 4482 0 
L 3907 0 
L 3907 3500 
z
M 4195 3584 
L 4195 3584 
z
M 2781 1038 
Q 2781 1319 2576 1466 
Q 2372 1613 1978 1613 
L 1159 1613 
L 1159 459 
L 1978 459 
Q 2372 459 2576 607 
Q 2781 756 2781 1038 
z
M 581 3500 
L 1159 3500 
L 1159 2072 
L 2003 2072 
Q 2672 2072 3033 1817 
Q 3394 1563 3394 1038 
Q 3394 513 3033 256 
Q 2672 0 2003 0 
L 581 0 
L 581 3500 
z
" transform="scale(0.015625)"/>
      <path id="DejaVuSans-445" d="M 3513 3500 
L 2247 1797 
L 3578 0 
L 2900 0 
L 1881 1375 
L 863 0 
L 184 0 
L 1544 1831 
L 300 3500 
L 978 3500 
L 1906 2253 
L 2834 3500 
L 3513 3500 
z
" transform="scale(0.015625)"/>
      <path id="DejaVuSans-447" d="M 2625 0 
L 2625 1472 
L 1553 1472 
Q 1075 1472 756 1769 
Q 469 2038 469 2613 
L 469 3500 
L 1044 3500 
L 1044 2666 
Q 1044 2300 1206 2116 
Q 1372 1931 1697 1931 
L 2625 1931 
L 2625 3500 
L 3200 3500 
L 3200 0 
L 2625 0 
z
" transform="scale(0.015625)"/>
      <path id="DejaVuSans-435" d="M 3597 1894 
L 3597 1613 
L 953 1613 
Q 991 1019 1311 708 
Q 1631 397 2203 397 
Q 2534 397 2845 478 
Q 3156 559 3463 722 
L 3463 178 
Q 3153 47 2828 -22 
Q 2503 -91 2169 -91 
Q 1331 -91 842 396 
Q 353 884 353 1716 
Q 353 2575 817 3079 
Q 1281 3584 2069 3584 
Q 2775 3584 3186 3129 
Q 3597 2675 3597 1894 
z
M 3022 2063 
Q 3016 2534 2758 2815 
Q 2500 3097 2075 3097 
Q 1594 3097 1305 2825 
Q 1016 2553 972 2059 
L 3022 2063 
z
" transform="scale(0.015625)"/>
      <path id="DejaVuSans-439" d="M 3578 3500 
L 3578 0 
L 3006 0 
L 3006 2809 
L 1319 0 
L 581 0 
L 581 3500 
L 1153 3500 
L 1153 697 
L 2838 3500 
L 3578 3500 
z
M 1102 4833 
L 1471 4833 
Q 1505 4599 1656 4481 
Q 1808 4364 2080 4364 
Q 2349 4364 2499 4480 
Q 2649 4596 2689 4833 
L 3058 4833 
Q 3027 4386 2780 4161 
Q 2533 3936 2080 3936 
Q 1627 3936 1380 4161 
Q 1133 4386 1102 4833 
z
" transform="scale(0.015625)"/>
     </defs>
     <use xlink:href="#DejaVuSans-417"/>
     <use xlink:href="#DejaVuSans-430" x="64.111328"/>
     <use xlink:href="#DejaVuSans-432" x="125.390625"/>
     <use xlink:href="#DejaVuSans-438" x="184.326172"/>
     <use xlink:href="#DejaVuSans-441" x="249.316406"/>
     <use xlink:href="#DejaVuSans-438" x="304.296875"/>
     <use xlink:href="#DejaVuSans-43c" x="369.287109"/>
     <use xlink:href="#DejaVuSans-43e" x="444.726562"/>
     <use xlink:href="#DejaVuSans-441" x="505.908203"/>
     <use xlink:href="#DejaVuSans-442" x="560.888672"/>
     <use xlink:href="#DejaVuSans-44c" x="619.140625"/>
     <use xlink:href="#DejaVuSans-20" x="678.076172"/>
     <use xlink:href="#DejaVuSans-50" x="709.863281"/>
     <use xlink:href="#DejaVuSans-43" x="770.166016"/>
     <use xlink:href="#DejaVuSans-20" x="839.990234"/>
     <use xlink:href="#DejaVuSans-43e" x="871.777344"/>
     <use xlink:href="#DejaVuSans-442" x="932.958984"/>
     <use xlink:href="#DejaVuSans-20" x="991.210938"/>
     <use xlink:href="#DejaVuSans-53" x="1022.998047"/>
     <use xlink:href="#DejaVuSans-20" x="1086.474609"/>
     <use xlink:href="#DejaVuSans-434" x="1118.261719"/>
     <use xlink:href="#DejaVuSans-43b" x="1187.402344"/>
     <use xlink:href="#DejaVuSans-44f" x="1251.318359"/>
     <use xlink:href="#DejaVuSans-20" x="1311.474609"/>
     <use xlink:href="#DejaVuSans-440" x="1343.261719"/>
     <use xlink:href="#DejaVuSans-430" x="1406.738281"/>
     <use xlink:href="#DejaVuSans-437" x="1468.017578"/>
     <use xlink:href="#DejaVuSans-43d" x="1521.191406"/>
     <use xlink:href="#DejaVuSans-44b" x="1586.572266"/>
     <use xlink:href="#DejaVuSans-445" x="1665.527344"/>
     <use xlink:href="#DejaVuSans-20" x="1724.707031"/>
     <use xlink:href="#DejaVuSans-437" x="1756.494141"/>
     <use xlink:href="#DejaVuSans-43d" x="1809.667969"/>
     <use xlink:href="#DejaVuSans-430" x="1875.048828"/>
     <use xlink:href="#DejaVuSans-447" x="1936.328125"/>
     <use xlink:href="#DejaVuSans-435" x="1995.410156"/>
     <use xlink:href="#DejaVuSans-43d" x="2056.933594"/>
     <use xlink:href="#DejaVuSans-438" x="2122.314453"/>
     <use xlink:href="#DejaVuSans-439" x="2187.304688"/>
     <use xlink:href="#DejaVuSans-20" x="2252.294922"/>
     <use xlink:href="#DejaVuSans-50" x="2284.082031"/>
     <use xlink:href="#DejaVuSans-43" x="2344.384766"/>
    </g>
   </g>
   <g id="legend_1">
    <g id="patch_7">
     <path d="M 47.603125 206.455625 
L 140.317187 206.455625 
Q 142.317187 206.455625 142.317187 204.455625 
L 142.317187 29.318125 
Q 142.317187 27.318125 140.317187 27.318125 
L 47.603125 27.318125 
Q 45.603125 27.318125 45.603125 29.318125 
L 45.603125 204.455625 
Q 45.603125 206.455625 47.603125 206.455625 
z
" style="fill: #ffffff; opacity: 0.8; stroke: #cccccc; stroke-linejoin: miter"/>
    </g>
    <g id="text_15">
     <!-- Size -->
     <g transform="translate(83.696094 38.916562) scale(0.1 -0.1)">
      <defs>
       <path id="DejaVuSans-69" d="M 603 3500 
L 1178 3500 
L 1178 0 
L 603 0 
L 603 3500 
z
M 603 4863 
L 1178 4863 
L 1178 4134 
L 603 4134 
L 603 4863 
z
" transform="scale(0.015625)"/>
       <path id="DejaVuSans-7a" d="M 353 3500 
L 3084 3500 
L 3084 2975 
L 922 459 
L 3084 459 
L 3084 0 
L 275 0 
L 275 525 
L 2438 3041 
L 353 3041 
L 353 3500 
z
" transform="scale(0.015625)"/>
       <path id="DejaVuSans-65" d="M 3597 1894 
L 3597 1613 
L 953 1613 
Q 991 1019 1311 708 
Q 1631 397 2203 397 
Q 2534 397 2845 478 
Q 3156 559 3463 722 
L 3463 178 
Q 3153 47 2828 -22 
Q 2503 -91 2169 -91 
Q 1331 -91 842 396 
Q 353 884 353 1716 
Q 353 2575 817 3079 
Q 1281 3584 2069 3584 
Q 2775 3584 3186 3129 
Q 3597 2675 3597 1894 
z
M 3022 2063 
Q 3016 2534 2758 2815 
Q 2500 3097 2075 3097 
Q 1594 3097 1305 2825 
Q 1016 2553 972 2059 
L 3022 2063 
z
" transform="scale(0.015625)"/>
      </defs>
      <use xlink:href="#DejaVuSans-53"/>
      <use xlink:href="#DejaVuSans-69" x="63.476562"/>
      <use xlink:href="#DejaVuSans-7a" x="91.259766"/>
      <use xlink:href="#DejaVuSans-65" x="143.75"/>
     </g>
    </g>
    <g id="line2d_23">
     <path d="M 49.603125 50.094687 
L 59.603125 50.094687 
L 69.603125 50.094687 
" style="fill: none; stroke: #1f77b4; stroke-width: 1.5; stroke-linecap: square"/>
     <g>
      <use xlink:href="#m32f12e0cd4" x="59.603125" y="50.094687" style="fill: #1f77b4; stroke: #1f77b4"/>
     </g>
    </g>
    <g id="text_16">
     <!-- Size = 100 -->
     <g transform="translate(77.603125 53.594687) scale(0.1 -0.1)">
      <defs>
       <path id="DejaVuSans-3d" d="M 678 2906 
L 4684 2906 
L 4684 2381 
L 678 2381 
L 678 2906 
z
M 678 1631 
L 4684 1631 
L 4684 1100 
L 678 1100 
L 678 1631 
z
" transform="scale(0.015625)"/>
      </defs>
      <use xlink:href="#DejaVuSans-53"/>
      <use xlink:href="#DejaVuSans-69" x="63.476562"/>
      <use xlink:href="#DejaVuSans-7a" x="91.259766"/>
      <use xlink:href="#DejaVuSans-65" x="143.75"/>
      <use xlink:href="#DejaVuSans-20" x="205.273438"/>
      <use xlink:href="#DejaVuSans-3d" x="237.060547"/>
      <use xlink:href="#DejaVuSans-20" x="320.849609"/>
      <use xlink:href="#DejaVuSans-31" x="352.636719"/>
      <use xlink:href="#DejaVuSans-30" x="416.259766"/>
      <use xlink:href="#DejaVuSans-30" x="479.882812"/>
     </g>
    </g>
    <g id="line2d_24">
     <path d="M 49.603125 64.772812 
L 59.603125 64.772812 
L 69.603125 64.772812 
" style="fill: none; stroke: #ff7f0e; stroke-width: 1.5; stroke-linecap: square"/>
     <g>
      <use xlink:href="#mbecaf96a9d" x="59.603125" y="64.772812" style="fill: #ff7f0e; stroke: #ff7f0e"/>
     </g>
    </g>
    <g id="text_17">
     <!-- Size = 200 -->
     <g transform="translate(77.603125 68.272812) scale(0.1 -0.1)">
      <use xlink:href="#DejaVuSans-53"/>
      <use xlink:href="#DejaVuSans-69" x="63.476562"/>
      <use xlink:href="#DejaVuSans-7a" x="91.259766"/>
      <use xlink:href="#DejaVuSans-65" x="143.75"/>
      <use xlink:href="#DejaVuSans-20" x="205.273438"/>
      <use xlink:href="#DejaVuSans-3d" x="237.060547"/>
      <use xlink:href="#DejaVuSans-20" x="320.849609"/>
      <use xlink:href="#DejaVuSans-32" x="352.636719"/>
      <use xlink:href="#DejaVuSans-30" x="416.259766"/>
      <use xlink:href="#DejaVuSans-30" x="479.882812"/>
     </g>
    </g>
    <g id="line2d_25">
     <path d="M 49.603125 79.450938 
L 59.603125 79.450938 
L 69.603125 79.450938 
" style="fill: none; stroke: #2ca02c; stroke-width: 1.5; stroke-linecap: square"/>
     <g>
      <use xlink:href="#m96d0d25ad4" x="59.603125" y="79.450938" style="fill: #2ca02c; stroke: #2ca02c"/>
     </g>
    </g>
    <g id="text_18">
     <!-- Size = 400 -->
     <g transform="translate(77.603125 82.950938) scale(0.1 -0.1)">
      <use xlink:href="#DejaVuSans-53"/>
      <use xlink:href="#DejaVuSans-69" x="63.476562"/>
      <use xlink:href="#DejaVuSans-7a" x="91.259766"/>
      <use xlink:href="#DejaVuSans-65" x="143.75"/>
      <use xlink:href="#DejaVuSans-20" x="205.273438"/>
      <use xlink:href="#DejaVuSans-3d" x="237.060547"/>
      <use xlink:href="#DejaVuSans-20" x="320.849609"/>
      <use xlink:href="#DejaVuSans-34" x="352.636719"/>
      <use xlink:href="#DejaVuSans-30" x="416.259766"/>
      <use xlink:href="#DejaVuSans-30" x="479.882812"/>
     </g>
    </g>
    <g id="line2d_26">
     <path d="M 49.603125 94.129062 
L 59.603125 94.129062 
L 69.603125 94.129062 
" style="fill: none; stroke: #d62728; stroke-width: 1.5; stroke-linecap: square"/>
     <g>
      <use xlink:href="#m798a63d386" x="59.603125" y="94.129062" style="fill: #d62728; stroke: #d62728"/>
     </g>
    </g>
    <g id="text_19">
     <!-- Size = 600 -->
     <g transform="translate(77.603125 97.629062) scale(0.1 -0.1)">
      <use xlink:href="#DejaVuSans-53"/>
      <use xlink:href="#DejaVuSans-69" x="63.476562"/>
      <use xlink:href="#DejaVuSans-7a" x="91.259766"/>
      <use xlink:href="#DejaVuSans-65" x="143.75"/>
      <use xlink:href="#DejaVuSans-20" x="205.273438"/>
      <use xlink:href="#DejaVuSans-3d" x="237.060547"/>
      <use xlink:href="#DejaVuSans-20" x="320.849609"/>
      <use xlink:href="#DejaVuSans-36" x="352.636719"/>
      <use xlink:href="#DejaVuSans-30" x="416.259766"/>
      <use xlink:href="#DejaVuSans-30" x="479.882812"/>
     </g>
    </g>
    <g id="line2d_27">
     <path d="M 49.603125 108.807187 
L 59.603125 108.807187 
L 69.603125 108.807187 
" style="fill: none; stroke: #9467bd; stroke-width: 1.5; stroke-linecap: square"/>
     <g>
      <use xlink:href="#mfeaba7743a" x="59.603125" y="108.807187" style="fill: #9467bd; stroke: #9467bd"/>
     </g>
    </g>
    <g id="text_20">
     <!-- Size = 800 -->
     <g transform="translate(77.603125 112.307187) scale(0.1 -0.1)">
      <use xlink:href="#DejaVuSans-53"/>
      <use xlink:href="#DejaVuSans-69" x="63.476562"/>
      <use xlink:href="#DejaVuSans-7a" x="91.259766"/>
      <use xlink:href="#DejaVuSans-65" x="143.75"/>
      <use xlink:href="#DejaVuSans-20" x="205.273438"/>
      <use xlink:href="#DejaVuSans-3d" x="237.060547"/>
      <use xlink:href="#DejaVuSans-20" x="320.849609"/>
      <use xlink:href="#DejaVuSans-38" x="352.636719"/>
      <use xlink:href="#DejaVuSans-30" x="416.259766"/>
      <use xlink:href="#DejaVuSans-30" x="479.882812"/>
     </g>
    </g>
    <g id="line2d_28">
     <path d="M 49.603125 123.485312 
L 59.603125 123.485312 
L 69.603125 123.485312 
" style="fill: none; stroke: #8c564b; stroke-width: 1.5; stroke-linecap: square"/>
     <g>
      <use xlink:href="#m6d3903013a" x="59.603125" y="123.485312" style="fill: #8c564b; stroke: #8c564b"/>
     </g>
    </g>
    <g id="text_21">
     <!-- Size = 1000 -->
     <g transform="translate(77.603125 126.985312) scale(0.1 -0.1)">
      <use xlink:href="#DejaVuSans-53"/>
      <use xlink:href="#DejaVuSans-69" x="63.476562"/>
      <use xlink:href="#DejaVuSans-7a" x="91.259766"/>
      <use xlink:href="#DejaVuSans-65" x="143.75"/>
      <use xlink:href="#DejaVuSans-20" x="205.273438"/>
      <use xlink:href="#DejaVuSans-3d" x="237.060547"/>
      <use xlink:href="#DejaVuSans-20" x="320.849609"/>
      <use xlink:href="#DejaVuSans-31" x="352.636719"/>
      <use xlink:href="#DejaVuSans-30" x="416.259766"/>
      <use xlink:href="#DejaVuSans-30" x="479.882812"/>
      <use xlink:href="#DejaVuSans-30" x="543.505859"/>
     </g>
    </g>
    <g id="line2d_29">
     <path d="M 49.603125 138.163437 
L 59.603125 138.163437 
L 69.603125 138.163437 
" style="fill: none; stroke: #e377c2; stroke-width: 1.5; stroke-linecap: square"/>
     <g>
      <use xlink:href="#mcfdb9a47f9" x="59.603125" y="138.163437" style="fill: #e377c2; stroke: #e377c2"/>
     </g>
    </g>
    <g id="text_22">
     <!-- Size = 1200 -->
     <g transform="translate(77.603125 141.663437) scale(0.1 -0.1)">
      <use xlink:href="#DejaVuSans-53"/>
      <use xlink:href="#DejaVuSans-69" x="63.476562"/>
      <use xlink:href="#DejaVuSans-7a" x="91.259766"/>
      <use xlink:href="#DejaVuSans-65" x="143.75"/>
      <use xlink:href="#DejaVuSans-20" x="205.273438"/>
      <use xlink:href="#DejaVuSans-3d" x="237.060547"/>
      <use xlink:href="#DejaVuSans-20" x="320.849609"/>
      <use xlink:href="#DejaVuSans-31" x="352.636719"/>
      <use xlink:href="#DejaVuSans-32" x="416.259766"/>
      <use xlink:href="#DejaVuSans-30" x="479.882812"/>
      <use xlink:href="#DejaVuSans-30" x="543.505859"/>
     </g>
    </g>
    <g id="line2d_30">
     <path d="M 49.603125 152.841562 
L 59.603125 152.841562 
L 69.603125 152.841562 
" style="fill: none; stroke: #7f7f7f; stroke-width: 1.5; stroke-linecap: square"/>
     <g>
      <use xlink:href="#ma8ce7acdde" x="59.603125" y="152.841562" style="fill: #7f7f7f; stroke: #7f7f7f"/>
     </g>
    </g>
    <g id="text_23">
     <!-- Size = 1400 -->
     <g transform="translate(77.603125 156.341562) scale(0.1 -0.1)">
      <use xlink:href="#DejaVuSans-53"/>
      <use xlink:href="#DejaVuSans-69" x="63.476562"/>
      <use xlink:href="#DejaVuSans-7a" x="91.259766"/>
      <use xlink:href="#DejaVuSans-65" x="143.75"/>
      <use xlink:href="#DejaVuSans-20" x="205.273438"/>
      <use xlink:href="#DejaVuSans-3d" x="237.060547"/>
      <use xlink:href="#DejaVuSans-20" x="320.849609"/>
      <use xlink:href="#DejaVuSans-31" x="352.636719"/>
      <use xlink:href="#DejaVuSans-34" x="416.259766"/>
      <use xlink:href="#DejaVuSans-30" x="479.882812"/>
      <use xlink:href="#DejaVuSans-30" x="543.505859"/>
     </g>
    </g>
    <g id="line2d_31">
     <path d="M 49.603125 167.519687 
L 59.603125 167.519687 
L 69.603125 167.519687 
" style="fill: none; stroke: #bcbd22; stroke-width: 1.5; stroke-linecap: square"/>
     <g>
      <use xlink:href="#m11b04fe46d" x="59.603125" y="167.519687" style="fill: #bcbd22; stroke: #bcbd22"/>
     </g>
    </g>
    <g id="text_24">
     <!-- Size = 1600 -->
     <g transform="translate(77.603125 171.019687) scale(0.1 -0.1)">
      <use xlink:href="#DejaVuSans-53"/>
      <use xlink:href="#DejaVuSans-69" x="63.476562"/>
      <use xlink:href="#DejaVuSans-7a" x="91.259766"/>
      <use xlink:href="#DejaVuSans-65" x="143.75"/>
      <use xlink:href="#DejaVuSans-20" x="205.273438"/>
      <use xlink:href="#DejaVuSans-3d" x="237.060547"/>
      <use xlink:href="#DejaVuSans-20" x="320.849609"/>
      <use xlink:href="#DejaVuSans-31" x="352.636719"/>
      <use xlink:href="#DejaVuSans-36" x="416.259766"/>
      <use xlink:href="#DejaVuSans-30" x="479.882812"/>
      <use xlink:href="#DejaVuSans-30" x="543.505859"/>
     </g>
    </g>
    <g id="line2d_32">
     <path d="M 49.603125 182.197812 
L 59.603125 182.197812 
L 69.603125 182.197812 
" style="fill: none; stroke: #17becf; stroke-width: 1.5; stroke-linecap: square"/>
     <g>
      <use xlink:href="#mf3d32e7069" x="59.603125" y="182.197812" style="fill: #17becf; stroke: #17becf"/>
     </g>
    </g>
    <g id="text_25">
     <!-- Size = 1800 -->
     <g transform="translate(77.603125 185.697812) scale(0.1 -0.1)">
      <use xlink:href="#DejaVuSans-53"/>
      <use xlink:href="#DejaVuSans-69" x="63.476562"/>
      <use xlink:href="#DejaVuSans-7a" x="91.259766"/>
      <use xlink:href="#DejaVuSans-65" x="143.75"/>
      <use xlink:href="#DejaVuSans-20" x="205.273438"/>
      <use xlink:href="#DejaVuSans-3d" x="237.060547"/>
      <use xlink:href="#DejaVuSans-20" x="320.849609"/>
      <use xlink:href="#DejaVuSans-31" x="352.636719"/>
      <use xlink:href="#DejaVuSans-38" x="416.259766"/>
      <use xlink:href="#DejaVuSans-30" x="479.882812"/>
      <use xlink:href="#DejaVuSans-30" x="543.505859"/>
     </g>
    </g>
    <g id="line2d_33">
     <path d="M 49.603125 196.875937 
L 59.603125 196.875937 
L 69.603125 196.875937 
" style="fill: none; stroke: #1f77b4; stroke-width: 1.5; stroke-linecap: square"/>
     <g>
      <use xlink:href="#m32f12e0cd4" x="59.603125" y="196.875937" style="fill: #1f77b4; stroke: #1f77b4"/>
     </g>
    </g>
    <g id="text_26">
     <!-- Size = 2000 -->
     <g transform="translate(77.603125 200.375937) scale(0.1 -0.1)">
      <use xlink:href="#DejaVuSans-53"/>
      <use xlink:href="#DejaVuSans-69" x="63.476562"/>
      <use xlink:href="#DejaVuSans-7a" x="91.259766"/>
      <use xlink:href="#DejaVuSans-65" x="143.75"/>
      <use xlink:href="#DejaVuSans-20" x="205.273438"/>
      <use xlink:href="#DejaVuSans-3d" x="237.060547"/>
      <use xlink:href="#DejaVuSans-20" x="320.849609"/>
      <use xlink:href="#DejaVuSans-32" x="352.636719"/>
      <use xlink:href="#DejaVuSans-30" x="416.259766"/>
      <use xlink:href="#DejaVuSans-30" x="479.882812"/>
      <use xlink:href="#DejaVuSans-30" x="543.505859"/>
     </g>
    </g>
   </g>
  </g>
 </g>
 <defs>
  <clipPath id="pa24edd1b56">
   <rect x="40.603125" y="22.318125" width="558" height="332.64"/>
  </clipPath>
 </defs>
</svg>
