<?xml version="1.0" encoding="UTF-8" standalone="no"?><svg xmlns="http://www.w3.org/2000/svg" xmlns:xlink="http://www.w3.org/1999/xlink" contentStyleType="text/css" height="259px" preserveAspectRatio="none" style="width:520px;height:259px;background:#FFFFFF;" version="1.1" viewBox="0 0 520 259" width="520px" zoomAndPan="magnify"><defs/><g><!--MD5=[0dddb7f964ed21e384072c4693cca302]
cluster z--><g id="cluster_z"><path d="M103.5,149.5 L356.5,149.5 A3.75,3.75 0 0 1 359,152 L366,174.5679 L510.5,174.5679 A2.5,2.5 0 0 1 513,177.0679 L513,250 A2.5,2.5 0 0 1 510.5,252.5 L103.5,252.5 A2.5,2.5 0 0 1 101,250 L101,152 A2.5,2.5 0 0 1 103.5,149.5 " fill="none" style="stroke:#000000;stroke-width:1.5;"/><line style="stroke:#000000;stroke-width:1.5;" x1="101" x2="366" y1="174.5679" y2="174.5679"/><text fill="#000000" font-family="sans-serif" font-size="14" font-weight="bold" lengthAdjust="spacing" textLength="252" x="105" y="166.4659">Сервис-ориентированный подход</text></g><!--MD5=[770389ab9df153645bc6ef28055eb2b5]
entity A--><g id="elem_A"><rect fill="#F1F1F1" height="49.0679" rx="2.5" ry="2.5" style="stroke:#181818;stroke-width:0.5;" width="103" x="117.5" y="187.5"/><rect fill="#F1F1F1" height="10" style="stroke:#181818;stroke-width:0.5;" width="15" x="200.5" y="192.5"/><rect fill="#F1F1F1" height="2" style="stroke:#181818;stroke-width:0.5;" width="4" x="198.5" y="194.5"/><rect fill="#F1F1F1" height="2" style="stroke:#181818;stroke-width:0.5;" width="4" x="198.5" y="198.5"/><text fill="#000000" font-family="sans-serif" font-size="14" lengthAdjust="spacing" textLength="63" x="132.5" y="222.4659">Служба 1</text></g><!--MD5=[b2d39259b6aeabc16b394deeb0238426]
entity B--><g id="elem_B"><rect fill="#F1F1F1" height="49.0679" rx="2.5" ry="2.5" style="stroke:#181818;stroke-width:0.5;" width="103" x="255.5" y="187.5"/><rect fill="#F1F1F1" height="10" style="stroke:#181818;stroke-width:0.5;" width="15" x="338.5" y="192.5"/><rect fill="#F1F1F1" height="2" style="stroke:#181818;stroke-width:0.5;" width="4" x="336.5" y="194.5"/><rect fill="#F1F1F1" height="2" style="stroke:#181818;stroke-width:0.5;" width="4" x="336.5" y="198.5"/><text fill="#000000" font-family="sans-serif" font-size="14" lengthAdjust="spacing" textLength="63" x="270.5" y="222.4659">Служба 2</text></g><!--MD5=[16fab723be418f7eaf2ea4bd895a8e51]
entity C--><g id="elem_C"><rect fill="#F1F1F1" height="49.0679" rx="2.5" ry="2.5" style="stroke:#181818;stroke-width:0.5;" width="103" x="393.5" y="187.5"/><rect fill="#F1F1F1" height="10" style="stroke:#181818;stroke-width:0.5;" width="15" x="476.5" y="192.5"/><rect fill="#F1F1F1" height="2" style="stroke:#181818;stroke-width:0.5;" width="4" x="474.5" y="194.5"/><rect fill="#F1F1F1" height="2" style="stroke:#181818;stroke-width:0.5;" width="4" x="474.5" y="198.5"/><text fill="#000000" font-family="sans-serif" font-size="14" lengthAdjust="spacing" textLength="63" x="408.5" y="222.4659">Служба 3</text></g><!--MD5=[4a65e84059005d12693a083370a06717]
entity client--><g id="elem_client"><ellipse cx="31" cy="14" fill="#F1F1F1" rx="8" ry="8" style="stroke:#181818;stroke-width:0.5;"/><path d="M31,22 L31,49 M18,30 L44,30 M31,49 L18,64 M31,49 L44,64 " fill="none" style="stroke:#181818;stroke-width:0.5;"/><text fill="#000000" font-family="sans-serif" font-size="14" lengthAdjust="spacing" textLength="50" x="6" y="80.4659">Клиент</text></g><!--MD5=[953543167c6874d2f2ca47c5aea302dc]
entity comp--><g id="elem_comp"><rect fill="#F1F1F1" height="39.0679" rx="2.5" ry="2.5" style="stroke:#181818;stroke-width:0.5;" width="302" x="156" y="25.5"/><text fill="#000000" font-family="sans-serif" font-size="14" lengthAdjust="spacing" textLength="282" x="166" y="50.4659">Композиция программных интерфейсов</text></g><!--MD5=[cf8d801de4c74e900daa422d915ce6d5]
link comp to A--><g id="link_comp_A"><path d="M291.44,64.61 C267.19,93.6 220.25,149.72 192.06,183.43 " fill="none" id="comp-to-A" style="stroke:#181818;stroke-width:1.0;"/><polygon fill="#181818" points="188.72,187.42,197.553,183.0635,191.9195,183.5777,191.4053,177.9443,188.72,187.42" style="stroke:#181818;stroke-width:1.0;"/><text fill="#000000" font-family="sans-serif" font-size="13" lengthAdjust="spacing" textLength="17" x="248" y="129.397">Ф1</text></g><!--MD5=[08385f08044d77061df10f76ad6cc2c8]
link comp to B--><g id="link_comp_B"><path d="M307,64.61 C307,93.25 307,148.36 307,182.18 " fill="none" id="comp-to-B" style="stroke:#181818;stroke-width:1.0;"/><polygon fill="#181818" points="307,187.42,311,178.42,307,182.42,303,178.42,307,187.42" style="stroke:#181818;stroke-width:1.0;"/><text fill="#000000" font-family="sans-serif" font-size="13" lengthAdjust="spacing" textLength="17" x="308" y="129.397">Ф2</text></g><!--MD5=[4662165f97cc3f0b87e9ac022f358b22]
link comp to C--><g id="link_comp_C"><path d="M322.56,64.61 C346.81,93.6 393.75,149.72 421.94,183.43 " fill="none" id="comp-to-C" style="stroke:#181818;stroke-width:1.0;"/><polygon fill="#181818" points="425.28,187.42,422.5947,177.9443,422.0805,183.5777,416.447,183.0635,425.28,187.42" style="stroke:#181818;stroke-width:1.0;"/><text fill="#000000" font-family="sans-serif" font-size="13" lengthAdjust="spacing" textLength="17" x="381" y="129.397">Ф3</text></g><!--MD5=[744a1f74f9a1b168e904e178ce6f4ebc]
link client to comp--><g id="link_client_comp"><path d="M56.47,45 C78.98,45 113.86,45 150.51,45 " fill="none" id="client-to-comp" style="stroke:#181818;stroke-width:1.0;"/><polygon fill="#181818" points="155.93,45,146.93,41,150.93,45,146.93,49,155.93,45" style="stroke:#181818;stroke-width:1.0;"/><text fill="#000000" font-family="sans-serif" font-size="13" lengthAdjust="spacing" textLength="63" x="74.5" y="37.897">Ф1, Ф2, Ф3</text></g><!--MD5=[35078559eff24bbe801644f7c47685f4]
@startuml

actor "Клиент" as client

rectangle "Композиция программных интерфейсов" as comp

package "Сервис-ориентированный подход" as z {
    component "Служба 1" as A
    component "Служба 2" as B
    component "Служба 3" as C
}

comp - -> A : Ф1
comp - -> B : Ф2
comp - -> C : Ф3

client -> comp : Ф1, Ф2, Ф3
@enduml

PlantUML version 1.2022.13(Sat Nov 19 16:22:17 MSK 2022)
(GPL source distribution)
Java Runtime: OpenJDK Runtime Environment
JVM: OpenJDK 64-Bit Server VM
Default Encoding: UTF-8
Language: ru
Country: RU
--></g></svg>