<?xml version="1.0" encoding="UTF-8" standalone="no"?><svg xmlns="http://www.w3.org/2000/svg" xmlns:xlink="http://www.w3.org/1999/xlink" contentStyleType="text/css" height="393px" preserveAspectRatio="none" style="width:301px;height:393px;background:#FFFFFF;" version="1.1" viewBox="0 0 301 393" width="301px" zoomAndPan="magnify"><defs/><g><!--MD5=[0ac70d5a357257da33ce88abad68f4a4]
cluster S1--><g id="cluster_S1"><path d="M8.5,6.602 L73.5,6.602 A3.75,3.75 0 0 1 76,9.102 L83,31.6699 L135.5,31.6699 A2.5,2.5 0 0 1 138,34.1699 L138,163.102 A2.5,2.5 0 0 1 135.5,165.602 L8.5,165.602 A2.5,2.5 0 0 1 6,163.102 L6,9.102 A2.5,2.5 0 0 1 8.5,6.602 " fill="none" style="stroke:#000000;stroke-width:1.5;"/><line style="stroke:#000000;stroke-width:1.5;" x1="6" x2="83" y1="31.6699" y2="31.6699"/><text fill="#000000" font-family="sans-serif" font-size="14" font-weight="bold" lengthAdjust="spacing" textLength="64" x="10" y="23.5679">Сервис 1</text></g><!--MD5=[dc4eb2012487d12714526fe7f88b694b]
cluster S2--><g id="cluster_S2"><path d="M164.5,6.602 L229.5,6.602 A3.75,3.75 0 0 1 232,9.102 L239,31.6699 L291.5,31.6699 A2.5,2.5 0 0 1 294,34.1699 L294,163.102 A2.5,2.5 0 0 1 291.5,165.602 L164.5,165.602 A2.5,2.5 0 0 1 162,163.102 L162,9.102 A2.5,2.5 0 0 1 164.5,6.602 " fill="none" style="stroke:#000000;stroke-width:1.5;"/><line style="stroke:#000000;stroke-width:1.5;" x1="162" x2="239" y1="31.6699" y2="31.6699"/><text fill="#000000" font-family="sans-serif" font-size="14" font-weight="bold" lengthAdjust="spacing" textLength="64" x="166" y="23.5679">Сервис 2</text></g><!--MD5=[addf083e429417be7ad7bace6a60d70a]
cluster S3--><g id="cluster_S3"><path d="M60.5,189.602 L229.5,189.602 A3.75,3.75 0 0 1 232,192.102 L239,214.6699 L239.5,214.6699 A2.5,2.5 0 0 1 242,217.1699 L242,384.102 A2.5,2.5 0 0 1 239.5,386.602 L60.5,386.602 A2.5,2.5 0 0 1 58,384.102 L58,192.102 A2.5,2.5 0 0 1 60.5,189.602 " fill="none" style="stroke:#000000;stroke-width:1.5;"/><line style="stroke:#000000;stroke-width:1.5;" x1="58" x2="239" y1="214.6699" y2="214.6699"/><text fill="#000000" font-family="sans-serif" font-size="14" font-weight="bold" lengthAdjust="spacing" textLength="168" x="62" y="206.5679">Расширение сущности</text></g><!--MD5=[3776c341aec881ea01e2e27875117471]
class S1.A1--><g id="elem_S1.A1"><rect codeLine="5" fill="#F1F1F1" height="105.2038" id="S1.A1" rx="2.5" ry="2.5" style="stroke:#181818;stroke-width:0.5;" width="100" x="22" y="44.602"/><ellipse cx="37" cy="60.602" fill="#ADD1B2" rx="11" ry="11" style="stroke:#181818;stroke-width:1.0;"/><path d="M39.9688,66.2426 Q39.3906,66.5395 38.75,66.6801 Q38.1094,66.8364 37.4063,66.8364 Q34.9063,66.8364 33.5781,65.1957 Q32.2656,63.5395 32.2656,60.4145 Q32.2656,57.2895 33.5781,55.6332 Q34.9063,53.977 37.4063,53.977 Q38.1094,53.977 38.75,54.1332 Q39.4063,54.2895 39.9688,54.5864 L39.9688,57.3051 Q39.3438,56.727 38.75,56.4614 Q38.1563,56.1801 37.5313,56.1801 Q36.1875,56.1801 35.5,57.2582 Q34.8125,58.3207 34.8125,60.4145 Q34.8125,62.5082 35.5,63.5864 Q36.1875,64.6489 37.5313,64.6489 Q38.1563,64.6489 38.75,64.3832 Q39.3438,64.102 39.9688,63.5239 L39.9688,66.2426 Z " fill="#000000"/><text fill="#000000" font-family="sans-serif" font-size="14" lengthAdjust="spacing" textLength="68" x="51" y="66.034">Сущность</text><line style="stroke:#181818;stroke-width:0.5;" x1="23" x2="121" y1="76.602" y2="76.602"/><text fill="#000000" font-family="sans-serif" font-size="14" lengthAdjust="spacing" textLength="13" x="28" y="95.5679">id</text><line style="stroke:#181818;stroke-width:1.0;" x1="23" x2="121" y1="103.6699" y2="103.6699"/><text fill="#000000" font-family="sans-serif" font-size="14" lengthAdjust="spacing" textLength="67" x="28" y="122.6358">атрибут 1</text><text fill="#000000" font-family="sans-serif" font-size="14" lengthAdjust="spacing" textLength="67" x="28" y="141.7038">атрибут 2</text></g><!--MD5=[f967cd94627283bf4f2aa836d35d51e7]
class S2.A2--><g id="elem_S2.A2"><rect codeLine="14" fill="#F1F1F1" height="105.2038" id="S2.A2" rx="2.5" ry="2.5" style="stroke:#181818;stroke-width:0.5;" width="100" x="178" y="44.602"/><ellipse cx="193" cy="60.602" fill="#ADD1B2" rx="11" ry="11" style="stroke:#181818;stroke-width:1.0;"/><path d="M195.9688,66.2426 Q195.3906,66.5395 194.75,66.6801 Q194.1094,66.8364 193.4063,66.8364 Q190.9063,66.8364 189.5781,65.1957 Q188.2656,63.5395 188.2656,60.4145 Q188.2656,57.2895 189.5781,55.6332 Q190.9063,53.977 193.4063,53.977 Q194.1094,53.977 194.75,54.1332 Q195.4063,54.2895 195.9688,54.5864 L195.9688,57.3051 Q195.3438,56.727 194.75,56.4614 Q194.1563,56.1801 193.5313,56.1801 Q192.1875,56.1801 191.5,57.2582 Q190.8125,58.3207 190.8125,60.4145 Q190.8125,62.5082 191.5,63.5864 Q192.1875,64.6489 193.5313,64.6489 Q194.1563,64.6489 194.75,64.3832 Q195.3438,64.102 195.9688,63.5239 L195.9688,66.2426 Z " fill="#000000"/><text fill="#000000" font-family="sans-serif" font-size="14" lengthAdjust="spacing" textLength="68" x="207" y="66.034">Сущность</text><line style="stroke:#181818;stroke-width:0.5;" x1="179" x2="277" y1="76.602" y2="76.602"/><text fill="#000000" font-family="sans-serif" font-size="14" lengthAdjust="spacing" textLength="13" x="184" y="95.5679">id</text><line style="stroke:#181818;stroke-width:1.0;" x1="179" x2="277" y1="103.6699" y2="103.6699"/><text fill="#000000" font-family="sans-serif" font-size="14" lengthAdjust="spacing" textLength="67" x="184" y="122.6358">атрибут 3</text><text fill="#000000" font-family="sans-serif" font-size="14" lengthAdjust="spacing" textLength="67" x="184" y="141.7038">атрибут 4</text></g><!--MD5=[2702b0432b207d9f4e55ab08080332c1]
class S3.A3--><g id="elem_S3.A3"><rect codeLine="24" fill="#F1F1F1" height="143.3396" id="S3.A3" rx="2.5" ry="2.5" style="stroke:#181818;stroke-width:0.5;" width="100" x="100" y="227.602"/><ellipse cx="115" cy="243.602" fill="#ADD1B2" rx="11" ry="11" style="stroke:#181818;stroke-width:1.0;"/><path d="M117.9688,249.2426 Q117.3906,249.5395 116.75,249.6801 Q116.1094,249.8364 115.4063,249.8364 Q112.9063,249.8364 111.5781,248.1957 Q110.2656,246.5395 110.2656,243.4145 Q110.2656,240.2895 111.5781,238.6332 Q112.9063,236.977 115.4063,236.977 Q116.1094,236.977 116.75,237.1332 Q117.4063,237.2895 117.9688,237.5864 L117.9688,240.3051 Q117.3438,239.727 116.75,239.4614 Q116.1563,239.1801 115.5313,239.1801 Q114.1875,239.1801 113.5,240.2582 Q112.8125,241.3207 112.8125,243.4145 Q112.8125,245.5082 113.5,246.5864 Q114.1875,247.6489 115.5313,247.6489 Q116.1563,247.6489 116.75,247.3832 Q117.3438,247.102 117.9688,246.5239 L117.9688,249.2426 Z " fill="#000000"/><text fill="#000000" font-family="sans-serif" font-size="14" lengthAdjust="spacing" textLength="68" x="129" y="249.034">Сущность</text><line style="stroke:#181818;stroke-width:0.5;" x1="101" x2="199" y1="259.602" y2="259.602"/><text fill="#000000" font-family="sans-serif" font-size="14" lengthAdjust="spacing" textLength="13" x="106" y="278.5679">id</text><line style="stroke:#181818;stroke-width:1.0;" x1="101" x2="199" y1="286.6699" y2="286.6699"/><text fill="#000000" font-family="sans-serif" font-size="14" lengthAdjust="spacing" textLength="67" x="106" y="305.6358">атрибут 1</text><text fill="#000000" font-family="sans-serif" font-size="14" lengthAdjust="spacing" textLength="67" x="106" y="324.7038">атрибут 2</text><text fill="#000000" font-family="sans-serif" font-size="14" lengthAdjust="spacing" textLength="67" x="106" y="343.7717">атрибут 3</text><text fill="#000000" font-family="sans-serif" font-size="14" lengthAdjust="spacing" textLength="67" x="106" y="362.8396">атрибут 4</text></g><!--MD5=[55883e9d052147e9c86a15b7f5f471ac]
link S1.A1 to S3.A3--><g id="link_S1.A1_S3.A3"><path codeLine="34" d="M92.09,149.602 C100.76,171.852 111.08,198.322 120.59,222.702 " fill="none" id="S1.A1-to-S3.A3" style="stroke:#181818;stroke-width:1.0;"/><polygon fill="#181818" points="122.49,227.552,122.9502,217.7139,120.675,222.893,115.4959,220.6179,122.49,227.552" style="stroke:#181818;stroke-width:1.0;"/></g><!--MD5=[d09ca54c0a4ad164e7df4e91ff3a7c4e]
link S2.A2 to S3.A3--><g id="link_S2.A2_S3.A3"><path codeLine="35" d="M207.91,149.602 C199.24,171.852 188.92,198.322 179.41,222.702 " fill="none" id="S2.A2-to-S3.A3" style="stroke:#181818;stroke-width:1.0;"/><polygon fill="#181818" points="177.51,227.552,184.5041,220.6179,179.325,222.893,177.0498,217.7139,177.51,227.552" style="stroke:#181818;stroke-width:1.0;"/></g><!--MD5=[7141843253fc3f9f990ec2ad112217d9]
@startuml

'left to right direction

namespace "Сервис 1" as S1  {
class "Сущность" as A1{
    id
    - - -
    атрибут 1
    атрибут 2
}
}

namespace "Сервис 2" as S2  {
class "Сущность" as A2{
    id
    - - -
    атрибут 3
    атрибут 4
}
}


namespace "Расширение сущности" as S3  {
class "Сущность" as A3{
    id
    - - -
    атрибут 1
    атрибут 2
    атрибут 3
    атрибут 4
}
}

S1.A1 - -> S3.A3
S2.A2 - -> S3.A3

@enduml

@startuml


namespace "Сервис 1" as S1  {
class "Сущность" as A1{
    id
    - - -
    атрибут 1
    атрибут 2
}
}

namespace "Сервис 2" as S2  {
class "Сущность" as A2{
    id
    - - -
    атрибут 3
    атрибут 4
}
}


namespace "Расширение сущности" as S3  {
class "Сущность" as A3{
    id
    - - -
    атрибут 1
    атрибут 2
    атрибут 3
    атрибут 4
}
}

S1.A1 - -> S3.A3
S2.A2 - -> S3.A3

@enduml

PlantUML version 1.2022.13(Sat Nov 19 16:22:17 MSK 2022)
(GPL source distribution)
Java Runtime: OpenJDK Runtime Environment
JVM: OpenJDK 64-Bit Server VM
Default Encoding: UTF-8
Language: ru
Country: RU
--></g></svg>