<?xml version="1.0" encoding="us-ascii" standalone="no"?><svg xmlns="http://www.w3.org/2000/svg" xmlns:xlink="http://www.w3.org/1999/xlink" contentStyleType="text/css" height="353px" preserveAspectRatio="none" style="width:843px;height:353px;background:#FFFFFF;" version="1.1" viewBox="0 0 843 353" width="843px" zoomAndPan="magnify"><defs/><g><g id="S1E1"><rect fill="#F1F1F1" height="36.2969" style="stroke:#181818;stroke-width:0.5;" width="136" x="71.99" y="311.3"/><text fill="#000000" font-family="sans-serif" font-size="14" lengthAdjust="spacing" textLength="116" x="81.99" y="334.2951">Service1::Entity1</text></g><g id="S1E1/Field1"><ellipse cx="215.9914" cy="235.7836" fill="#F1F1F1" rx="31.9914" ry="14.5236" style="stroke:#181818;stroke-width:0.5;"/><text fill="#000000" font-family="sans-serif" font-size="14" lengthAdjust="spacing" textLength="41" x="195.4914" y="240.2551">Field1</text></g><g id="S1E1/Filed2"><ellipse cx="37.9914" cy="235.7836" fill="#F1F1F1" rx="31.9914" ry="14.5236" style="stroke:#181818;stroke-width:0.5;"/><text fill="#000000" font-family="sans-serif" font-size="14" lengthAdjust="spacing" textLength="41" x="17.4914" y="240.2551">Filed2</text></g><g id="S2E1"><rect fill="#F1F1F1" height="36.2969" style="stroke:#181818;stroke-width:0.5;" width="136" x="375.99" y="311.3"/><text fill="#000000" font-family="sans-serif" font-size="14" lengthAdjust="spacing" textLength="116" x="385.99" y="334.2951">Service2::Entity1</text></g><g id="S2E1/Field3"><ellipse cx="393.9914" cy="235.7836" fill="#F1F1F1" rx="31.9914" ry="14.5236" style="stroke:#181818;stroke-width:0.5;"/><text fill="#000000" font-family="sans-serif" font-size="14" lengthAdjust="spacing" textLength="41" x="373.4914" y="240.2551">Field3</text></g><g id="S2E1/Filed4"><ellipse cx="492.9914" cy="235.7836" fill="#F1F1F1" rx="31.9914" ry="14.5236" style="stroke:#181818;stroke-width:0.5;"/><text fill="#000000" font-family="sans-serif" font-size="14" lengthAdjust="spacing" textLength="41" x="472.4914" y="240.2551">Filed4</text></g><g id="S3E2"><rect fill="#F1F1F1" height="36.2969" style="stroke:#181818;stroke-width:0.5;" width="136" x="701.99" y="311.3"/><text fill="#000000" font-family="sans-serif" font-size="14" lengthAdjust="spacing" textLength="116" x="711.99" y="334.2951">Service3::Entity2</text></g><g id="S3E2/Field4"><ellipse cx="670.9914" cy="235.7836" fill="#F1F1F1" rx="31.9914" ry="14.5236" style="stroke:#181818;stroke-width:0.5;"/><text fill="#000000" font-family="sans-serif" font-size="14" lengthAdjust="spacing" textLength="41" x="650.4914" y="240.2551">Field4</text></g><g id="S3E2/Filed5"><ellipse cx="769.9914" cy="235.7836" fill="#F1F1F1" rx="31.9914" ry="14.5236" style="stroke:#181818;stroke-width:0.5;"/><text fill="#000000" font-family="sans-serif" font-size="14" lengthAdjust="spacing" textLength="41" x="749.4914" y="240.2551">Filed5</text></g><g id="Extends"><polygon fill="#F1F1F1" points="160.51,126.0186,228.9872,91.78,297.4644,126.0186,228.9872,160.2572" style="stroke:#181818;stroke-width:0.5;"/><text fill="#000000" font-family="sans-serif" font-size="14" lengthAdjust="spacing" textLength="82" x="187.9872" y="130.8653">&#1056;&#1072;&#1089;&#1096;&#1080;&#1088;&#1103;&#1077;&#1090;</text></g><g id="Extends/ID"><ellipse cx="228.989" cy="18.8872" fill="#F1F1F1" rx="15.359" ry="12.8872" style="stroke:#181818;stroke-width:0.5;"/><text fill="#000000" font-family="sans-serif" font-size="14" lengthAdjust="spacing" textLength="14" x="221.989" y="24.9951">ID</text></g><g id="Link"><polygon fill="#F1F1F1" points="667.01,126.0186,733.9872,92.53,800.9644,126.0186,733.9872,159.5072" style="stroke:#181818;stroke-width:0.5;"/><text fill="#000000" font-family="sans-serif" font-size="14" lengthAdjust="spacing" textLength="79" x="694.4872" y="130.8653">&#1057;&#1074;&#1103;&#1079;&#1099;&#1074;&#1072;&#1077;&#1090;</text></g><!--link S1E1/Field1 to S1E1--><g id="link_S1E1/Field1_S1E1"><path d="M205.1,249.91 C191.8,265.95 169.26,293.14 154.5,310.95 " fill="none" id="S1E1/Field1-S1E1" style="stroke:#181818;stroke-width:1.0;"/></g><!--link S1E1/Filed2 to S1E1--><g id="link_S1E1/Filed2_S1E1"><path d="M51.75,249.14 C69.47,265.08 100.4,292.87 120.53,310.96 " fill="none" id="S1E1/Filed2-S1E1" style="stroke:#181818;stroke-width:1.0;"/></g><!--link S2E1/Field3 to S2E1--><g id="link_S2E1/Field3_S2E1"><path d="M401.37,250.31 C410.17,266.44 424.9,293.45 434.53,311.11 " fill="none" id="S2E1/Field3-S2E1" style="stroke:#181818;stroke-width:1.0;"/></g><!--link S2E1/Filed4 to S2E1--><g id="link_S2E1/Filed4_S2E1"><path d="M485.76,250.31 C477.14,266.44 462.7,293.45 453.26,311.11 " fill="none" id="S2E1/Filed4-S2E1" style="stroke:#181818;stroke-width:1.0;"/></g><!--link S3E2/Field4 to S3E2--><g id="link_S3E2/Field4_S3E2"><path d="M684.34,249.14 C701.55,265.08 731.57,292.87 751.11,310.96 " fill="none" id="S3E2/Field4-S3E2" style="stroke:#181818;stroke-width:1.0;"/></g><!--link S3E2/Filed5 to S3E2--><g id="link_S3E2/Filed5_S3E2"><path d="M769.99,250.7 C769.99,266.83 769.99,293.42 769.99,310.94 " fill="none" id="S3E2/Filed5-S3E2" style="stroke:#181818;stroke-width:1.0;"/></g><!--link Extends/ID to Extends--><g id="link_Extends/ID_Extends"><path d="M228.99,31.95 C228.99,46.4 228.99,71.23 228.99,91.6 " fill="none" id="Extends/ID-Extends" style="stroke:#181818;stroke-width:1.0;"/></g><!--link Extends to S1E1--><g id="link_Extends_S1E1"><path d="M207.14,149.41 C190.94,167.36 169.72,193.97 157.99,221.26 C145.17,251.08 141.45,289.21 140.39,311.03 " fill="none" id="Extends-S1E1" style="stroke:#181818;stroke-width:2.0;"/><text fill="#000000" font-family="sans-serif" font-size="11" lengthAdjust="spacing" textLength="7" x="158.99" y="239.9904">1</text></g><!--link Extends to S2E1--><g id="link_Extends_S2E1"><path d="M247.23,151.18 C267.44,177.15 301.71,218.92 335.99,250.3 C361.26,273.43 393.41,295.94 416.04,310.81 " fill="none" id="Extends-S2E1" style="stroke:#181818;stroke-width:2.0;"/><text fill="#000000" font-family="sans-serif" font-size="11" lengthAdjust="spacing" textLength="7" x="336.99" y="239.9904">1</text></g><!--link Link to S2E1--><g id="link_Link_S2E1"><path d="M706.45,146.15 C650.32,185.14 523.44,273.27 469.27,310.89 " fill="none" id="Link-S2E1" style="stroke:#181818;stroke-width:2.0;"/><text fill="#000000" font-family="sans-serif" font-size="11" lengthAdjust="spacing" textLength="7" x="597.99" y="239.9904">1</text></g><!--link Link to S3E2--><g id="link_Link_S3E2"><path d="M759.95,146.58 C780.35,163.72 807.21,190.61 818.99,221.26 C831.4,253.54 806.07,289.91 787.42,310.91 " fill="none" id="Link-S3E2" style="stroke:#181818;stroke-width:1.0;"/><text fill="#000000" font-family="sans-serif" font-size="11" lengthAdjust="spacing" textLength="8" x="822.99" y="239.9904">N</text></g><!--SRC=[RP3DJi9058NtynGth61HuxJ5c2OaH2b6B4f4s0_j21FAb4odLM9Cr9M92rz1tu2G67sCzesS3Ydum-x-dE_atjEC9H7Idr2E4EMIoGLK-bIapAVOSLmzmHKWCVInY-4E0RGP3GEiYv069hh_Hvf_IFCdQPMalOEqIj9SavPhRacx9Ei5AMX898juF65pg6HlsJ9_p9-ph_mXVyq-yYTjuDvAoeDOUvosTc3lsKh9F_ENR9KjDvZ7-5Gp1L5wD713X_1xe7v326bWq-lEE3Vq_MhRLF9rnBsGS3deUf1I4Qih0E-P-wQzLnzHIQpgW4zvTCF1ZsPpzIX8DgCrL3tfUH17YV0f12oMWesIueKQwf2Km6N22vq35tFAEwspSW0kJvc8-4nbZ3h3xbPmO1j7J4AHEHKmxA8MlIP9A1NXHm7ZOmS6LstZ47c4ZnCoLjxg-ED8-Og5slM_0G00]--></g></svg>