<?xml version="1.0" encoding="UTF-8" standalone="no"?><svg xmlns="http://www.w3.org/2000/svg" xmlns:xlink="http://www.w3.org/1999/xlink" contentStyleType="text/css" height="426px" preserveAspectRatio="none" style="width:417px;height:426px;background:#FFFFFF;" version="1.1" viewBox="0 0 417 426" width="417px" zoomAndPan="magnify"><defs/><g><!--MD5=[0ac70d5a357257da33ce88abad68f4a4]
cluster S1--><g id="cluster_S1"><path d="M8.5,6.602 L73.5,6.602 A3.75,3.75 0 0 1 76,9.102 L83,31.6699 L193.5,31.6699 A2.5,2.5 0 0 1 196,34.1699 L196,181.102 A2.5,2.5 0 0 1 193.5,183.602 L8.5,183.602 A2.5,2.5 0 0 1 6,181.102 L6,9.102 A2.5,2.5 0 0 1 8.5,6.602 " fill="none" style="stroke:#000000;stroke-width:1.5;"/><line style="stroke:#000000;stroke-width:1.5;" x1="6" x2="83" y1="31.6699" y2="31.6699"/><text fill="#000000" font-family="sans-serif" font-size="14" font-weight="bold" lengthAdjust="spacing" textLength="64" x="10" y="23.5679">Сервис 1</text></g><!--MD5=[dc4eb2012487d12714526fe7f88b694b]
cluster S2--><g id="cluster_S2"><path d="M222.5,6.602 L287.5,6.602 A3.75,3.75 0 0 1 290,9.102 L297,31.6699 L407.5,31.6699 A2.5,2.5 0 0 1 410,34.1699 L410,181.102 A2.5,2.5 0 0 1 407.5,183.602 L222.5,183.602 A2.5,2.5 0 0 1 220,181.102 L220,9.102 A2.5,2.5 0 0 1 222.5,6.602 " fill="none" style="stroke:#000000;stroke-width:1.5;"/><line style="stroke:#000000;stroke-width:1.5;" x1="220" x2="297" y1="31.6699" y2="31.6699"/><text fill="#000000" font-family="sans-serif" font-size="14" font-weight="bold" lengthAdjust="spacing" textLength="64" x="224" y="23.5679">Сервис 2</text></g><!--MD5=[addf083e429417be7ad7bace6a60d70a]
cluster S3--><g id="cluster_S3"><path d="M115.5,207.602 L286.5,207.602 A3.75,3.75 0 0 1 289,210.102 L296,232.6699 L300.5,232.6699 A2.5,2.5 0 0 1 303,235.1699 L303,417.102 A2.5,2.5 0 0 1 300.5,419.602 L115.5,419.602 A2.5,2.5 0 0 1 113,417.102 L113,210.102 A2.5,2.5 0 0 1 115.5,207.602 " fill="none" style="stroke:#000000;stroke-width:1.5;"/><line style="stroke:#000000;stroke-width:1.5;" x1="113" x2="296" y1="232.6699" y2="232.6699"/><text fill="#000000" font-family="sans-serif" font-size="14" font-weight="bold" lengthAdjust="spacing" textLength="170" x="117" y="224.5679">Композиция сущности</text></g><g id="elem_A1"><rect fill="#F1F1F1" height="123.3396" style="stroke:#181818;stroke-width:0.5;" width="158" x="22" y="44.602"/><text fill="#000000" font-family="sans-serif" font-size="14" lengthAdjust="spacing" textLength="144" x="29" y="61.5679">Начисление бонусов</text><text fill="#000000" font-family="sans-serif" font-size="14" lengthAdjust="spacing" textLength="76" x="65" y="80.6358">за задания</text><line style="stroke:#181818;stroke-width:0.5;" x1="23" x2="179" y1="86.7378" y2="86.7378"/><text fill="#000000" font-family="sans-serif" font-size="14" lengthAdjust="spacing" textLength="97" x="28" y="105.7038">Начисление 1</text><line style="stroke:#181818;stroke-width:1.0;" x1="23" x2="179" y1="113.8057" y2="113.8057"/><text fill="#000000" font-family="sans-serif" font-size="14" lengthAdjust="spacing" textLength="97" x="28" y="132.7717">Начисление 2</text><line style="stroke:#181818;stroke-width:1.0;" x1="23" x2="179" y1="140.8736" y2="140.8736"/><text fill="#000000" font-family="sans-serif" font-size="14" lengthAdjust="spacing" textLength="12" x="28" y="159.8396">...</text></g><g id="elem_A2"><rect fill="#F1F1F1" height="123.3396" style="stroke:#181818;stroke-width:0.5;" width="158" x="236" y="44.602"/><text fill="#000000" font-family="sans-serif" font-size="14" lengthAdjust="spacing" textLength="144" x="243" y="61.5679">Начисление бонусов</text><text fill="#000000" font-family="sans-serif" font-size="14" lengthAdjust="spacing" textLength="75" x="279.5" y="80.6358">за покупки</text><line style="stroke:#181818;stroke-width:0.5;" x1="237" x2="393" y1="86.7378" y2="86.7378"/><text fill="#000000" font-family="sans-serif" font-size="14" lengthAdjust="spacing" textLength="97" x="242" y="105.7038">Начисление 3</text><line style="stroke:#181818;stroke-width:1.0;" x1="237" x2="393" y1="113.8057" y2="113.8057"/><text fill="#000000" font-family="sans-serif" font-size="14" lengthAdjust="spacing" textLength="97" x="242" y="132.7717">Начисление 4</text><line style="stroke:#181818;stroke-width:1.0;" x1="237" x2="393" y1="140.8736" y2="140.8736"/><text fill="#000000" font-family="sans-serif" font-size="14" lengthAdjust="spacing" textLength="12" x="242" y="159.8396">...</text></g><g id="elem_A3"><rect fill="#F1F1F1" height="158.4075" style="stroke:#181818;stroke-width:0.5;" width="158" x="129" y="245.602"/><text fill="#000000" font-family="sans-serif" font-size="14" lengthAdjust="spacing" textLength="144" x="136" y="262.5679">Начисление бонусов</text><line style="stroke:#181818;stroke-width:0.5;" x1="130" x2="286" y1="268.6699" y2="268.6699"/><text fill="#000000" font-family="sans-serif" font-size="14" lengthAdjust="spacing" textLength="97" x="135" y="287.6358">Начисление 1</text><line style="stroke:#181818;stroke-width:1.0;" x1="130" x2="286" y1="295.7378" y2="295.7378"/><text fill="#000000" font-family="sans-serif" font-size="14" lengthAdjust="spacing" textLength="97" x="135" y="314.7038">Начисление 2</text><line style="stroke:#181818;stroke-width:1.0;" x1="130" x2="286" y1="322.8057" y2="322.8057"/><text fill="#000000" font-family="sans-serif" font-size="14" lengthAdjust="spacing" textLength="97" x="135" y="341.7717">Начисление 3</text><line style="stroke:#181818;stroke-width:1.0;" x1="130" x2="286" y1="349.8736" y2="349.8736"/><text fill="#000000" font-family="sans-serif" font-size="14" lengthAdjust="spacing" textLength="97" x="135" y="368.8396">Начисление 4</text><line style="stroke:#181818;stroke-width:1.0;" x1="130" x2="286" y1="376.9416" y2="376.9416"/><text fill="#000000" font-family="sans-serif" font-size="14" lengthAdjust="spacing" textLength="12" x="135" y="395.9075">...</text></g><!--MD5=[ebcbe3e78235c7ae15a82dcebf1956d2]
link A1 to A3--><g id="link_A1_A3"><path codeLine="40" d="M130.95,167.702 C142.18,190.422 155.14,216.652 167.2,241.042 " fill="none" id="A1-to-A3" style="stroke:#181818;stroke-width:1.0;"/><polygon fill="#181818" points="169.44,245.572,169.0431,235.7311,167.2268,241.0885,161.8695,239.2722,169.44,245.572" style="stroke:#181818;stroke-width:1.0;"/></g><!--MD5=[77ff4c501d98d148735760b3f3e66250]
link A2 to A3--><g id="link_A2_A3"><path codeLine="41" d="M285.05,167.702 C273.82,190.422 260.86,216.652 248.8,241.042 " fill="none" id="A2-to-A3" style="stroke:#181818;stroke-width:1.0;"/><polygon fill="#181818" points="246.56,245.572,254.1305,239.2722,248.7732,241.0885,246.9569,235.7311,246.56,245.572" style="stroke:#181818;stroke-width:1.0;"/></g><!--MD5=[7e2e0a2a0d221c90b9d4c44d89a14147]
@startuml

'left to right direction

namespace "Сервис 1" as S1  {
object "Начисление бонусов\n за задания" as A1 {
   Начисление 1
   - - -
   Начисление 2
   - - -
   ...
}

}

namespace "Сервис 2" as S2  {
object "Начисление бонусов\n за покупки" as A2{
     Начисление 3
   - - -
       Начисление 4
       - - -
       ...
}
}


namespace "Композиция сущности" as S3  {
object "Начисление бонусов" as A3{
    Начисление 1
    - - -
    Начисление 2
    - - -
    Начисление 3
    - - -
    Начисление 4
    - - -
    ...
}
}

A1 - -> A3
A2 - -> A3

@enduml

@startuml


namespace "Сервис 1" as S1  {
object "Начисление бонусов\n за задания" as A1 {
   Начисление 1
   - - -
   Начисление 2
   - - -
   ...
}

}

namespace "Сервис 2" as S2  {
object "Начисление бонусов\n за покупки" as A2{
     Начисление 3
   - - -
       Начисление 4
       - - -
       ...
}
}


namespace "Композиция сущности" as S3  {
object "Начисление бонусов" as A3{
    Начисление 1
    - - -
    Начисление 2
    - - -
    Начисление 3
    - - -
    Начисление 4
    - - -
    ...
}
}

A1 - -> A3
A2 - -> A3

@enduml

PlantUML version 1.2022.13(Sat Nov 19 16:22:17 MSK 2022)
(GPL source distribution)
Java Runtime: OpenJDK Runtime Environment
JVM: OpenJDK 64-Bit Server VM
Default Encoding: UTF-8
Language: ru
Country: RU
--></g></svg>