<?xml version="1.0" encoding="us-ascii" standalone="no"?><svg xmlns="http://www.w3.org/2000/svg" xmlns:xlink="http://www.w3.org/1999/xlink" contentStyleType="text/css" height="176px" preserveAspectRatio="none" style="width:560px;height:176px;background:#FFFFFF;" version="1.1" viewBox="0 0 560 176" width="560px" zoomAndPan="magnify"><defs/><g><!--class HeadEntity--><g id="elem_HeadEntity"><rect codeLine="3" fill="#F1F1F1" height="86.1358" id="HeadEntity" rx="2.5" ry="2.5" style="stroke:#181818;stroke-width:0.5;" width="132" x="7" y="45"/><ellipse cx="34.15" cy="61" fill="#F1F1F1" rx="11" ry="11" style="stroke:#181818;stroke-width:1.0;"/><path d="M33.6344,61.5625 Q31.775,60.8594 31.1188,60.0938 Q30.4781,59.3125 30.4781,58 Q30.4781,56.3125 31.5563,55.3438 Q32.6344,54.375 34.5094,54.375 Q35.3688,54.375 36.2125,54.5781 Q37.0719,54.7656 37.9156,55.1563 L37.9156,57.5469 Q37.1344,56.9844 36.3063,56.7031 Q35.4938,56.4063 34.6969,56.4063 Q33.8219,56.4063 33.3375,56.7656 Q32.8688,57.125 32.8688,57.7813 Q32.8688,58.2969 33.2125,58.6406 Q33.5563,58.9688 34.65,59.375 L35.7125,59.7813 Q37.1969,60.3281 37.9,61.2344 Q38.6188,62.1406 38.6188,63.5156 Q38.6188,65.3906 37.5094,66.3125 Q36.4,67.2344 34.15,67.2344 Q33.2281,67.2344 32.3063,67.0156 Q31.3844,66.7969 30.525,66.375 L30.525,63.8438 Q31.4938,64.5313 32.4156,64.875 Q33.3375,65.2188 34.2281,65.2188 Q35.1344,65.2188 35.6344,64.8125 Q36.1344,64.3906 36.1344,63.6563 Q36.1344,63.0938 35.7906,62.6875 Q35.4625,62.2656 34.8375,62.0156 L33.6344,61.5625 Z " fill="#000000"/><text fill="#000000" font-family="sans-serif" font-size="14" lengthAdjust="spacing" textLength="73" x="50.85" y="66.432">HeadEntity</text><line style="stroke:#181818;stroke-width:0.5;" x1="8" x2="138" y1="77" y2="77"/><ellipse cx="18" cy="92.034" fill="none" rx="3" ry="3" style="stroke:#038048;stroke-width:1.0;"/><text fill="#000000" font-family="sans-serif" font-size="14" lengthAdjust="spacing" textLength="90" x="27" y="95.9659">name : string</text><ellipse cx="18" cy="111.1019" fill="none" rx="3" ry="3" style="stroke:#038048;stroke-width:1.0;"/><text fill="#000000" font-family="sans-serif" font-size="14" lengthAdjust="spacing" textLength="106" x="27" y="115.0339">entities: Entity[]</text><line style="stroke:#181818;stroke-width:0.5;" x1="8" x2="138" y1="123.1358" y2="123.1358"/></g><!--class Entity--><g id="elem_Entity"><rect codeLine="8" fill="#F1F1F1" height="162.4075" id="Entity" rx="2.5" ry="2.5" style="stroke:#181818;stroke-width:0.5;" width="140" x="220" y="7"/><ellipse cx="266.75" cy="23" fill="#F1F1F1" rx="11" ry="11" style="stroke:#181818;stroke-width:1.0;"/><path d="M266.2344,23.5625 Q264.375,22.8594 263.7188,22.0938 Q263.0781,21.3125 263.0781,20 Q263.0781,18.3125 264.1563,17.3438 Q265.2344,16.375 267.1094,16.375 Q267.9688,16.375 268.8125,16.5781 Q269.6719,16.7656 270.5156,17.1563 L270.5156,19.5469 Q269.7344,18.9844 268.9063,18.7031 Q268.0938,18.4063 267.2969,18.4063 Q266.4219,18.4063 265.9375,18.7656 Q265.4688,19.125 265.4688,19.7813 Q265.4688,20.2969 265.8125,20.6406 Q266.1563,20.9688 267.25,21.375 L268.3125,21.7813 Q269.7969,22.3281 270.5,23.2344 Q271.2188,24.1406 271.2188,25.5156 Q271.2188,27.3906 270.1094,28.3125 Q269,29.2344 266.75,29.2344 Q265.8281,29.2344 264.9063,29.0156 Q263.9844,28.7969 263.125,28.375 L263.125,25.8438 Q264.0938,26.5313 265.0156,26.875 Q265.9375,27.2188 266.8281,27.2188 Q267.7344,27.2188 268.2344,26.8125 Q268.7344,26.3906 268.7344,25.6563 Q268.7344,25.0938 268.3906,24.6875 Q268.0625,24.2656 267.4375,24.0156 L266.2344,23.5625 Z " fill="#000000"/><text fill="#000000" font-family="sans-serif" font-size="14" lengthAdjust="spacing" textLength="38" x="287.25" y="28.432">Entity</text><line style="stroke:#181818;stroke-width:0.5;" x1="221" x2="359" y1="39" y2="39"/><ellipse cx="231" cy="54.034" fill="none" rx="3" ry="3" style="stroke:#038048;stroke-width:1.0;"/><text fill="#000000" font-family="sans-serif" font-size="14" lengthAdjust="spacing" textLength="95" x="240" y="57.9659">service: string</text><ellipse cx="231" cy="73.1019" fill="none" rx="3" ry="3" style="stroke:#038048;stroke-width:1.0;"/><text fill="#000000" font-family="sans-serif" font-size="14" lengthAdjust="spacing" textLength="86" x="240" y="77.0339">name: string</text><ellipse cx="231" cy="92.1698" fill="none" rx="3" ry="3" style="stroke:#038048;stroke-width:1.0;"/><text fill="#000000" font-family="sans-serif" font-size="14" lengthAdjust="spacing" textLength="79" x="240" y="96.1018">path: string</text><ellipse cx="231" cy="111.2377" fill="none" rx="3" ry="3" style="stroke:#038048;stroke-width:1.0;"/><text fill="#000000" font-family="sans-serif" font-size="14" lengthAdjust="spacing" textLength="87" x="240" y="115.1697">fields: Field[]</text><ellipse cx="231" cy="130.3056" fill="none" rx="3" ry="3" style="stroke:#038048;stroke-width:1.0;"/><text fill="#000000" font-family="sans-serif" font-size="14" lengthAdjust="spacing" textLength="101" x="240" y="134.2376">queries: Field[]</text><ellipse cx="231" cy="149.3735" fill="none" rx="3" ry="3" style="stroke:#038048;stroke-width:1.0;"/><text fill="#000000" font-family="sans-serif" font-size="14" lengthAdjust="spacing" textLength="114" x="240" y="153.3055">children: string[]</text><line style="stroke:#181818;stroke-width:0.5;" x1="221" x2="359" y1="161.4075" y2="161.4075"/></g><!--class Field--><g id="elem_Field"><rect codeLine="18" fill="#F1F1F1" height="86.1358" id="Field" rx="2.5" ry="2.5" style="stroke:#181818;stroke-width:0.5;" width="112" x="441" y="45"/><ellipse cx="477.6" cy="61" fill="#F1F1F1" rx="11" ry="11" style="stroke:#181818;stroke-width:1.0;"/><path d="M477.0844,61.5625 Q475.225,60.8594 474.5688,60.0938 Q473.9281,59.3125 473.9281,58 Q473.9281,56.3125 475.0063,55.3438 Q476.0844,54.375 477.9594,54.375 Q478.8188,54.375 479.6625,54.5781 Q480.5219,54.7656 481.3656,55.1563 L481.3656,57.5469 Q480.5844,56.9844 479.7563,56.7031 Q478.9438,56.4063 478.1469,56.4063 Q477.2719,56.4063 476.7875,56.7656 Q476.3188,57.125 476.3188,57.7813 Q476.3188,58.2969 476.6625,58.6406 Q477.0063,58.9688 478.1,59.375 L479.1625,59.7813 Q480.6469,60.3281 481.35,61.2344 Q482.0688,62.1406 482.0688,63.5156 Q482.0688,65.3906 480.9594,66.3125 Q479.85,67.2344 477.6,67.2344 Q476.6781,67.2344 475.7563,67.0156 Q474.8344,66.7969 473.975,66.375 L473.975,63.8438 Q474.9438,64.5313 475.8656,64.875 Q476.7875,65.2188 477.6781,65.2188 Q478.5844,65.2188 479.0844,64.8125 Q479.5844,64.3906 479.5844,63.6563 Q479.5844,63.0938 479.2406,62.6875 Q478.9125,62.2656 478.2875,62.0156 L477.0844,61.5625 Z " fill="#000000"/><text fill="#000000" font-family="sans-serif" font-size="14" lengthAdjust="spacing" textLength="32" x="496.4" y="66.432">Field</text><line style="stroke:#181818;stroke-width:0.5;" x1="442" x2="552" y1="77" y2="77"/><ellipse cx="452" cy="92.034" fill="none" rx="3" ry="3" style="stroke:#038048;stroke-width:1.0;"/><text fill="#000000" font-family="sans-serif" font-size="14" lengthAdjust="spacing" textLength="86" x="461" y="95.9659">name: string</text><ellipse cx="452" cy="111.1019" fill="none" rx="3" ry="3" style="stroke:#038048;stroke-width:1.0;"/><text fill="#000000" font-family="sans-serif" font-size="14" lengthAdjust="spacing" textLength="77" x="461" y="115.0339">type: string</text><line style="stroke:#181818;stroke-width:0.5;" x1="442" x2="552" y1="123.1358" y2="123.1358"/></g><!--link HeadEntity to Entity--><g id="link_HeadEntity_Entity"><path codeLine="25" d="M147.29,88 C172.84,88 176.09,88 201.98,88 " fill="none" id="HeadEntity-Entity" style="stroke:#181818;stroke-width:1.0;"/><line style="stroke:#181818;stroke-width:1.0;" x1="143.29" x2="143.29" y1="92" y2="84"/><line style="stroke:#181818;stroke-width:1.0;" x1="146.29" x2="146.29" y1="92" y2="84"/><line style="stroke:#181818;stroke-width:1.0;" x1="147.29" x2="139.29" y1="88" y2="88"/><line style="stroke:#181818;stroke-width:1.0;" x1="211.98" x2="219.98" y1="88" y2="82"/><line style="stroke:#181818;stroke-width:1.0;" x1="211.98" x2="219.98" y1="88" y2="94"/><line style="stroke:#181818;stroke-width:1.0;" x1="211.98" x2="219.98" y1="88" y2="88"/><ellipse cx="205.98" cy="88" fill="none" rx="4" ry="4" style="stroke:#181818;stroke-width:1.0;"/><text fill="#000000" font-family="sans-serif" font-size="13" lengthAdjust="spacing" textLength="44" x="157.5" y="80.897">entities</text></g><!--link Entity to Field--><g id="link_Entity_Field"><path codeLine="28" d="M367.9482,109.2425 C386.4182,112.3625 398.48,112.5 417,110 C424.71,108.96 415.1988,111.504 423.0588,109.654 " fill="none" id="Entity-Field" style="stroke:#181818;stroke-width:1.0;"/><line style="stroke:#181818;stroke-width:1.0;" x1="363.3379" x2="364.6704" y1="112.5204" y2="104.6321"/><line style="stroke:#181818;stroke-width:1.0;" x1="366.296" x2="367.6285" y1="113.0201" y2="105.1318"/><line style="stroke:#181818;stroke-width:1.0;" x1="367.9482" x2="360.06" y1="109.2425" y2="107.91"/><line style="stroke:#181818;stroke-width:1.0;" x1="432.7928" x2="439.2053" y1="107.3629" y2="99.6896"/><line style="stroke:#181818;stroke-width:1.0;" x1="432.7928" x2="441.9547" y1="107.3629" y2="111.3704"/><line style="stroke:#181818;stroke-width:1.0;" x1="432.7928" x2="440.58" y1="107.3629" y2="105.53"/><ellipse cx="426.9524" cy="108.7375" fill="none" rx="4" ry="4" style="stroke:#181818;stroke-width:1.0;"/><text fill="#000000" font-family="sans-serif" font-size="13" lengthAdjust="spacing" textLength="31" x="385" y="105.897">fields</text></g><!--link Entity to Field--><g id="link_Entity_Field"><path codeLine="29" d="M368.08,88 C394.35,88 397.84,88 422.71,88 " fill="none" id="Entity-Field-1" style="stroke:#181818;stroke-width:1.0;"/><line style="stroke:#181818;stroke-width:1.0;" x1="364.08" x2="364.08" y1="92" y2="84"/><line style="stroke:#181818;stroke-width:1.0;" x1="367.08" x2="367.08" y1="92" y2="84"/><line style="stroke:#181818;stroke-width:1.0;" x1="368.08" x2="360.08" y1="88" y2="88"/><line style="stroke:#181818;stroke-width:1.0;" x1="432.71" x2="440.71" y1="88" y2="82"/><line style="stroke:#181818;stroke-width:1.0;" x1="432.71" x2="440.71" y1="88" y2="94"/><line style="stroke:#181818;stroke-width:1.0;" x1="432.71" x2="440.71" y1="88" y2="88"/><ellipse cx="426.71" cy="88" fill="none" rx="4" ry="4" style="stroke:#181818;stroke-width:1.0;"/><text fill="#000000" font-family="sans-serif" font-size="13" lengthAdjust="spacing" textLength="44" x="378.5" y="80.897">queries</text></g><!--SRC=[RP1D3i8W48NtSuhPcrw0lSOx61U4ZfQaOeMfITFsxl9hBP4DoUERz-RXs8wAyKooFHhMFE4CwCy1ZNmG2dHijRbdZGAYoGbCyEKAAu1B7jMy8_lMYYg7u5f9W-IkacwQ-jQddCBjGvBw6id6yBsiEjstbapnI4kLhIAxArLbyJHiKXY4dyzObkOvbsRYszz36s2RmCGSaJV__-eDSWNu0000]--></g></svg>