<?xml version="1.0" encoding="us-ascii" standalone="no"?><svg xmlns="http://www.w3.org/2000/svg" xmlns:xlink="http://www.w3.org/1999/xlink" contentStyleType="text/css" height="497px" preserveAspectRatio="none" style="width:588px;height:497px;background:#FFFFFF;" version="1.1" viewBox="0 0 588 497" width="588px" zoomAndPan="magnify"><defs/><g><!--cluster ?????????????--><g id="cluster_&#1055;&#1088;&#1077;&#1076;&#1086;&#1073;&#1088;&#1072;&#1073;&#1086;&#1090;&#1082;&#1072;"><path d="M8.5,6.602 L123.5,6.602 A3.75,3.75 0 0 1 126,9.102 L133,31.6699 L272.5,31.6699 A2.5,2.5 0 0 1 275,34.1699 L275,192.102 A2.5,2.5 0 0 1 272.5,194.602 L8.5,194.602 A2.5,2.5 0 0 1 6,192.102 L6,9.102 A2.5,2.5 0 0 1 8.5,6.602 " fill="none" style="stroke:#000000;stroke-width:1.5;"/><line style="stroke:#000000;stroke-width:1.5;" x1="6" x2="133" y1="31.6699" y2="31.6699"/><text fill="#000000" font-family="sans-serif" font-size="14" font-weight="bold" lengthAdjust="spacing" textLength="114" x="10" y="23.5679">&#1055;&#1088;&#1077;&#1076;&#1086;&#1073;&#1088;&#1072;&#1073;&#1086;&#1090;&#1082;&#1072;</text></g><!--cluster ???????? ??????--><g id="cluster_&#1054;&#1089;&#1085;&#1086;&#1074;&#1085;&#1086;&#1081; &#1089;&#1077;&#1088;&#1074;&#1080;&#1089;"><path d="M17.5,218.602 L145.5,218.602 A3.75,3.75 0 0 1 148,221.102 L155,243.6699 L578.5,243.6699 A2.5,2.5 0 0 1 581,246.1699 L581,488.102 A2.5,2.5 0 0 1 578.5,490.602 L17.5,490.602 A2.5,2.5 0 0 1 15,488.102 L15,221.102 A2.5,2.5 0 0 1 17.5,218.602 " fill="none" style="stroke:#000000;stroke-width:1.5;"/><line style="stroke:#000000;stroke-width:1.5;" x1="15" x2="155" y1="243.6699" y2="243.6699"/><text fill="#000000" font-family="sans-serif" font-size="14" font-weight="bold" lengthAdjust="spacing" textLength="127" x="19" y="235.5679">&#1054;&#1089;&#1085;&#1086;&#1074;&#1085;&#1086;&#1081; &#1089;&#1077;&#1088;&#1074;&#1080;&#1089;</text></g><!--entity ????????? ????? ?????????--><g id="elem_&#1043;&#1077;&#1085;&#1077;&#1088;&#1072;&#1090;&#1086;&#1088; &#1075;&#1088;&#1072;&#1092;&#1072; &#1089;&#1091;&#1097;&#1085;&#1086;&#1089;&#1090;&#1077;&#1081;"><rect fill="#F1F1F1" height="49.0679" rx="2.5" ry="2.5" style="stroke:#181818;stroke-width:0.5;" width="237" x="22" y="45.102"/><rect fill="#F1F1F1" height="10" style="stroke:#181818;stroke-width:0.5;" width="15" x="239" y="50.102"/><rect fill="#F1F1F1" height="2" style="stroke:#181818;stroke-width:0.5;" width="4" x="237" y="52.102"/><rect fill="#F1F1F1" height="2" style="stroke:#181818;stroke-width:0.5;" width="4" x="237" y="56.102"/><text fill="#000000" font-family="sans-serif" font-size="14" lengthAdjust="spacing" textLength="197" x="37" y="80.0679">&#1043;&#1077;&#1085;&#1077;&#1088;&#1072;&#1090;&#1086;&#1088; &#1075;&#1088;&#1072;&#1092;&#1072; &#1089;&#1091;&#1097;&#1085;&#1086;&#1089;&#1090;&#1077;&#1081;</text></g><!--entity ?????? OpenAPI--><g id="elem_&#1055;&#1072;&#1088;&#1089;&#1077;&#1088; OpenAPI"><rect fill="#F1F1F1" height="49.0679" rx="2.5" ry="2.5" style="stroke:#181818;stroke-width:0.5;" width="154" x="63.5" y="129.102"/><rect fill="#F1F1F1" height="10" style="stroke:#181818;stroke-width:0.5;" width="15" x="197.5" y="134.102"/><rect fill="#F1F1F1" height="2" style="stroke:#181818;stroke-width:0.5;" width="4" x="195.5" y="136.102"/><rect fill="#F1F1F1" height="2" style="stroke:#181818;stroke-width:0.5;" width="4" x="195.5" y="140.102"/><text fill="#000000" font-family="sans-serif" font-size="14" lengthAdjust="spacing" textLength="114" x="78.5" y="164.0679">&#1055;&#1072;&#1088;&#1089;&#1077;&#1088; OpenAPI</text></g><!--entity ?????? ????? ?????????--><g id="elem_&#1055;&#1072;&#1088;&#1089;&#1077;&#1088; &#1075;&#1088;&#1072;&#1092;&#1072; &#1089;&#1091;&#1097;&#1085;&#1086;&#1089;&#1090;&#1077;&#1081;"><rect fill="#F1F1F1" height="49.0679" rx="2.5" ry="2.5" style="stroke:#181818;stroke-width:0.5;" width="215" x="33" y="425.102"/><rect fill="#F1F1F1" height="10" style="stroke:#181818;stroke-width:0.5;" width="15" x="228" y="430.102"/><rect fill="#F1F1F1" height="2" style="stroke:#181818;stroke-width:0.5;" width="4" x="226" y="432.102"/><rect fill="#F1F1F1" height="2" style="stroke:#181818;stroke-width:0.5;" width="4" x="226" y="436.102"/><text fill="#000000" font-family="sans-serif" font-size="14" lengthAdjust="spacing" textLength="175" x="48" y="460.0679">&#1055;&#1072;&#1088;&#1089;&#1077;&#1088; &#1075;&#1088;&#1072;&#1092;&#1072; &#1089;&#1091;&#1097;&#1085;&#1086;&#1089;&#1090;&#1077;&#1081;</text></g><!--entity ????????? ????? Graphql--><g id="elem_&#1043;&#1077;&#1085;&#1077;&#1088;&#1072;&#1090;&#1086;&#1088; &#1089;&#1093;&#1077;&#1084;&#1099; Graphql"><rect fill="#F1F1F1" height="49.0679" rx="2.5" ry="2.5" style="stroke:#181818;stroke-width:0.5;" width="219" x="31" y="341.102"/><rect fill="#F1F1F1" height="10" style="stroke:#181818;stroke-width:0.5;" width="15" x="230" y="346.102"/><rect fill="#F1F1F1" height="2" style="stroke:#181818;stroke-width:0.5;" width="4" x="228" y="348.102"/><rect fill="#F1F1F1" height="2" style="stroke:#181818;stroke-width:0.5;" width="4" x="228" y="352.102"/><text fill="#000000" font-family="sans-serif" font-size="14" lengthAdjust="spacing" textLength="179" x="46" y="376.0679">&#1043;&#1077;&#1085;&#1077;&#1088;&#1072;&#1090;&#1086;&#1088; &#1089;&#1093;&#1077;&#1084;&#1099; Graphql</text></g><!--entity ?????? ????????--><g id="elem_&#1055;&#1072;&#1088;&#1089;&#1077;&#1088; &#1079;&#1072;&#1087;&#1088;&#1086;&#1089;&#1086;&#1074;"><rect fill="#F1F1F1" height="49.0679" rx="2.5" ry="2.5" style="stroke:#181818;stroke-width:0.5;" width="159" x="61" y="257.102"/><rect fill="#F1F1F1" height="10" style="stroke:#181818;stroke-width:0.5;" width="15" x="200" y="262.102"/><rect fill="#F1F1F1" height="2" style="stroke:#181818;stroke-width:0.5;" width="4" x="198" y="264.102"/><rect fill="#F1F1F1" height="2" style="stroke:#181818;stroke-width:0.5;" width="4" x="198" y="268.102"/><text fill="#000000" font-family="sans-serif" font-size="14" lengthAdjust="spacing" textLength="119" x="76" y="292.0679">&#1055;&#1072;&#1088;&#1089;&#1077;&#1088; &#1079;&#1072;&#1087;&#1088;&#1086;&#1089;&#1086;&#1074;</text></g><!--entity ??????????? ????? ????????--><g id="elem_&#1050;&#1086;&#1085;&#1089;&#1090;&#1088;&#1091;&#1082;&#1090;&#1086;&#1088; &#1087;&#1083;&#1072;&#1085;&#1072; &#1079;&#1072;&#1087;&#1088;&#1086;&#1089;&#1086;&#1074;"><rect fill="#F1F1F1" height="49.0679" rx="2.5" ry="2.5" style="stroke:#181818;stroke-width:0.5;" width="241" x="321.5" y="425.102"/><rect fill="#F1F1F1" height="10" style="stroke:#181818;stroke-width:0.5;" width="15" x="542.5" y="430.102"/><rect fill="#F1F1F1" height="2" style="stroke:#181818;stroke-width:0.5;" width="4" x="540.5" y="432.102"/><rect fill="#F1F1F1" height="2" style="stroke:#181818;stroke-width:0.5;" width="4" x="540.5" y="436.102"/><text fill="#000000" font-family="sans-serif" font-size="14" lengthAdjust="spacing" textLength="201" x="336.5" y="460.0679">&#1050;&#1086;&#1085;&#1089;&#1090;&#1088;&#1091;&#1082;&#1090;&#1086;&#1088; &#1087;&#1083;&#1072;&#1085;&#1072; &#1079;&#1072;&#1087;&#1088;&#1086;&#1089;&#1086;&#1074;</text></g><!--entity ??????????? ????? ????????--><g id="elem_&#1048;&#1089;&#1087;&#1086;&#1083;&#1085;&#1080;&#1090;&#1077;&#1083;&#1100; &#1087;&#1083;&#1072;&#1085;&#1072; &#1079;&#1072;&#1087;&#1088;&#1086;&#1089;&#1086;&#1074;"><rect fill="#F1F1F1" height="49.0679" rx="2.5" ry="2.5" style="stroke:#181818;stroke-width:0.5;" width="246" x="319" y="341.102"/><rect fill="#F1F1F1" height="10" style="stroke:#181818;stroke-width:0.5;" width="15" x="545" y="346.102"/><rect fill="#F1F1F1" height="2" style="stroke:#181818;stroke-width:0.5;" width="4" x="543" y="348.102"/><rect fill="#F1F1F1" height="2" style="stroke:#181818;stroke-width:0.5;" width="4" x="543" y="352.102"/><text fill="#000000" font-family="sans-serif" font-size="14" lengthAdjust="spacing" textLength="206" x="334" y="376.0679">&#1048;&#1089;&#1087;&#1086;&#1083;&#1085;&#1080;&#1090;&#1077;&#1083;&#1100; &#1087;&#1083;&#1072;&#1085;&#1072; &#1079;&#1072;&#1087;&#1088;&#1086;&#1089;&#1086;&#1074;</text></g><!--SRC=[bP0nRi9044NxFSN8Dw6AgE0AbhCOAyPshEqGacr84OKkJKG1Lp19K037zXLcRiItKIG24eXcDVld_Tc_u-k18HDIxBb3GuzUh1tZXO5IaUqysQucYrUIy8Q_kU8rgfpNN4d6Uyuj6YlbXACe37HWGBw3AtdJK20gIOY_sikCSv9KflAAVeKg0xcp_hjN01D96p_r8Xrq-bqGazCeIxGnW3_RSqT76jUjf1TfJkVTa-Fo5m1V8FxA6pt4TZHyzgz4vn_ig8ORyvkeP-W2Mjcy3CEKztzxghc0hKI-6_uFg3Nq0l2spL_8_8P_eWu0]--></g></svg>