<?xml version="1.0" encoding="utf-8" standalone="no"?>
<!DOCTYPE svg PUBLIC "-//W3C//DTD SVG 1.1//EN"
  "http://www.w3.org/Graphics/SVG/1.1/DTD/svg11.dtd">
<svg xmlns:xlink="http://www.w3.org/1999/xlink" width="720pt" height="432pt" viewBox="0 0 720 432" xmlns="http://www.w3.org/2000/svg" version="1.1">
 <metadata>
  <rdf:RDF xmlns:dc="http://purl.org/dc/elements/1.1/" xmlns:cc="http://creativecommons.org/ns#" xmlns:rdf="http://www.w3.org/1999/02/22-rdf-syntax-ns#">
   <cc:Work>
    <dc:type rdf:resource="http://purl.org/dc/dcmitype/StillImage"/>
    <dc:date>2024-11-20T10:46:03.317459</dc:date>
    <dc:format>image/svg+xml</dc:format>
    <dc:creator>
     <cc:Agent>
      <dc:title>Matplotlib v3.9.2, https://matplotlib.org/</dc:title>
     </cc:Agent>
    </dc:creator>
   </cc:Work>
  </rdf:RDF>
 </metadata>
 <defs>
  <style type="text/css">*{stroke-linejoin: round; stroke-linecap: butt}</style>
 </defs>
 <g id="figure_1">
  <g id="patch_1">
   <path d="M 0 432 
L 720 432 
L 720 0 
L 0 0 
z
" style="fill: #ffffff"/>
  </g>
  <g id="axes_1">
   <g id="patch_2">
    <path d="M 90 384.48 
L 648 384.48 
L 648 51.84 
L 90 51.84 
z
" style="fill: #ffffff"/>
   </g>
   <g id="matplotlib.axis_1">
    <g id="xtick_1">
     <g id="line2d_1">
      <defs>
       <path id="mdb0e441f04" d="M 0 0 
L 0 3.5 
" style="stroke: #000000; stroke-width: 0.8"/>
      </defs>
      <g>
       <use xlink:href="#mdb0e441f04" x="155.411483" y="384.48" style="stroke: #000000; stroke-width: 0.8"/>
      </g>
     </g>
     <g id="text_1">
      <!-- 250 -->
      <g transform="translate(145.867733 399.078438) scale(0.1 -0.1)">
       <defs>
        <path id="DejaVuSans-32" d="M 1228 531 
L 3431 531 
L 3431 0 
L 469 0 
L 469 531 
Q 828 903 1448 1529 
Q 2069 2156 2228 2338 
Q 2531 2678 2651 2914 
Q 2772 3150 2772 3378 
Q 2772 3750 2511 3984 
Q 2250 4219 1831 4219 
Q 1534 4219 1204 4116 
Q 875 4013 500 3803 
L 500 4441 
Q 881 4594 1212 4672 
Q 1544 4750 1819 4750 
Q 2544 4750 2975 4387 
Q 3406 4025 3406 3419 
Q 3406 3131 3298 2873 
Q 3191 2616 2906 2266 
Q 2828 2175 2409 1742 
Q 1991 1309 1228 531 
z
" transform="scale(0.015625)"/>
        <path id="DejaVuSans-35" d="M 691 4666 
L 3169 4666 
L 3169 4134 
L 1269 4134 
L 1269 2991 
Q 1406 3038 1543 3061 
Q 1681 3084 1819 3084 
Q 2600 3084 3056 2656 
Q 3513 2228 3513 1497 
Q 3513 744 3044 326 
Q 2575 -91 1722 -91 
Q 1428 -91 1123 -41 
Q 819 9 494 109 
L 494 744 
Q 775 591 1075 516 
Q 1375 441 1709 441 
Q 2250 441 2565 725 
Q 2881 1009 2881 1497 
Q 2881 1984 2565 2268 
Q 2250 2553 1709 2553 
Q 1456 2553 1204 2497 
Q 953 2441 691 2322 
L 691 4666 
z
" transform="scale(0.015625)"/>
        <path id="DejaVuSans-30" d="M 2034 4250 
Q 1547 4250 1301 3770 
Q 1056 3291 1056 2328 
Q 1056 1369 1301 889 
Q 1547 409 2034 409 
Q 2525 409 2770 889 
Q 3016 1369 3016 2328 
Q 3016 3291 2770 3770 
Q 2525 4250 2034 4250 
z
M 2034 4750 
Q 2819 4750 3233 4129 
Q 3647 3509 3647 2328 
Q 3647 1150 3233 529 
Q 2819 -91 2034 -91 
Q 1250 -91 836 529 
Q 422 1150 422 2328 
Q 422 3509 836 4129 
Q 1250 4750 2034 4750 
z
" transform="scale(0.015625)"/>
       </defs>
       <use xlink:href="#DejaVuSans-32"/>
       <use xlink:href="#DejaVuSans-35" x="63.623047"/>
       <use xlink:href="#DejaVuSans-30" x="127.246094"/>
      </g>
     </g>
    </g>
    <g id="xtick_2">
     <g id="line2d_2">
      <g>
       <use xlink:href="#mdb0e441f04" x="222.157895" y="384.48" style="stroke: #000000; stroke-width: 0.8"/>
      </g>
     </g>
     <g id="text_2">
      <!-- 500 -->
      <g transform="translate(212.614145 399.078438) scale(0.1 -0.1)">
       <use xlink:href="#DejaVuSans-35"/>
       <use xlink:href="#DejaVuSans-30" x="63.623047"/>
       <use xlink:href="#DejaVuSans-30" x="127.246094"/>
      </g>
     </g>
    </g>
    <g id="xtick_3">
     <g id="line2d_3">
      <g>
       <use xlink:href="#mdb0e441f04" x="288.904306" y="384.48" style="stroke: #000000; stroke-width: 0.8"/>
      </g>
     </g>
     <g id="text_3">
      <!-- 750 -->
      <g transform="translate(279.360556 399.078438) scale(0.1 -0.1)">
       <defs>
        <path id="DejaVuSans-37" d="M 525 4666 
L 3525 4666 
L 3525 4397 
L 1831 0 
L 1172 0 
L 2766 4134 
L 525 4134 
L 525 4666 
z
" transform="scale(0.015625)"/>
       </defs>
       <use xlink:href="#DejaVuSans-37"/>
       <use xlink:href="#DejaVuSans-35" x="63.623047"/>
       <use xlink:href="#DejaVuSans-30" x="127.246094"/>
      </g>
     </g>
    </g>
    <g id="xtick_4">
     <g id="line2d_4">
      <g>
       <use xlink:href="#mdb0e441f04" x="355.650718" y="384.48" style="stroke: #000000; stroke-width: 0.8"/>
      </g>
     </g>
     <g id="text_4">
      <!-- 1000 -->
      <g transform="translate(342.925718 399.078438) scale(0.1 -0.1)">
       <defs>
        <path id="DejaVuSans-31" d="M 794 531 
L 1825 531 
L 1825 4091 
L 703 3866 
L 703 4441 
L 1819 4666 
L 2450 4666 
L 2450 531 
L 3481 531 
L 3481 0 
L 794 0 
L 794 531 
z
" transform="scale(0.015625)"/>
       </defs>
       <use xlink:href="#DejaVuSans-31"/>
       <use xlink:href="#DejaVuSans-30" x="63.623047"/>
       <use xlink:href="#DejaVuSans-30" x="127.246094"/>
       <use xlink:href="#DejaVuSans-30" x="190.869141"/>
      </g>
     </g>
    </g>
    <g id="xtick_5">
     <g id="line2d_5">
      <g>
       <use xlink:href="#mdb0e441f04" x="422.397129" y="384.48" style="stroke: #000000; stroke-width: 0.8"/>
      </g>
     </g>
     <g id="text_5">
      <!-- 1250 -->
      <g transform="translate(409.672129 399.078438) scale(0.1 -0.1)">
       <use xlink:href="#DejaVuSans-31"/>
       <use xlink:href="#DejaVuSans-32" x="63.623047"/>
       <use xlink:href="#DejaVuSans-35" x="127.246094"/>
       <use xlink:href="#DejaVuSans-30" x="190.869141"/>
      </g>
     </g>
    </g>
    <g id="xtick_6">
     <g id="line2d_6">
      <g>
       <use xlink:href="#mdb0e441f04" x="489.143541" y="384.48" style="stroke: #000000; stroke-width: 0.8"/>
      </g>
     </g>
     <g id="text_6">
      <!-- 1500 -->
      <g transform="translate(476.418541 399.078438) scale(0.1 -0.1)">
       <use xlink:href="#DejaVuSans-31"/>
       <use xlink:href="#DejaVuSans-35" x="63.623047"/>
       <use xlink:href="#DejaVuSans-30" x="127.246094"/>
       <use xlink:href="#DejaVuSans-30" x="190.869141"/>
      </g>
     </g>
    </g>
    <g id="xtick_7">
     <g id="line2d_7">
      <g>
       <use xlink:href="#mdb0e441f04" x="555.889952" y="384.48" style="stroke: #000000; stroke-width: 0.8"/>
      </g>
     </g>
     <g id="text_7">
      <!-- 1750 -->
      <g transform="translate(543.164952 399.078438) scale(0.1 -0.1)">
       <use xlink:href="#DejaVuSans-31"/>
       <use xlink:href="#DejaVuSans-37" x="63.623047"/>
       <use xlink:href="#DejaVuSans-35" x="127.246094"/>
       <use xlink:href="#DejaVuSans-30" x="190.869141"/>
      </g>
     </g>
    </g>
    <g id="xtick_8">
     <g id="line2d_8">
      <g>
       <use xlink:href="#mdb0e441f04" x="622.636364" y="384.48" style="stroke: #000000; stroke-width: 0.8"/>
      </g>
     </g>
     <g id="text_8">
      <!-- 2000 -->
      <g transform="translate(609.911364 399.078438) scale(0.1 -0.1)">
       <use xlink:href="#DejaVuSans-32"/>
       <use xlink:href="#DejaVuSans-30" x="63.623047"/>
       <use xlink:href="#DejaVuSans-30" x="127.246094"/>
       <use xlink:href="#DejaVuSans-30" x="190.869141"/>
      </g>
     </g>
    </g>
    <g id="text_9">
     <!-- Size -->
     <g transform="translate(358.735937 412.756563) scale(0.1 -0.1)">
      <defs>
       <path id="DejaVuSans-53" d="M 3425 4513 
L 3425 3897 
Q 3066 4069 2747 4153 
Q 2428 4238 2131 4238 
Q 1616 4238 1336 4038 
Q 1056 3838 1056 3469 
Q 1056 3159 1242 3001 
Q 1428 2844 1947 2747 
L 2328 2669 
Q 3034 2534 3370 2195 
Q 3706 1856 3706 1288 
Q 3706 609 3251 259 
Q 2797 -91 1919 -91 
Q 1588 -91 1214 -16 
Q 841 59 441 206 
L 441 856 
Q 825 641 1194 531 
Q 1563 422 1919 422 
Q 2459 422 2753 634 
Q 3047 847 3047 1241 
Q 3047 1584 2836 1778 
Q 2625 1972 2144 2069 
L 1759 2144 
Q 1053 2284 737 2584 
Q 422 2884 422 3419 
Q 422 4038 858 4394 
Q 1294 4750 2059 4750 
Q 2388 4750 2728 4690 
Q 3069 4631 3425 4513 
z
" transform="scale(0.015625)"/>
       <path id="DejaVuSans-69" d="M 603 3500 
L 1178 3500 
L 1178 0 
L 603 0 
L 603 3500 
z
M 603 4863 
L 1178 4863 
L 1178 4134 
L 603 4134 
L 603 4863 
z
" transform="scale(0.015625)"/>
       <path id="DejaVuSans-7a" d="M 353 3500 
L 3084 3500 
L 3084 2975 
L 922 459 
L 3084 459 
L 3084 0 
L 275 0 
L 275 525 
L 2438 3041 
L 353 3041 
L 353 3500 
z
" transform="scale(0.015625)"/>
       <path id="DejaVuSans-65" d="M 3597 1894 
L 3597 1613 
L 953 1613 
Q 991 1019 1311 708 
Q 1631 397 2203 397 
Q 2534 397 2845 478 
Q 3156 559 3463 722 
L 3463 178 
Q 3153 47 2828 -22 
Q 2503 -91 2169 -91 
Q 1331 -91 842 396 
Q 353 884 353 1716 
Q 353 2575 817 3079 
Q 1281 3584 2069 3584 
Q 2775 3584 3186 3129 
Q 3597 2675 3597 1894 
z
M 3022 2063 
Q 3016 2534 2758 2815 
Q 2500 3097 2075 3097 
Q 1594 3097 1305 2825 
Q 1016 2553 972 2059 
L 3022 2063 
z
" transform="scale(0.015625)"/>
      </defs>
      <use xlink:href="#DejaVuSans-53"/>
      <use xlink:href="#DejaVuSans-69" x="63.476562"/>
      <use xlink:href="#DejaVuSans-7a" x="91.259766"/>
      <use xlink:href="#DejaVuSans-65" x="143.75"/>
     </g>
    </g>
   </g>
   <g id="matplotlib.axis_2">
    <g id="ytick_1">
     <g id="line2d_9">
      <defs>
       <path id="m3de5d94ba9" d="M 0 0 
L -3.5 0 
" style="stroke: #000000; stroke-width: 0.8"/>
      </defs>
      <g>
       <use xlink:href="#m3de5d94ba9" x="90" y="369.399205" style="stroke: #000000; stroke-width: 0.8"/>
      </g>
     </g>
     <g id="text_10">
      <!-- 0 -->
      <g transform="translate(76.6375 373.198424) scale(0.1 -0.1)">
       <use xlink:href="#DejaVuSans-30"/>
      </g>
     </g>
    </g>
    <g id="ytick_2">
     <g id="line2d_10">
      <g>
       <use xlink:href="#m3de5d94ba9" x="90" y="308.083169" style="stroke: #000000; stroke-width: 0.8"/>
      </g>
     </g>
     <g id="text_11">
      <!-- 10 -->
      <g transform="translate(70.275 311.882387) scale(0.1 -0.1)">
       <use xlink:href="#DejaVuSans-31"/>
       <use xlink:href="#DejaVuSans-30" x="63.623047"/>
      </g>
     </g>
    </g>
    <g id="ytick_3">
     <g id="line2d_11">
      <g>
       <use xlink:href="#m3de5d94ba9" x="90" y="246.767132" style="stroke: #000000; stroke-width: 0.8"/>
      </g>
     </g>
     <g id="text_12">
      <!-- 20 -->
      <g transform="translate(70.275 250.566351) scale(0.1 -0.1)">
       <use xlink:href="#DejaVuSans-32"/>
       <use xlink:href="#DejaVuSans-30" x="63.623047"/>
      </g>
     </g>
    </g>
    <g id="ytick_4">
     <g id="line2d_12">
      <g>
       <use xlink:href="#m3de5d94ba9" x="90" y="185.451095" style="stroke: #000000; stroke-width: 0.8"/>
      </g>
     </g>
     <g id="text_13">
      <!-- 30 -->
      <g transform="translate(70.275 189.250314) scale(0.1 -0.1)">
       <defs>
        <path id="DejaVuSans-33" d="M 2597 2516 
Q 3050 2419 3304 2112 
Q 3559 1806 3559 1356 
Q 3559 666 3084 287 
Q 2609 -91 1734 -91 
Q 1441 -91 1130 -33 
Q 819 25 488 141 
L 488 750 
Q 750 597 1062 519 
Q 1375 441 1716 441 
Q 2309 441 2620 675 
Q 2931 909 2931 1356 
Q 2931 1769 2642 2001 
Q 2353 2234 1838 2234 
L 1294 2234 
L 1294 2753 
L 1863 2753 
Q 2328 2753 2575 2939 
Q 2822 3125 2822 3475 
Q 2822 3834 2567 4026 
Q 2313 4219 1838 4219 
Q 1578 4219 1281 4162 
Q 984 4106 628 3988 
L 628 4550 
Q 988 4650 1302 4700 
Q 1616 4750 1894 4750 
Q 2613 4750 3031 4423 
Q 3450 4097 3450 3541 
Q 3450 3153 3228 2886 
Q 3006 2619 2597 2516 
z
" transform="scale(0.015625)"/>
       </defs>
       <use xlink:href="#DejaVuSans-33"/>
       <use xlink:href="#DejaVuSans-30" x="63.623047"/>
      </g>
     </g>
    </g>
    <g id="ytick_5">
     <g id="line2d_13">
      <g>
       <use xlink:href="#m3de5d94ba9" x="90" y="124.135058" style="stroke: #000000; stroke-width: 0.8"/>
      </g>
     </g>
     <g id="text_14">
      <!-- 40 -->
      <g transform="translate(70.275 127.934277) scale(0.1 -0.1)">
       <defs>
        <path id="DejaVuSans-34" d="M 2419 4116 
L 825 1625 
L 2419 1625 
L 2419 4116 
z
M 2253 4666 
L 3047 4666 
L 3047 1625 
L 3713 1625 
L 3713 1100 
L 3047 1100 
L 3047 0 
L 2419 0 
L 2419 1100 
L 313 1100 
L 313 1709 
L 2253 4666 
z
" transform="scale(0.015625)"/>
       </defs>
       <use xlink:href="#DejaVuSans-34"/>
       <use xlink:href="#DejaVuSans-30" x="63.623047"/>
      </g>
     </g>
    </g>
    <g id="ytick_6">
     <g id="line2d_14">
      <g>
       <use xlink:href="#m3de5d94ba9" x="90" y="62.819021" style="stroke: #000000; stroke-width: 0.8"/>
      </g>
     </g>
     <g id="text_15">
      <!-- 50 -->
      <g transform="translate(70.275 66.61824) scale(0.1 -0.1)">
       <use xlink:href="#DejaVuSans-35"/>
       <use xlink:href="#DejaVuSans-30" x="63.623047"/>
      </g>
     </g>
    </g>
    <g id="text_16">
     <!-- Time -->
     <g transform="translate(64.195312 230.393594) rotate(-90) scale(0.1 -0.1)">
      <defs>
       <path id="DejaVuSans-54" d="M -19 4666 
L 3928 4666 
L 3928 4134 
L 2272 4134 
L 2272 0 
L 1638 0 
L 1638 4134 
L -19 4134 
L -19 4666 
z
" transform="scale(0.015625)"/>
       <path id="DejaVuSans-6d" d="M 3328 2828 
Q 3544 3216 3844 3400 
Q 4144 3584 4550 3584 
Q 5097 3584 5394 3201 
Q 5691 2819 5691 2113 
L 5691 0 
L 5113 0 
L 5113 2094 
Q 5113 2597 4934 2840 
Q 4756 3084 4391 3084 
Q 3944 3084 3684 2787 
Q 3425 2491 3425 1978 
L 3425 0 
L 2847 0 
L 2847 2094 
Q 2847 2600 2669 2842 
Q 2491 3084 2119 3084 
Q 1678 3084 1418 2786 
Q 1159 2488 1159 1978 
L 1159 0 
L 581 0 
L 581 3500 
L 1159 3500 
L 1159 2956 
Q 1356 3278 1631 3431 
Q 1906 3584 2284 3584 
Q 2666 3584 2933 3390 
Q 3200 3197 3328 2828 
z
" transform="scale(0.015625)"/>
      </defs>
      <use xlink:href="#DejaVuSans-54"/>
      <use xlink:href="#DejaVuSans-69" x="57.958984"/>
      <use xlink:href="#DejaVuSans-6d" x="85.742188"/>
      <use xlink:href="#DejaVuSans-65" x="183.154297"/>
     </g>
    </g>
   </g>
   <g id="line2d_15">
    <path d="M 115.363636 369.36 
L 142.062201 369.09872 
L 195.45933 367.063537 
L 248.856459 361.530102 
L 302.253589 350.912935 
L 355.650718 333.33784 
L 409.047847 304.911394 
L 462.444976 266.794636 
L 515.842105 213.636041 
L 569.239234 149.801914 
L 622.636364 66.96 
" clip-path="url(#pd4914120b8)" style="fill: none; stroke: #1f77b4; stroke-width: 1.5; stroke-linecap: square"/>
    <defs>
     <path id="m16c789701e" d="M 0 3 
C 0.795609 3 1.55874 2.683901 2.12132 2.12132 
C 2.683901 1.55874 3 0.795609 3 0 
C 3 -0.795609 2.683901 -1.55874 2.12132 -2.12132 
C 1.55874 -2.683901 0.795609 -3 0 -3 
C -0.795609 -3 -1.55874 -2.683901 -2.12132 -2.12132 
C -2.683901 -1.55874 -3 -0.795609 -3 0 
C -3 0.795609 -2.683901 1.55874 -2.12132 2.12132 
C -1.55874 2.683901 -0.795609 3 0 3 
z
" style="stroke: #1f77b4"/>
    </defs>
    <g clip-path="url(#pd4914120b8)">
     <use xlink:href="#m16c789701e" x="115.363636" y="369.36" style="fill: #1f77b4; stroke: #1f77b4"/>
     <use xlink:href="#m16c789701e" x="142.062201" y="369.09872" style="fill: #1f77b4; stroke: #1f77b4"/>
     <use xlink:href="#m16c789701e" x="195.45933" y="367.063537" style="fill: #1f77b4; stroke: #1f77b4"/>
     <use xlink:href="#m16c789701e" x="248.856459" y="361.530102" style="fill: #1f77b4; stroke: #1f77b4"/>
     <use xlink:href="#m16c789701e" x="302.253589" y="350.912935" style="fill: #1f77b4; stroke: #1f77b4"/>
     <use xlink:href="#m16c789701e" x="355.650718" y="333.33784" style="fill: #1f77b4; stroke: #1f77b4"/>
     <use xlink:href="#m16c789701e" x="409.047847" y="304.911394" style="fill: #1f77b4; stroke: #1f77b4"/>
     <use xlink:href="#m16c789701e" x="462.444976" y="266.794636" style="fill: #1f77b4; stroke: #1f77b4"/>
     <use xlink:href="#m16c789701e" x="515.842105" y="213.636041" style="fill: #1f77b4; stroke: #1f77b4"/>
     <use xlink:href="#m16c789701e" x="569.239234" y="149.801914" style="fill: #1f77b4; stroke: #1f77b4"/>
     <use xlink:href="#m16c789701e" x="622.636364" y="66.96" style="fill: #1f77b4; stroke: #1f77b4"/>
    </g>
   </g>
   <g id="line2d_16">
    <path d="M 115.363636 369.257063 
L 142.062201 368.980503 
L 195.45933 367.581902 
L 248.856459 364.439449 
L 302.253589 352.113871 
L 355.650718 348.823843 
L 409.047847 334.741321 
L 462.444976 313.715752 
L 515.842105 286.23957 
L 569.239234 250.311076 
L 622.636364 206.552329 
" clip-path="url(#pd4914120b8)" style="fill: none; stroke: #ff7f0e; stroke-width: 1.5; stroke-linecap: square"/>
    <defs>
     <path id="mce330623ca" d="M 0 3 
C 0.795609 3 1.55874 2.683901 2.12132 2.12132 
C 2.683901 1.55874 3 0.795609 3 0 
C 3 -0.795609 2.683901 -1.55874 2.12132 -2.12132 
C 1.55874 -2.683901 0.795609 -3 0 -3 
C -0.795609 -3 -1.55874 -2.683901 -2.12132 -2.12132 
C -2.683901 -1.55874 -3 -0.795609 -3 0 
C -3 0.795609 -2.683901 1.55874 -2.12132 2.12132 
C -1.55874 2.683901 -0.795609 3 0 3 
z
" style="stroke: #ff7f0e"/>
    </defs>
    <g clip-path="url(#pd4914120b8)">
     <use xlink:href="#mce330623ca" x="115.363636" y="369.257063" style="fill: #ff7f0e; stroke: #ff7f0e"/>
     <use xlink:href="#mce330623ca" x="142.062201" y="368.980503" style="fill: #ff7f0e; stroke: #ff7f0e"/>
     <use xlink:href="#mce330623ca" x="195.45933" y="367.581902" style="fill: #ff7f0e; stroke: #ff7f0e"/>
     <use xlink:href="#mce330623ca" x="248.856459" y="364.439449" style="fill: #ff7f0e; stroke: #ff7f0e"/>
     <use xlink:href="#mce330623ca" x="302.253589" y="352.113871" style="fill: #ff7f0e; stroke: #ff7f0e"/>
     <use xlink:href="#mce330623ca" x="355.650718" y="348.823843" style="fill: #ff7f0e; stroke: #ff7f0e"/>
     <use xlink:href="#mce330623ca" x="409.047847" y="334.741321" style="fill: #ff7f0e; stroke: #ff7f0e"/>
     <use xlink:href="#mce330623ca" x="462.444976" y="313.715752" style="fill: #ff7f0e; stroke: #ff7f0e"/>
     <use xlink:href="#mce330623ca" x="515.842105" y="286.23957" style="fill: #ff7f0e; stroke: #ff7f0e"/>
     <use xlink:href="#mce330623ca" x="569.239234" y="250.311076" style="fill: #ff7f0e; stroke: #ff7f0e"/>
     <use xlink:href="#mce330623ca" x="622.636364" y="206.552329" style="fill: #ff7f0e; stroke: #ff7f0e"/>
    </g>
   </g>
   <g id="line2d_17">
    <path d="M 115.363636 369.245971 
L 142.062201 369.005808 
L 195.45933 367.940742 
L 248.856459 365.52746 
L 302.253589 360.943522 
L 355.650718 354.854974 
L 409.047847 345.259867 
L 462.444976 331.772239 
L 515.842105 312.966605 
L 569.239234 288.194184 
L 622.636364 258.560665 
" clip-path="url(#pd4914120b8)" style="fill: none; stroke: #2ca02c; stroke-width: 1.5; stroke-linecap: square"/>
    <defs>
     <path id="m81bfbe29e2" d="M 0 3 
C 0.795609 3 1.55874 2.683901 2.12132 2.12132 
C 2.683901 1.55874 3 0.795609 3 0 
C 3 -0.795609 2.683901 -1.55874 2.12132 -2.12132 
C 1.55874 -2.683901 0.795609 -3 0 -3 
C -0.795609 -3 -1.55874 -2.683901 -2.12132 -2.12132 
C -2.683901 -1.55874 -3 -0.795609 -3 0 
C -3 0.795609 -2.683901 1.55874 -2.12132 2.12132 
C -1.55874 2.683901 -0.795609 3 0 3 
z
" style="stroke: #2ca02c"/>
    </defs>
    <g clip-path="url(#pd4914120b8)">
     <use xlink:href="#m81bfbe29e2" x="115.363636" y="369.245971" style="fill: #2ca02c; stroke: #2ca02c"/>
     <use xlink:href="#m81bfbe29e2" x="142.062201" y="369.005808" style="fill: #2ca02c; stroke: #2ca02c"/>
     <use xlink:href="#m81bfbe29e2" x="195.45933" y="367.940742" style="fill: #2ca02c; stroke: #2ca02c"/>
     <use xlink:href="#m81bfbe29e2" x="248.856459" y="365.52746" style="fill: #2ca02c; stroke: #2ca02c"/>
     <use xlink:href="#m81bfbe29e2" x="302.253589" y="360.943522" style="fill: #2ca02c; stroke: #2ca02c"/>
     <use xlink:href="#m81bfbe29e2" x="355.650718" y="354.854974" style="fill: #2ca02c; stroke: #2ca02c"/>
     <use xlink:href="#m81bfbe29e2" x="409.047847" y="345.259867" style="fill: #2ca02c; stroke: #2ca02c"/>
     <use xlink:href="#m81bfbe29e2" x="462.444976" y="331.772239" style="fill: #2ca02c; stroke: #2ca02c"/>
     <use xlink:href="#m81bfbe29e2" x="515.842105" y="312.966605" style="fill: #2ca02c; stroke: #2ca02c"/>
     <use xlink:href="#m81bfbe29e2" x="569.239234" y="288.194184" style="fill: #2ca02c; stroke: #2ca02c"/>
     <use xlink:href="#m81bfbe29e2" x="622.636364" y="258.560665" style="fill: #2ca02c; stroke: #2ca02c"/>
    </g>
   </g>
   <g id="line2d_18">
    <path d="M 115.363636 369.205042 
L 142.062201 368.910756 
L 195.45933 367.867929 
L 248.856459 365.24589 
L 302.253589 355.607573 
L 355.650718 350.224381 
L 409.047847 344.081182 
L 462.444976 338.21485 
L 515.842105 324.167383 
L 569.239234 300.118724 
L 622.636364 280.949314 
" clip-path="url(#pd4914120b8)" style="fill: none; stroke: #d62728; stroke-width: 1.5; stroke-linecap: square"/>
    <defs>
     <path id="ma08ac661cd" d="M 0 3 
C 0.795609 3 1.55874 2.683901 2.12132 2.12132 
C 2.683901 1.55874 3 0.795609 3 0 
C 3 -0.795609 2.683901 -1.55874 2.12132 -2.12132 
C 1.55874 -2.683901 0.795609 -3 0 -3 
C -0.795609 -3 -1.55874 -2.683901 -2.12132 -2.12132 
C -2.683901 -1.55874 -3 -0.795609 -3 0 
C -3 0.795609 -2.683901 1.55874 -2.12132 2.12132 
C -1.55874 2.683901 -0.795609 3 0 3 
z
" style="stroke: #d62728"/>
    </defs>
    <g clip-path="url(#pd4914120b8)">
     <use xlink:href="#ma08ac661cd" x="115.363636" y="369.205042" style="fill: #d62728; stroke: #d62728"/>
     <use xlink:href="#ma08ac661cd" x="142.062201" y="368.910756" style="fill: #d62728; stroke: #d62728"/>
     <use xlink:href="#ma08ac661cd" x="195.45933" y="367.867929" style="fill: #d62728; stroke: #d62728"/>
     <use xlink:href="#ma08ac661cd" x="248.856459" y="365.24589" style="fill: #d62728; stroke: #d62728"/>
     <use xlink:href="#ma08ac661cd" x="302.253589" y="355.607573" style="fill: #d62728; stroke: #d62728"/>
     <use xlink:href="#ma08ac661cd" x="355.650718" y="350.224381" style="fill: #d62728; stroke: #d62728"/>
     <use xlink:href="#ma08ac661cd" x="409.047847" y="344.081182" style="fill: #d62728; stroke: #d62728"/>
     <use xlink:href="#ma08ac661cd" x="462.444976" y="338.21485" style="fill: #d62728; stroke: #d62728"/>
     <use xlink:href="#ma08ac661cd" x="515.842105" y="324.167383" style="fill: #d62728; stroke: #d62728"/>
     <use xlink:href="#ma08ac661cd" x="569.239234" y="300.118724" style="fill: #d62728; stroke: #d62728"/>
     <use xlink:href="#ma08ac661cd" x="622.636364" y="280.949314" style="fill: #d62728; stroke: #d62728"/>
    </g>
   </g>
   <g id="line2d_19">
    <path d="M 115.363636 369.193098 
L 142.062201 369.006035 
L 195.45933 368.171548 
L 248.856459 365.981284 
L 302.253589 355.618132 
L 355.650718 351.692103 
L 409.047847 344.261856 
L 462.444976 337.163274 
L 515.842105 324.923465 
L 569.239234 307.99702 
L 622.636364 292.747145 
" clip-path="url(#pd4914120b8)" style="fill: none; stroke: #9467bd; stroke-width: 1.5; stroke-linecap: square"/>
    <defs>
     <path id="m8506810c96" d="M 0 3 
C 0.795609 3 1.55874 2.683901 2.12132 2.12132 
C 2.683901 1.55874 3 0.795609 3 0 
C 3 -0.795609 2.683901 -1.55874 2.12132 -2.12132 
C 1.55874 -2.683901 0.795609 -3 0 -3 
C -0.795609 -3 -1.55874 -2.683901 -2.12132 -2.12132 
C -2.683901 -1.55874 -3 -0.795609 -3 0 
C -3 0.795609 -2.683901 1.55874 -2.12132 2.12132 
C -1.55874 2.683901 -0.795609 3 0 3 
z
" style="stroke: #9467bd"/>
    </defs>
    <g clip-path="url(#pd4914120b8)">
     <use xlink:href="#m8506810c96" x="115.363636" y="369.193098" style="fill: #9467bd; stroke: #9467bd"/>
     <use xlink:href="#m8506810c96" x="142.062201" y="369.006035" style="fill: #9467bd; stroke: #9467bd"/>
     <use xlink:href="#m8506810c96" x="195.45933" y="368.171548" style="fill: #9467bd; stroke: #9467bd"/>
     <use xlink:href="#m8506810c96" x="248.856459" y="365.981284" style="fill: #9467bd; stroke: #9467bd"/>
     <use xlink:href="#m8506810c96" x="302.253589" y="355.618132" style="fill: #9467bd; stroke: #9467bd"/>
     <use xlink:href="#m8506810c96" x="355.650718" y="351.692103" style="fill: #9467bd; stroke: #9467bd"/>
     <use xlink:href="#m8506810c96" x="409.047847" y="344.261856" style="fill: #9467bd; stroke: #9467bd"/>
     <use xlink:href="#m8506810c96" x="462.444976" y="337.163274" style="fill: #9467bd; stroke: #9467bd"/>
     <use xlink:href="#m8506810c96" x="515.842105" y="324.923465" style="fill: #9467bd; stroke: #9467bd"/>
     <use xlink:href="#m8506810c96" x="569.239234" y="307.99702" style="fill: #9467bd; stroke: #9467bd"/>
     <use xlink:href="#m8506810c96" x="622.636364" y="292.747145" style="fill: #9467bd; stroke: #9467bd"/>
    </g>
   </g>
   <g id="line2d_20">
    <path d="M 115.363636 368.903214 
L 142.062201 368.931959 
L 195.45933 368.053656 
L 248.856459 366.480016 
L 302.253589 357.371605 
L 355.650718 352.55718 
L 409.047847 346.654518 
L 462.444976 338.53232 
L 515.842105 330.269776 
L 569.239234 319.251836 
L 622.636364 296.215579 
" clip-path="url(#pd4914120b8)" style="fill: none; stroke: #8c564b; stroke-width: 1.5; stroke-linecap: square"/>
    <defs>
     <path id="m4f12835def" d="M 0 3 
C 0.795609 3 1.55874 2.683901 2.12132 2.12132 
C 2.683901 1.55874 3 0.795609 3 0 
C 3 -0.795609 2.683901 -1.55874 2.12132 -2.12132 
C 1.55874 -2.683901 0.795609 -3 0 -3 
C -0.795609 -3 -1.55874 -2.683901 -2.12132 -2.12132 
C -2.683901 -1.55874 -3 -0.795609 -3 0 
C -3 0.795609 -2.683901 1.55874 -2.12132 2.12132 
C -1.55874 2.683901 -0.795609 3 0 3 
z
" style="stroke: #8c564b"/>
    </defs>
    <g clip-path="url(#pd4914120b8)">
     <use xlink:href="#m4f12835def" x="115.363636" y="368.903214" style="fill: #8c564b; stroke: #8c564b"/>
     <use xlink:href="#m4f12835def" x="142.062201" y="368.931959" style="fill: #8c564b; stroke: #8c564b"/>
     <use xlink:href="#m4f12835def" x="195.45933" y="368.053656" style="fill: #8c564b; stroke: #8c564b"/>
     <use xlink:href="#m4f12835def" x="248.856459" y="366.480016" style="fill: #8c564b; stroke: #8c564b"/>
     <use xlink:href="#m4f12835def" x="302.253589" y="357.371605" style="fill: #8c564b; stroke: #8c564b"/>
     <use xlink:href="#m4f12835def" x="355.650718" y="352.55718" style="fill: #8c564b; stroke: #8c564b"/>
     <use xlink:href="#m4f12835def" x="409.047847" y="346.654518" style="fill: #8c564b; stroke: #8c564b"/>
     <use xlink:href="#m4f12835def" x="462.444976" y="338.53232" style="fill: #8c564b; stroke: #8c564b"/>
     <use xlink:href="#m4f12835def" x="515.842105" y="330.269776" style="fill: #8c564b; stroke: #8c564b"/>
     <use xlink:href="#m4f12835def" x="569.239234" y="319.251836" style="fill: #8c564b; stroke: #8c564b"/>
     <use xlink:href="#m4f12835def" x="622.636364" y="296.215579" style="fill: #8c564b; stroke: #8c564b"/>
    </g>
   </g>
   <g id="line2d_21">
    <path d="M 115.363636 368.880024 
L 142.062201 368.905041 
L 195.45933 368.023231 
L 248.856459 366.304027 
L 302.253589 362.939947 
L 355.650718 352.788078 
L 409.047847 348.300878 
L 462.444976 340.856241 
L 515.842105 332.08175 
L 569.239234 319.234581 
L 622.636364 306.561538 
" clip-path="url(#pd4914120b8)" style="fill: none; stroke: #e377c2; stroke-width: 1.5; stroke-linecap: square"/>
    <defs>
     <path id="m3b9e3283df" d="M 0 3 
C 0.795609 3 1.55874 2.683901 2.12132 2.12132 
C 2.683901 1.55874 3 0.795609 3 0 
C 3 -0.795609 2.683901 -1.55874 2.12132 -2.12132 
C 1.55874 -2.683901 0.795609 -3 0 -3 
C -0.795609 -3 -1.55874 -2.683901 -2.12132 -2.12132 
C -2.683901 -1.55874 -3 -0.795609 -3 0 
C -3 0.795609 -2.683901 1.55874 -2.12132 2.12132 
C -1.55874 2.683901 -0.795609 3 0 3 
z
" style="stroke: #e377c2"/>
    </defs>
    <g clip-path="url(#pd4914120b8)">
     <use xlink:href="#m3b9e3283df" x="115.363636" y="368.880024" style="fill: #e377c2; stroke: #e377c2"/>
     <use xlink:href="#m3b9e3283df" x="142.062201" y="368.905041" style="fill: #e377c2; stroke: #e377c2"/>
     <use xlink:href="#m3b9e3283df" x="195.45933" y="368.023231" style="fill: #e377c2; stroke: #e377c2"/>
     <use xlink:href="#m3b9e3283df" x="248.856459" y="366.304027" style="fill: #e377c2; stroke: #e377c2"/>
     <use xlink:href="#m3b9e3283df" x="302.253589" y="362.939947" style="fill: #e377c2; stroke: #e377c2"/>
     <use xlink:href="#m3b9e3283df" x="355.650718" y="352.788078" style="fill: #e377c2; stroke: #e377c2"/>
     <use xlink:href="#m3b9e3283df" x="409.047847" y="348.300878" style="fill: #e377c2; stroke: #e377c2"/>
     <use xlink:href="#m3b9e3283df" x="462.444976" y="340.856241" style="fill: #e377c2; stroke: #e377c2"/>
     <use xlink:href="#m3b9e3283df" x="515.842105" y="332.08175" style="fill: #e377c2; stroke: #e377c2"/>
     <use xlink:href="#m3b9e3283df" x="569.239234" y="319.234581" style="fill: #e377c2; stroke: #e377c2"/>
     <use xlink:href="#m3b9e3283df" x="622.636364" y="306.561538" style="fill: #e377c2; stroke: #e377c2"/>
    </g>
   </g>
   <g id="line2d_22">
    <path d="M 115.363636 369.123394 
L 142.062201 368.778614 
L 195.45933 367.914474 
L 248.856459 366.014248 
L 302.253589 362.921436 
L 355.650718 356.404719 
L 409.047847 352.723623 
L 462.444976 347.076293 
L 515.842105 337.018176 
L 569.239234 322.936948 
L 622.636364 311.26292 
" clip-path="url(#pd4914120b8)" style="fill: none; stroke: #7f7f7f; stroke-width: 1.5; stroke-linecap: square"/>
    <defs>
     <path id="m94a0d16abd" d="M 0 3 
C 0.795609 3 1.55874 2.683901 2.12132 2.12132 
C 2.683901 1.55874 3 0.795609 3 0 
C 3 -0.795609 2.683901 -1.55874 2.12132 -2.12132 
C 1.55874 -2.683901 0.795609 -3 0 -3 
C -0.795609 -3 -1.55874 -2.683901 -2.12132 -2.12132 
C -2.683901 -1.55874 -3 -0.795609 -3 0 
C -3 0.795609 -2.683901 1.55874 -2.12132 2.12132 
C -1.55874 2.683901 -0.795609 3 0 3 
z
" style="stroke: #7f7f7f"/>
    </defs>
    <g clip-path="url(#pd4914120b8)">
     <use xlink:href="#m94a0d16abd" x="115.363636" y="369.123394" style="fill: #7f7f7f; stroke: #7f7f7f"/>
     <use xlink:href="#m94a0d16abd" x="142.062201" y="368.778614" style="fill: #7f7f7f; stroke: #7f7f7f"/>
     <use xlink:href="#m94a0d16abd" x="195.45933" y="367.914474" style="fill: #7f7f7f; stroke: #7f7f7f"/>
     <use xlink:href="#m94a0d16abd" x="248.856459" y="366.014248" style="fill: #7f7f7f; stroke: #7f7f7f"/>
     <use xlink:href="#m94a0d16abd" x="302.253589" y="362.921436" style="fill: #7f7f7f; stroke: #7f7f7f"/>
     <use xlink:href="#m94a0d16abd" x="355.650718" y="356.404719" style="fill: #7f7f7f; stroke: #7f7f7f"/>
     <use xlink:href="#m94a0d16abd" x="409.047847" y="352.723623" style="fill: #7f7f7f; stroke: #7f7f7f"/>
     <use xlink:href="#m94a0d16abd" x="462.444976" y="347.076293" style="fill: #7f7f7f; stroke: #7f7f7f"/>
     <use xlink:href="#m94a0d16abd" x="515.842105" y="337.018176" style="fill: #7f7f7f; stroke: #7f7f7f"/>
     <use xlink:href="#m94a0d16abd" x="569.239234" y="322.936948" style="fill: #7f7f7f; stroke: #7f7f7f"/>
     <use xlink:href="#m94a0d16abd" x="622.636364" y="311.26292" style="fill: #7f7f7f; stroke: #7f7f7f"/>
    </g>
   </g>
   <g id="line2d_23">
    <path d="M 115.363636 368.85914 
L 142.062201 368.913509 
L 195.45933 368.070082 
L 248.856459 366.211894 
L 302.253589 355.659404 
L 355.650718 354.308029 
L 409.047847 348.956163 
L 462.444976 341.420066 
L 515.842105 337.043279 
L 569.239234 324.632165 
L 622.636364 313.563878 
" clip-path="url(#pd4914120b8)" style="fill: none; stroke: #bcbd22; stroke-width: 1.5; stroke-linecap: square"/>
    <defs>
     <path id="m2f7e8f9398" d="M 0 3 
C 0.795609 3 1.55874 2.683901 2.12132 2.12132 
C 2.683901 1.55874 3 0.795609 3 0 
C 3 -0.795609 2.683901 -1.55874 2.12132 -2.12132 
C 1.55874 -2.683901 0.795609 -3 0 -3 
C -0.795609 -3 -1.55874 -2.683901 -2.12132 -2.12132 
C -2.683901 -1.55874 -3 -0.795609 -3 0 
C -3 0.795609 -2.683901 1.55874 -2.12132 2.12132 
C -1.55874 2.683901 -0.795609 3 0 3 
z
" style="stroke: #bcbd22"/>
    </defs>
    <g clip-path="url(#pd4914120b8)">
     <use xlink:href="#m2f7e8f9398" x="115.363636" y="368.85914" style="fill: #bcbd22; stroke: #bcbd22"/>
     <use xlink:href="#m2f7e8f9398" x="142.062201" y="368.913509" style="fill: #bcbd22; stroke: #bcbd22"/>
     <use xlink:href="#m2f7e8f9398" x="195.45933" y="368.070082" style="fill: #bcbd22; stroke: #bcbd22"/>
     <use xlink:href="#m2f7e8f9398" x="248.856459" y="366.211894" style="fill: #bcbd22; stroke: #bcbd22"/>
     <use xlink:href="#m2f7e8f9398" x="302.253589" y="355.659404" style="fill: #bcbd22; stroke: #bcbd22"/>
     <use xlink:href="#m2f7e8f9398" x="355.650718" y="354.308029" style="fill: #bcbd22; stroke: #bcbd22"/>
     <use xlink:href="#m2f7e8f9398" x="409.047847" y="348.956163" style="fill: #bcbd22; stroke: #bcbd22"/>
     <use xlink:href="#m2f7e8f9398" x="462.444976" y="341.420066" style="fill: #bcbd22; stroke: #bcbd22"/>
     <use xlink:href="#m2f7e8f9398" x="515.842105" y="337.043279" style="fill: #bcbd22; stroke: #bcbd22"/>
     <use xlink:href="#m2f7e8f9398" x="569.239234" y="324.632165" style="fill: #bcbd22; stroke: #bcbd22"/>
     <use xlink:href="#m2f7e8f9398" x="622.636364" y="313.563878" style="fill: #bcbd22; stroke: #bcbd22"/>
    </g>
   </g>
   <g id="line2d_24">
    <path d="M 115.363636 369.137913 
L 142.062201 368.827697 
L 195.45933 367.947726 
L 248.856459 366.220079 
L 302.253589 356.509587 
L 355.650718 354.213572 
L 409.047847 349.968356 
L 462.444976 343.297134 
L 515.842105 337.433095 
L 569.239234 327.803896 
L 622.636364 318.88798 
" clip-path="url(#pd4914120b8)" style="fill: none; stroke: #17becf; stroke-width: 1.5; stroke-linecap: square"/>
    <defs>
     <path id="mf7ad91b971" d="M 0 3 
C 0.795609 3 1.55874 2.683901 2.12132 2.12132 
C 2.683901 1.55874 3 0.795609 3 0 
C 3 -0.795609 2.683901 -1.55874 2.12132 -2.12132 
C 1.55874 -2.683901 0.795609 -3 0 -3 
C -0.795609 -3 -1.55874 -2.683901 -2.12132 -2.12132 
C -2.683901 -1.55874 -3 -0.795609 -3 0 
C -3 0.795609 -2.683901 1.55874 -2.12132 2.12132 
C -1.55874 2.683901 -0.795609 3 0 3 
z
" style="stroke: #17becf"/>
    </defs>
    <g clip-path="url(#pd4914120b8)">
     <use xlink:href="#mf7ad91b971" x="115.363636" y="369.137913" style="fill: #17becf; stroke: #17becf"/>
     <use xlink:href="#mf7ad91b971" x="142.062201" y="368.827697" style="fill: #17becf; stroke: #17becf"/>
     <use xlink:href="#mf7ad91b971" x="195.45933" y="367.947726" style="fill: #17becf; stroke: #17becf"/>
     <use xlink:href="#mf7ad91b971" x="248.856459" y="366.220079" style="fill: #17becf; stroke: #17becf"/>
     <use xlink:href="#mf7ad91b971" x="302.253589" y="356.509587" style="fill: #17becf; stroke: #17becf"/>
     <use xlink:href="#mf7ad91b971" x="355.650718" y="354.213572" style="fill: #17becf; stroke: #17becf"/>
     <use xlink:href="#mf7ad91b971" x="409.047847" y="349.968356" style="fill: #17becf; stroke: #17becf"/>
     <use xlink:href="#mf7ad91b971" x="462.444976" y="343.297134" style="fill: #17becf; stroke: #17becf"/>
     <use xlink:href="#mf7ad91b971" x="515.842105" y="337.433095" style="fill: #17becf; stroke: #17becf"/>
     <use xlink:href="#mf7ad91b971" x="569.239234" y="327.803896" style="fill: #17becf; stroke: #17becf"/>
     <use xlink:href="#mf7ad91b971" x="622.636364" y="318.88798" style="fill: #17becf; stroke: #17becf"/>
    </g>
   </g>
   <g id="patch_3">
    <path d="M 90 384.48 
L 90 51.84 
" style="fill: none; stroke: #000000; stroke-width: 0.8; stroke-linejoin: miter; stroke-linecap: square"/>
   </g>
   <g id="patch_4">
    <path d="M 648 384.48 
L 648 51.84 
" style="fill: none; stroke: #000000; stroke-width: 0.8; stroke-linejoin: miter; stroke-linecap: square"/>
   </g>
   <g id="patch_5">
    <path d="M 90 384.48 
L 648 384.48 
" style="fill: none; stroke: #000000; stroke-width: 0.8; stroke-linejoin: miter; stroke-linecap: square"/>
   </g>
   <g id="patch_6">
    <path d="M 90 51.84 
L 648 51.84 
" style="fill: none; stroke: #000000; stroke-width: 0.8; stroke-linejoin: miter; stroke-linecap: square"/>
   </g>
   <g id="text_17">
    <!-- Зависимость Size от Time для разных значений PC -->
    <g transform="translate(208.769063 45.84) scale(0.12 -0.12)">
     <defs>
      <path id="DejaVuSans-417" d="M 1828 4750 
Q 2597 4750 3084 4423 
Q 3572 4097 3572 3541 
Q 3572 3153 3350 2886 
Q 3128 2619 2719 2516 
Q 3172 2419 3426 2112 
Q 3681 1806 3681 1356 
Q 3681 638 3126 273 
Q 2572 -91 1828 -91 
Q 1447 -91 1003 12 
Q 559 116 422 203 
L 422 853 
Q 900 575 1164 508 
Q 1428 441 1816 441 
Q 2403 441 2728 666 
Q 3053 891 3053 1356 
Q 3053 1769 2764 2001 
Q 2475 2234 1866 2234 
L 1228 2234 
L 1228 2753 
L 1891 2753 
Q 2450 2753 2697 2939 
Q 2944 3125 2944 3475 
Q 2944 3834 2689 4026 
Q 2434 4219 1816 4219 
Q 1397 4219 1253 4181 
Q 1109 4144 469 3903 
L 469 4519 
Q 822 4644 1190 4697 
Q 1559 4750 1828 4750 
z
" transform="scale(0.015625)"/>
      <path id="DejaVuSans-430" d="M 2194 1759 
Q 1497 1759 1228 1600 
Q 959 1441 959 1056 
Q 959 750 1161 570 
Q 1363 391 1709 391 
Q 2188 391 2477 730 
Q 2766 1069 2766 1631 
L 2766 1759 
L 2194 1759 
z
M 3341 1997 
L 3341 0 
L 2766 0 
L 2766 531 
Q 2569 213 2275 61 
Q 1981 -91 1556 -91 
Q 1019 -91 701 211 
Q 384 513 384 1019 
Q 384 1609 779 1909 
Q 1175 2209 1959 2209 
L 2766 2209 
L 2766 2266 
Q 2766 2663 2505 2880 
Q 2244 3097 1772 3097 
Q 1472 3097 1187 3025 
Q 903 2953 641 2809 
L 641 3341 
Q 956 3463 1253 3523 
Q 1550 3584 1831 3584 
Q 2591 3584 2966 3190 
Q 3341 2797 3341 1997 
z
" transform="scale(0.015625)"/>
      <path id="DejaVuSans-432" d="M 1156 1613 
L 1156 459 
L 1975 459 
Q 2369 459 2575 607 
Q 2781 756 2781 1038 
Q 2781 1319 2575 1466 
Q 2369 1613 1975 1613 
L 1156 1613 
z
M 1156 3041 
L 1156 2072 
L 1913 2072 
Q 2238 2072 2444 2201 
Q 2650 2331 2650 2563 
Q 2650 2794 2444 2917 
Q 2238 3041 1913 3041 
L 1156 3041 
z
M 581 3500 
L 1950 3500 
Q 2566 3500 2897 3275 
Q 3228 3050 3228 2634 
Q 3228 2313 3059 2123 
Q 2891 1934 2559 1888 
Q 2956 1813 3175 1575 
Q 3394 1338 3394 981 
Q 3394 513 3033 256 
Q 2672 0 2003 0 
L 581 0 
L 581 3500 
z
" transform="scale(0.015625)"/>
      <path id="DejaVuSans-438" d="M 3578 3500 
L 3578 0 
L 3006 0 
L 3006 2809 
L 1319 0 
L 581 0 
L 581 3500 
L 1153 3500 
L 1153 697 
L 2838 3500 
L 3578 3500 
z
" transform="scale(0.015625)"/>
      <path id="DejaVuSans-441" d="M 3122 3366 
L 3122 2828 
Q 2878 2963 2633 3030 
Q 2388 3097 2138 3097 
Q 1578 3097 1268 2742 
Q 959 2388 959 1747 
Q 959 1106 1268 751 
Q 1578 397 2138 397 
Q 2388 397 2633 464 
Q 2878 531 3122 666 
L 3122 134 
Q 2881 22 2623 -34 
Q 2366 -91 2075 -91 
Q 1284 -91 818 406 
Q 353 903 353 1747 
Q 353 2603 823 3093 
Q 1294 3584 2113 3584 
Q 2378 3584 2631 3529 
Q 2884 3475 3122 3366 
z
" transform="scale(0.015625)"/>
      <path id="DejaVuSans-43c" d="M 581 3500 
L 1422 3500 
L 2416 1156 
L 3413 3500 
L 4247 3500 
L 4247 0 
L 3669 0 
L 3669 2950 
L 2703 672 
L 2128 672 
L 1159 2950 
L 1159 0 
L 581 0 
L 581 3500 
z
" transform="scale(0.015625)"/>
      <path id="DejaVuSans-43e" d="M 1959 3097 
Q 1497 3097 1228 2736 
Q 959 2375 959 1747 
Q 959 1119 1226 758 
Q 1494 397 1959 397 
Q 2419 397 2687 759 
Q 2956 1122 2956 1747 
Q 2956 2369 2687 2733 
Q 2419 3097 1959 3097 
z
M 1959 3584 
Q 2709 3584 3137 3096 
Q 3566 2609 3566 1747 
Q 3566 888 3137 398 
Q 2709 -91 1959 -91 
Q 1206 -91 779 398 
Q 353 888 353 1747 
Q 353 2609 779 3096 
Q 1206 3584 1959 3584 
z
" transform="scale(0.015625)"/>
      <path id="DejaVuSans-442" d="M 188 3500 
L 3541 3500 
L 3541 3041 
L 2147 3041 
L 2147 0 
L 1581 0 
L 1581 3041 
L 188 3041 
L 188 3500 
z
" transform="scale(0.015625)"/>
      <path id="DejaVuSans-44c" d="M 2781 1038 
Q 2781 1319 2576 1466 
Q 2372 1613 1978 1613 
L 1159 1613 
L 1159 459 
L 1978 459 
Q 2372 459 2576 607 
Q 2781 756 2781 1038 
z
M 581 3500 
L 1159 3500 
L 1159 2072 
L 2003 2072 
Q 2672 2072 3033 1817 
Q 3394 1563 3394 1038 
Q 3394 513 3033 256 
Q 2672 0 2003 0 
L 581 0 
L 581 3500 
z
" transform="scale(0.015625)"/>
      <path id="DejaVuSans-20" transform="scale(0.015625)"/>
      <path id="DejaVuSans-434" d="M 1384 459 
L 3053 459 
L 3053 3041 
L 1844 3041 
L 1844 2603 
Q 1844 1316 1475 628 
L 1384 459 
z
M 550 459 
Q 834 584 959 850 
Q 1266 1509 1266 2838 
L 1266 3500 
L 3631 3500 
L 3631 459 
L 4091 459 
L 4091 -884 
L 3631 -884 
L 3631 0 
L 794 0 
L 794 -884 
L 334 -884 
L 334 459 
L 550 459 
z
" transform="scale(0.015625)"/>
      <path id="DejaVuSans-43b" d="M 238 0 
L 238 478 
Q 806 566 981 959 
Q 1194 1513 1194 2928 
L 1194 3500 
L 3559 3500 
L 3559 0 
L 2984 0 
L 2984 3041 
L 1769 3041 
L 1769 2694 
Q 1769 1344 1494 738 
Q 1200 91 238 0 
z
" transform="scale(0.015625)"/>
      <path id="DejaVuSans-44f" d="M 1181 2491 
Q 1181 2231 1381 2084 
Q 1581 1938 1953 1938 
L 2728 1938 
L 2728 3041 
L 1953 3041 
Q 1581 3041 1381 2897 
Q 1181 2753 1181 2491 
z
M 363 0 
L 1431 1534 
Q 1069 1616 828 1830 
Q 588 2044 588 2491 
Q 588 2997 923 3248 
Q 1259 3500 1938 3500 
L 3306 3500 
L 3306 0 
L 2728 0 
L 2728 1478 
L 2013 1478 
L 981 0 
L 363 0 
z
" transform="scale(0.015625)"/>
      <path id="DejaVuSans-440" d="M 1159 525 
L 1159 -1331 
L 581 -1331 
L 581 3500 
L 1159 3500 
L 1159 2969 
Q 1341 3281 1617 3432 
Q 1894 3584 2278 3584 
Q 2916 3584 3314 3078 
Q 3713 2572 3713 1747 
Q 3713 922 3314 415 
Q 2916 -91 2278 -91 
Q 1894 -91 1617 61 
Q 1341 213 1159 525 
z
M 3116 1747 
Q 3116 2381 2855 2742 
Q 2594 3103 2138 3103 
Q 1681 3103 1420 2742 
Q 1159 2381 1159 1747 
Q 1159 1113 1420 752 
Q 1681 391 2138 391 
Q 2594 391 2855 752 
Q 3116 1113 3116 1747 
z
" transform="scale(0.015625)"/>
      <path id="DejaVuSans-437" d="M 2206 1888 
Q 2594 1813 2809 1584 
Q 3025 1356 3025 1019 
Q 3025 478 2622 193 
Q 2219 -91 1475 -91 
Q 1225 -91 961 -47 
Q 697 -3 416 84 
L 416 619 
Q 638 503 903 445 
Q 1169 388 1459 388 
Q 1931 388 2195 563 
Q 2459 738 2459 1019 
Q 2459 1294 2225 1461 
Q 1991 1628 1563 1628 
L 1100 1628 
L 1100 2103 
L 1584 2103 
Q 1947 2103 2158 2242 
Q 2369 2381 2369 2600 
Q 2369 2800 2151 2944 
Q 1934 3088 1563 3088 
Q 1341 3088 1089 3047 
Q 838 3006 534 2916 
L 534 3438 
Q 841 3513 1106 3550 
Q 1372 3588 1609 3588 
Q 2222 3588 2576 3342 
Q 2931 3097 2931 2656 
Q 2931 2366 2743 2164 
Q 2556 1963 2206 1888 
z
" transform="scale(0.015625)"/>
      <path id="DejaVuSans-43d" d="M 581 3500 
L 1159 3500 
L 1159 2072 
L 3025 2072 
L 3025 3500 
L 3603 3500 
L 3603 0 
L 3025 0 
L 3025 1613 
L 1159 1613 
L 1159 0 
L 581 0 
L 581 3500 
z
" transform="scale(0.015625)"/>
      <path id="DejaVuSans-44b" d="M 3907 3500 
L 4482 3500 
L 4482 0 
L 3907 0 
L 3907 3500 
z
M 4195 3584 
L 4195 3584 
z
M 2781 1038 
Q 2781 1319 2576 1466 
Q 2372 1613 1978 1613 
L 1159 1613 
L 1159 459 
L 1978 459 
Q 2372 459 2576 607 
Q 2781 756 2781 1038 
z
M 581 3500 
L 1159 3500 
L 1159 2072 
L 2003 2072 
Q 2672 2072 3033 1817 
Q 3394 1563 3394 1038 
Q 3394 513 3033 256 
Q 2672 0 2003 0 
L 581 0 
L 581 3500 
z
" transform="scale(0.015625)"/>
      <path id="DejaVuSans-445" d="M 3513 3500 
L 2247 1797 
L 3578 0 
L 2900 0 
L 1881 1375 
L 863 0 
L 184 0 
L 1544 1831 
L 300 3500 
L 978 3500 
L 1906 2253 
L 2834 3500 
L 3513 3500 
z
" transform="scale(0.015625)"/>
      <path id="DejaVuSans-447" d="M 2625 0 
L 2625 1472 
L 1553 1472 
Q 1075 1472 756 1769 
Q 469 2038 469 2613 
L 469 3500 
L 1044 3500 
L 1044 2666 
Q 1044 2300 1206 2116 
Q 1372 1931 1697 1931 
L 2625 1931 
L 2625 3500 
L 3200 3500 
L 3200 0 
L 2625 0 
z
" transform="scale(0.015625)"/>
      <path id="DejaVuSans-435" d="M 3597 1894 
L 3597 1613 
L 953 1613 
Q 991 1019 1311 708 
Q 1631 397 2203 397 
Q 2534 397 2845 478 
Q 3156 559 3463 722 
L 3463 178 
Q 3153 47 2828 -22 
Q 2503 -91 2169 -91 
Q 1331 -91 842 396 
Q 353 884 353 1716 
Q 353 2575 817 3079 
Q 1281 3584 2069 3584 
Q 2775 3584 3186 3129 
Q 3597 2675 3597 1894 
z
M 3022 2063 
Q 3016 2534 2758 2815 
Q 2500 3097 2075 3097 
Q 1594 3097 1305 2825 
Q 1016 2553 972 2059 
L 3022 2063 
z
" transform="scale(0.015625)"/>
      <path id="DejaVuSans-439" d="M 3578 3500 
L 3578 0 
L 3006 0 
L 3006 2809 
L 1319 0 
L 581 0 
L 581 3500 
L 1153 3500 
L 1153 697 
L 2838 3500 
L 3578 3500 
z
M 1102 4833 
L 1471 4833 
Q 1505 4599 1656 4481 
Q 1808 4364 2080 4364 
Q 2349 4364 2499 4480 
Q 2649 4596 2689 4833 
L 3058 4833 
Q 3027 4386 2780 4161 
Q 2533 3936 2080 3936 
Q 1627 3936 1380 4161 
Q 1133 4386 1102 4833 
z
" transform="scale(0.015625)"/>
      <path id="DejaVuSans-50" d="M 1259 4147 
L 1259 2394 
L 2053 2394 
Q 2494 2394 2734 2622 
Q 2975 2850 2975 3272 
Q 2975 3691 2734 3919 
Q 2494 4147 2053 4147 
L 1259 4147 
z
M 628 4666 
L 2053 4666 
Q 2838 4666 3239 4311 
Q 3641 3956 3641 3272 
Q 3641 2581 3239 2228 
Q 2838 1875 2053 1875 
L 1259 1875 
L 1259 0 
L 628 0 
L 628 4666 
z
" transform="scale(0.015625)"/>
      <path id="DejaVuSans-43" d="M 4122 4306 
L 4122 3641 
Q 3803 3938 3442 4084 
Q 3081 4231 2675 4231 
Q 1875 4231 1450 3742 
Q 1025 3253 1025 2328 
Q 1025 1406 1450 917 
Q 1875 428 2675 428 
Q 3081 428 3442 575 
Q 3803 722 4122 1019 
L 4122 359 
Q 3791 134 3420 21 
Q 3050 -91 2638 -91 
Q 1578 -91 968 557 
Q 359 1206 359 2328 
Q 359 3453 968 4101 
Q 1578 4750 2638 4750 
Q 3056 4750 3426 4639 
Q 3797 4528 4122 4306 
z
" transform="scale(0.015625)"/>
     </defs>
     <use xlink:href="#DejaVuSans-417"/>
     <use xlink:href="#DejaVuSans-430" x="64.111328"/>
     <use xlink:href="#DejaVuSans-432" x="125.390625"/>
     <use xlink:href="#DejaVuSans-438" x="184.326172"/>
     <use xlink:href="#DejaVuSans-441" x="249.316406"/>
     <use xlink:href="#DejaVuSans-438" x="304.296875"/>
     <use xlink:href="#DejaVuSans-43c" x="369.287109"/>
     <use xlink:href="#DejaVuSans-43e" x="444.726562"/>
     <use xlink:href="#DejaVuSans-441" x="505.908203"/>
     <use xlink:href="#DejaVuSans-442" x="560.888672"/>
     <use xlink:href="#DejaVuSans-44c" x="619.140625"/>
     <use xlink:href="#DejaVuSans-20" x="678.076172"/>
     <use xlink:href="#DejaVuSans-53" x="709.863281"/>
     <use xlink:href="#DejaVuSans-69" x="773.339844"/>
     <use xlink:href="#DejaVuSans-7a" x="801.123047"/>
     <use xlink:href="#DejaVuSans-65" x="853.613281"/>
     <use xlink:href="#DejaVuSans-20" x="915.136719"/>
     <use xlink:href="#DejaVuSans-43e" x="946.923828"/>
     <use xlink:href="#DejaVuSans-442" x="1008.105469"/>
     <use xlink:href="#DejaVuSans-20" x="1066.357422"/>
     <use xlink:href="#DejaVuSans-54" x="1098.144531"/>
     <use xlink:href="#DejaVuSans-69" x="1156.103516"/>
     <use xlink:href="#DejaVuSans-6d" x="1183.886719"/>
     <use xlink:href="#DejaVuSans-65" x="1281.298828"/>
     <use xlink:href="#DejaVuSans-20" x="1342.822266"/>
     <use xlink:href="#DejaVuSans-434" x="1374.609375"/>
     <use xlink:href="#DejaVuSans-43b" x="1443.75"/>
     <use xlink:href="#DejaVuSans-44f" x="1507.666016"/>
     <use xlink:href="#DejaVuSans-20" x="1567.822266"/>
     <use xlink:href="#DejaVuSans-440" x="1599.609375"/>
     <use xlink:href="#DejaVuSans-430" x="1663.085938"/>
     <use xlink:href="#DejaVuSans-437" x="1724.365234"/>
     <use xlink:href="#DejaVuSans-43d" x="1777.539062"/>
     <use xlink:href="#DejaVuSans-44b" x="1842.919922"/>
     <use xlink:href="#DejaVuSans-445" x="1921.875"/>
     <use xlink:href="#DejaVuSans-20" x="1981.054688"/>
     <use xlink:href="#DejaVuSans-437" x="2012.841797"/>
     <use xlink:href="#DejaVuSans-43d" x="2066.015625"/>
     <use xlink:href="#DejaVuSans-430" x="2131.396484"/>
     <use xlink:href="#DejaVuSans-447" x="2192.675781"/>
     <use xlink:href="#DejaVuSans-435" x="2251.757812"/>
     <use xlink:href="#DejaVuSans-43d" x="2313.28125"/>
     <use xlink:href="#DejaVuSans-438" x="2378.662109"/>
     <use xlink:href="#DejaVuSans-439" x="2443.652344"/>
     <use xlink:href="#DejaVuSans-20" x="2508.642578"/>
     <use xlink:href="#DejaVuSans-50" x="2540.429688"/>
     <use xlink:href="#DejaVuSans-43" x="2600.732422"/>
    </g>
   </g>
   <g id="legend_1">
    <g id="patch_7">
     <path d="M 97 221.299375 
L 169.473437 221.299375 
Q 171.473437 221.299375 171.473437 219.299375 
L 171.473437 58.84 
Q 171.473437 56.84 169.473437 56.84 
L 97 56.84 
Q 95 56.84 95 58.84 
L 95 219.299375 
Q 95 221.299375 97 221.299375 
z
" style="fill: #ffffff; opacity: 0.8; stroke: #cccccc; stroke-linejoin: miter"/>
    </g>
    <g id="text_18">
     <!-- Значения PC -->
     <g transform="translate(100.046875 68.438437) scale(0.1 -0.1)">
      <use xlink:href="#DejaVuSans-417"/>
      <use xlink:href="#DejaVuSans-43d" x="64.111328"/>
      <use xlink:href="#DejaVuSans-430" x="129.492188"/>
      <use xlink:href="#DejaVuSans-447" x="190.771484"/>
      <use xlink:href="#DejaVuSans-435" x="249.853516"/>
      <use xlink:href="#DejaVuSans-43d" x="311.376953"/>
      <use xlink:href="#DejaVuSans-438" x="376.757812"/>
      <use xlink:href="#DejaVuSans-44f" x="441.748047"/>
      <use xlink:href="#DejaVuSans-20" x="501.904297"/>
      <use xlink:href="#DejaVuSans-50" x="533.691406"/>
      <use xlink:href="#DejaVuSans-43" x="593.994141"/>
     </g>
    </g>
    <g id="line2d_25">
     <path d="M 99 79.616562 
L 109 79.616562 
L 119 79.616562 
" style="fill: none; stroke: #1f77b4; stroke-width: 1.5; stroke-linecap: square"/>
     <g>
      <use xlink:href="#m16c789701e" x="109" y="79.616562" style="fill: #1f77b4; stroke: #1f77b4"/>
     </g>
    </g>
    <g id="text_19">
     <!-- PC = 1 -->
     <g transform="translate(127 83.116562) scale(0.1 -0.1)">
      <defs>
       <path id="DejaVuSans-3d" d="M 678 2906 
L 4684 2906 
L 4684 2381 
L 678 2381 
L 678 2906 
z
M 678 1631 
L 4684 1631 
L 4684 1100 
L 678 1100 
L 678 1631 
z
" transform="scale(0.015625)"/>
      </defs>
      <use xlink:href="#DejaVuSans-50"/>
      <use xlink:href="#DejaVuSans-43" x="60.302734"/>
      <use xlink:href="#DejaVuSans-20" x="130.126953"/>
      <use xlink:href="#DejaVuSans-3d" x="161.914062"/>
      <use xlink:href="#DejaVuSans-20" x="245.703125"/>
      <use xlink:href="#DejaVuSans-31" x="277.490234"/>
     </g>
    </g>
    <g id="line2d_26">
     <path d="M 99 94.294688 
L 109 94.294688 
L 119 94.294688 
" style="fill: none; stroke: #ff7f0e; stroke-width: 1.5; stroke-linecap: square"/>
     <g>
      <use xlink:href="#mce330623ca" x="109" y="94.294688" style="fill: #ff7f0e; stroke: #ff7f0e"/>
     </g>
    </g>
    <g id="text_20">
     <!-- PC = 2 -->
     <g transform="translate(127 97.794688) scale(0.1 -0.1)">
      <use xlink:href="#DejaVuSans-50"/>
      <use xlink:href="#DejaVuSans-43" x="60.302734"/>
      <use xlink:href="#DejaVuSans-20" x="130.126953"/>
      <use xlink:href="#DejaVuSans-3d" x="161.914062"/>
      <use xlink:href="#DejaVuSans-20" x="245.703125"/>
      <use xlink:href="#DejaVuSans-32" x="277.490234"/>
     </g>
    </g>
    <g id="line2d_27">
     <path d="M 99 108.972813 
L 109 108.972813 
L 119 108.972813 
" style="fill: none; stroke: #2ca02c; stroke-width: 1.5; stroke-linecap: square"/>
     <g>
      <use xlink:href="#m81bfbe29e2" x="109" y="108.972813" style="fill: #2ca02c; stroke: #2ca02c"/>
     </g>
    </g>
    <g id="text_21">
     <!-- PC = 3 -->
     <g transform="translate(127 112.472813) scale(0.1 -0.1)">
      <use xlink:href="#DejaVuSans-50"/>
      <use xlink:href="#DejaVuSans-43" x="60.302734"/>
      <use xlink:href="#DejaVuSans-20" x="130.126953"/>
      <use xlink:href="#DejaVuSans-3d" x="161.914062"/>
      <use xlink:href="#DejaVuSans-20" x="245.703125"/>
      <use xlink:href="#DejaVuSans-33" x="277.490234"/>
     </g>
    </g>
    <g id="line2d_28">
     <path d="M 99 123.650937 
L 109 123.650937 
L 119 123.650937 
" style="fill: none; stroke: #d62728; stroke-width: 1.5; stroke-linecap: square"/>
     <g>
      <use xlink:href="#ma08ac661cd" x="109" y="123.650937" style="fill: #d62728; stroke: #d62728"/>
     </g>
    </g>
    <g id="text_22">
     <!-- PC = 4 -->
     <g transform="translate(127 127.150937) scale(0.1 -0.1)">
      <use xlink:href="#DejaVuSans-50"/>
      <use xlink:href="#DejaVuSans-43" x="60.302734"/>
      <use xlink:href="#DejaVuSans-20" x="130.126953"/>
      <use xlink:href="#DejaVuSans-3d" x="161.914062"/>
      <use xlink:href="#DejaVuSans-20" x="245.703125"/>
      <use xlink:href="#DejaVuSans-34" x="277.490234"/>
     </g>
    </g>
    <g id="line2d_29">
     <path d="M 99 138.329063 
L 109 138.329063 
L 119 138.329063 
" style="fill: none; stroke: #9467bd; stroke-width: 1.5; stroke-linecap: square"/>
     <g>
      <use xlink:href="#m8506810c96" x="109" y="138.329063" style="fill: #9467bd; stroke: #9467bd"/>
     </g>
    </g>
    <g id="text_23">
     <!-- PC = 5 -->
     <g transform="translate(127 141.829063) scale(0.1 -0.1)">
      <use xlink:href="#DejaVuSans-50"/>
      <use xlink:href="#DejaVuSans-43" x="60.302734"/>
      <use xlink:href="#DejaVuSans-20" x="130.126953"/>
      <use xlink:href="#DejaVuSans-3d" x="161.914062"/>
      <use xlink:href="#DejaVuSans-20" x="245.703125"/>
      <use xlink:href="#DejaVuSans-35" x="277.490234"/>
     </g>
    </g>
    <g id="line2d_30">
     <path d="M 99 153.007187 
L 109 153.007187 
L 119 153.007187 
" style="fill: none; stroke: #8c564b; stroke-width: 1.5; stroke-linecap: square"/>
     <g>
      <use xlink:href="#m4f12835def" x="109" y="153.007187" style="fill: #8c564b; stroke: #8c564b"/>
     </g>
    </g>
    <g id="text_24">
     <!-- PC = 6 -->
     <g transform="translate(127 156.507187) scale(0.1 -0.1)">
      <defs>
       <path id="DejaVuSans-36" d="M 2113 2584 
Q 1688 2584 1439 2293 
Q 1191 2003 1191 1497 
Q 1191 994 1439 701 
Q 1688 409 2113 409 
Q 2538 409 2786 701 
Q 3034 994 3034 1497 
Q 3034 2003 2786 2293 
Q 2538 2584 2113 2584 
z
M 3366 4563 
L 3366 3988 
Q 3128 4100 2886 4159 
Q 2644 4219 2406 4219 
Q 1781 4219 1451 3797 
Q 1122 3375 1075 2522 
Q 1259 2794 1537 2939 
Q 1816 3084 2150 3084 
Q 2853 3084 3261 2657 
Q 3669 2231 3669 1497 
Q 3669 778 3244 343 
Q 2819 -91 2113 -91 
Q 1303 -91 875 529 
Q 447 1150 447 2328 
Q 447 3434 972 4092 
Q 1497 4750 2381 4750 
Q 2619 4750 2861 4703 
Q 3103 4656 3366 4563 
z
" transform="scale(0.015625)"/>
      </defs>
      <use xlink:href="#DejaVuSans-50"/>
      <use xlink:href="#DejaVuSans-43" x="60.302734"/>
      <use xlink:href="#DejaVuSans-20" x="130.126953"/>
      <use xlink:href="#DejaVuSans-3d" x="161.914062"/>
      <use xlink:href="#DejaVuSans-20" x="245.703125"/>
      <use xlink:href="#DejaVuSans-36" x="277.490234"/>
     </g>
    </g>
    <g id="line2d_31">
     <path d="M 99 167.685313 
L 109 167.685313 
L 119 167.685313 
" style="fill: none; stroke: #e377c2; stroke-width: 1.5; stroke-linecap: square"/>
     <g>
      <use xlink:href="#m3b9e3283df" x="109" y="167.685313" style="fill: #e377c2; stroke: #e377c2"/>
     </g>
    </g>
    <g id="text_25">
     <!-- PC = 7 -->
     <g transform="translate(127 171.185313) scale(0.1 -0.1)">
      <use xlink:href="#DejaVuSans-50"/>
      <use xlink:href="#DejaVuSans-43" x="60.302734"/>
      <use xlink:href="#DejaVuSans-20" x="130.126953"/>
      <use xlink:href="#DejaVuSans-3d" x="161.914062"/>
      <use xlink:href="#DejaVuSans-20" x="245.703125"/>
      <use xlink:href="#DejaVuSans-37" x="277.490234"/>
     </g>
    </g>
    <g id="line2d_32">
     <path d="M 99 182.363437 
L 109 182.363437 
L 119 182.363437 
" style="fill: none; stroke: #7f7f7f; stroke-width: 1.5; stroke-linecap: square"/>
     <g>
      <use xlink:href="#m94a0d16abd" x="109" y="182.363437" style="fill: #7f7f7f; stroke: #7f7f7f"/>
     </g>
    </g>
    <g id="text_26">
     <!-- PC = 8 -->
     <g transform="translate(127 185.863437) scale(0.1 -0.1)">
      <defs>
       <path id="DejaVuSans-38" d="M 2034 2216 
Q 1584 2216 1326 1975 
Q 1069 1734 1069 1313 
Q 1069 891 1326 650 
Q 1584 409 2034 409 
Q 2484 409 2743 651 
Q 3003 894 3003 1313 
Q 3003 1734 2745 1975 
Q 2488 2216 2034 2216 
z
M 1403 2484 
Q 997 2584 770 2862 
Q 544 3141 544 3541 
Q 544 4100 942 4425 
Q 1341 4750 2034 4750 
Q 2731 4750 3128 4425 
Q 3525 4100 3525 3541 
Q 3525 3141 3298 2862 
Q 3072 2584 2669 2484 
Q 3125 2378 3379 2068 
Q 3634 1759 3634 1313 
Q 3634 634 3220 271 
Q 2806 -91 2034 -91 
Q 1263 -91 848 271 
Q 434 634 434 1313 
Q 434 1759 690 2068 
Q 947 2378 1403 2484 
z
M 1172 3481 
Q 1172 3119 1398 2916 
Q 1625 2713 2034 2713 
Q 2441 2713 2670 2916 
Q 2900 3119 2900 3481 
Q 2900 3844 2670 4047 
Q 2441 4250 2034 4250 
Q 1625 4250 1398 4047 
Q 1172 3844 1172 3481 
z
" transform="scale(0.015625)"/>
      </defs>
      <use xlink:href="#DejaVuSans-50"/>
      <use xlink:href="#DejaVuSans-43" x="60.302734"/>
      <use xlink:href="#DejaVuSans-20" x="130.126953"/>
      <use xlink:href="#DejaVuSans-3d" x="161.914062"/>
      <use xlink:href="#DejaVuSans-20" x="245.703125"/>
      <use xlink:href="#DejaVuSans-38" x="277.490234"/>
     </g>
    </g>
    <g id="line2d_33">
     <path d="M 99 197.041562 
L 109 197.041562 
L 119 197.041562 
" style="fill: none; stroke: #bcbd22; stroke-width: 1.5; stroke-linecap: square"/>
     <g>
      <use xlink:href="#m2f7e8f9398" x="109" y="197.041562" style="fill: #bcbd22; stroke: #bcbd22"/>
     </g>
    </g>
    <g id="text_27">
     <!-- PC = 9 -->
     <g transform="translate(127 200.541562) scale(0.1 -0.1)">
      <defs>
       <path id="DejaVuSans-39" d="M 703 97 
L 703 672 
Q 941 559 1184 500 
Q 1428 441 1663 441 
Q 2288 441 2617 861 
Q 2947 1281 2994 2138 
Q 2813 1869 2534 1725 
Q 2256 1581 1919 1581 
Q 1219 1581 811 2004 
Q 403 2428 403 3163 
Q 403 3881 828 4315 
Q 1253 4750 1959 4750 
Q 2769 4750 3195 4129 
Q 3622 3509 3622 2328 
Q 3622 1225 3098 567 
Q 2575 -91 1691 -91 
Q 1453 -91 1209 -44 
Q 966 3 703 97 
z
M 1959 2075 
Q 2384 2075 2632 2365 
Q 2881 2656 2881 3163 
Q 2881 3666 2632 3958 
Q 2384 4250 1959 4250 
Q 1534 4250 1286 3958 
Q 1038 3666 1038 3163 
Q 1038 2656 1286 2365 
Q 1534 2075 1959 2075 
z
" transform="scale(0.015625)"/>
      </defs>
      <use xlink:href="#DejaVuSans-50"/>
      <use xlink:href="#DejaVuSans-43" x="60.302734"/>
      <use xlink:href="#DejaVuSans-20" x="130.126953"/>
      <use xlink:href="#DejaVuSans-3d" x="161.914062"/>
      <use xlink:href="#DejaVuSans-20" x="245.703125"/>
      <use xlink:href="#DejaVuSans-39" x="277.490234"/>
     </g>
    </g>
    <g id="line2d_34">
     <path d="M 99 211.719687 
L 109 211.719687 
L 119 211.719687 
" style="fill: none; stroke: #17becf; stroke-width: 1.5; stroke-linecap: square"/>
     <g>
      <use xlink:href="#mf7ad91b971" x="109" y="211.719687" style="fill: #17becf; stroke: #17becf"/>
     </g>
    </g>
    <g id="text_28">
     <!-- PC = 10 -->
     <g transform="translate(127 215.219687) scale(0.1 -0.1)">
      <use xlink:href="#DejaVuSans-50"/>
      <use xlink:href="#DejaVuSans-43" x="60.302734"/>
      <use xlink:href="#DejaVuSans-20" x="130.126953"/>
      <use xlink:href="#DejaVuSans-3d" x="161.914062"/>
      <use xlink:href="#DejaVuSans-20" x="245.703125"/>
      <use xlink:href="#DejaVuSans-31" x="277.490234"/>
      <use xlink:href="#DejaVuSans-30" x="341.113281"/>
     </g>
    </g>
   </g>
  </g>
 </g>
 <defs>
  <clipPath id="pd4914120b8">
   <rect x="90" y="51.84" width="558" height="332.64"/>
  </clipPath>
 </defs>
</svg>
